<svg xmlns="http://www.w3.org/2000/svg" version="1.1" xmlns:xlink="http://www.w3.org/1999/xlink" xmlns:svgjs="http://svgjs.dev/svgjs" width="1900" height="1000" preserveAspectRatio="none" viewBox="0 0 1900 1000"><g mask="url(&quot;#SvgjsMask1288&quot;)" fill="none"><g mask="url(&quot;#SvgjsMask1289&quot;)"><path d="M950 370L930 390L930 410M950 310L930 330L930 350M950 290L930 310M950 110L930 130L930 150M950 210L930 230L930 250L930 270M950 -10L950 10L950 30L950 50L950 70L950 90L950 110L950 130L950 150L950 170L950 190L950 210L950 230L950 250L950 270L950 290L950 310L950 330L950 350L950 370L950 390L950 410" stroke="rgba(123, 140, 167, 1)" stroke-width="3.33"></path><path d="M945 410 a5 5 0 1 0 10 0 a5 5 0 1 0 -10 0zM925 410 a5 5 0 1 0 10 0 a5 5 0 1 0 -10 0zM925 350 a5 5 0 1 0 10 0 a5 5 0 1 0 -10 0zM925 310 a5 5 0 1 0 10 0 a5 5 0 1 0 -10 0zM925 150 a5 5 0 1 0 10 0 a5 5 0 1 0 -10 0zM925 270 a5 5 0 1 0 10 0 a5 5 0 1 0 -10 0z" fill="rgba(123, 140, 167, 1)"></path><path d="M970 130L990 150L990 170L990 190L990 210L990 230L990 250L990 270L990 290L990 310L990 330M970 350L990 370L990 390L1010 410L1010 430M970 450L990 470L990 490L990 510L990 530M970 90L990 110L990 130M970 410L990 430L990 450L1010 470L1010 490L1010 510L1010 530L1010 550L1010 570M970 470L950 490L930 510L910 530M970 -10L970 10L970 30L970 50L970 70L970 90L970 110L970 130L970 150L970 170L970 190L970 210L970 230L970 250L970 270L970 290L970 310L970 330L970 350L970 370L970 390L970 410L970 430L970 450L970 470L970 490" stroke="rgba(59, 130, 246, 1)" stroke-width="3.33"></path><path d="M965 490 a5 5 0 1 0 10 0 a5 5 0 1 0 -10 0zM985 330 a5 5 0 1 0 10 0 a5 5 0 1 0 -10 0zM1005 430 a5 5 0 1 0 10 0 a5 5 0 1 0 -10 0zM985 530 a5 5 0 1 0 10 0 a5 5 0 1 0 -10 0zM985 130 a5 5 0 1 0 10 0 a5 5 0 1 0 -10 0zM1005 570 a5 5 0 1 0 10 0 a5 5 0 1 0 -10 0zM905 530 a5 5 0 1 0 10 0 a5 5 0 1 0 -10 0z" fill="rgba(59, 130, 246, 1)"></path><path d="M830 670L810 690M870 450L850 470L850 490M890 350L870 370L870 390L870 410M890 330L910 350L910 370L910 390L910 410L910 430L910 450L890 470L890 490L890 510L890 530L890 550M890 230L890 250L890 270L910 290L910 310L910 330M850 510L830 530L830 550L830 570L830 590L810 610L810 630M910 190L910 210L910 230L910 250M850 530L870 550L870 570L870 590L870 610L870 630L870 650L870 670L870 690M830 610L850 630L850 650L850 670L850 690M930 -10L930 10L930 30L930 50L930 70L930 90L910 110L910 130L910 150L910 170L910 190L890 210L890 230L870 250L870 270L870 290L890 310L890 330L890 350L890 370L890 390L890 410L870 430L870 450L870 470L870 490L850 510L850 530L850 550L850 570L850 590L830 610L830 630L830 650L830 670L830 690L830 710" stroke="rgba(123, 140, 167, 1)" stroke-width="3.33"></path><path d="M825 710 a5 5 0 1 0 10 0 a5 5 0 1 0 -10 0zM805 690 a5 5 0 1 0 10 0 a5 5 0 1 0 -10 0zM845 490 a5 5 0 1 0 10 0 a5 5 0 1 0 -10 0zM865 410 a5 5 0 1 0 10 0 a5 5 0 1 0 -10 0zM885 550 a5 5 0 1 0 10 0 a5 5 0 1 0 -10 0zM905 330 a5 5 0 1 0 10 0 a5 5 0 1 0 -10 0zM805 630 a5 5 0 1 0 10 0 a5 5 0 1 0 -10 0zM905 250 a5 5 0 1 0 10 0 a5 5 0 1 0 -10 0zM865 690 a5 5 0 1 0 10 0 a5 5 0 1 0 -10 0zM845 690 a5 5 0 1 0 10 0 a5 5 0 1 0 -10 0z" fill="rgba(123, 140, 167, 1)"></path><path d="M990 10L1010 30L1010 50M990 70L990 90M1010 130L1030 150L1030 170L1030 190L1030 210M990 -10L990 10L990 30L990 50L990 70L1010 90L1010 110L1010 130L1010 150" stroke="rgba(123, 140, 167, 1)" stroke-width="3.33"></path><path d="M1005 150 a5 5 0 1 0 10 0 a5 5 0 1 0 -10 0zM1005 50 a5 5 0 1 0 10 0 a5 5 0 1 0 -10 0zM985 90 a5 5 0 1 0 10 0 a5 5 0 1 0 -10 0zM1025 210 a5 5 0 1 0 10 0 a5 5 0 1 0 -10 0z" fill="rgba(123, 140, 167, 1)"></path><path d="M810 430L830 450L830 470L830 490L830 510M810 450L790 470L790 490L770 510L770 530M870 210L870 230M830 390L850 410L850 430L850 450M830 410L830 430M850 290L850 310L850 330L850 350L850 370M910 -10L910 10L910 30L910 50L910 70L910 90L890 110L890 130L890 150L890 170L890 190L870 210L850 230L850 250L850 270L850 290L830 310L830 330L830 350L830 370L830 390L830 410L810 430L810 450L810 470L810 490" stroke="rgba(59, 130, 246, 1)" stroke-width="3.33"></path><path d="M805 490 a5 5 0 1 0 10 0 a5 5 0 1 0 -10 0zM825 510 a5 5 0 1 0 10 0 a5 5 0 1 0 -10 0zM765 530 a5 5 0 1 0 10 0 a5 5 0 1 0 -10 0zM865 230 a5 5 0 1 0 10 0 a5 5 0 1 0 -10 0zM845 450 a5 5 0 1 0 10 0 a5 5 0 1 0 -10 0zM825 430 a5 5 0 1 0 10 0 a5 5 0 1 0 -10 0zM845 370 a5 5 0 1 0 10 0 a5 5 0 1 0 -10 0z" fill="rgba(59, 130, 246, 1)"></path><path d="M810 390L790 410L770 430M890 -10L890 10L890 30L890 50L890 70L890 90L870 110L870 130L870 150L870 170L870 190L850 210L830 230L830 250L830 270L830 290L810 310L810 330L810 350L810 370L810 390L810 410L790 430" stroke="rgba(59, 130, 246, 1)" stroke-width="3.33"></path><path d="M785 430 a5 5 0 1 0 10 0 a5 5 0 1 0 -10 0zM765 430 a5 5 0 1 0 10 0 a5 5 0 1 0 -10 0z" fill="rgba(59, 130, 246, 1)"></path><path d="M1050 50L1030 70L1030 90M1030 30L1030 50M1030 -10L1030 10L1030 30L1050 50L1050 70L1050 90L1050 110" stroke="rgba(123, 140, 167, 1)" stroke-width="3.33"></path><path d="M1045 110 a5 5 0 1 0 10 0 a5 5 0 1 0 -10 0zM1025 90 a5 5 0 1 0 10 0 a5 5 0 1 0 -10 0zM1025 50 a5 5 0 1 0 10 0 a5 5 0 1 0 -10 0z" fill="rgba(123, 140, 167, 1)"></path><path d="M870 70L850 90M870 30L850 50L850 70M870 -10L870 10L870 30L870 50L870 70L870 90L850 110L850 130L850 150L850 170L850 190L830 210L810 230L810 250L810 270L810 290L790 310L790 330L790 350L790 370" stroke="rgba(107, 114, 128, 1)" stroke-width="3.33"></path><path d="M785 370 a5 5 0 1 0 10 0 a5 5 0 1 0 -10 0zM845 90 a5 5 0 1 0 10 0 a5 5 0 1 0 -10 0zM845 70 a5 5 0 1 0 10 0 a5 5 0 1 0 -10 0z" fill="rgba(107, 114, 128, 1)"></path><path d="M1050 -10L1050 10L1050 30" stroke="rgba(107, 114, 128, 1)" stroke-width="3.33"></path><path d="M1045 30 a5 5 0 1 0 10 0 a5 5 0 1 0 -10 0z" fill="rgba(107, 114, 128, 1)"></path><path d="M770 330L750 350L730 370L730 390M850 10L850 30M830 70L810 90L810 110M790 270L790 290M830 130L810 150L810 170L810 190M850 -10L850 10L830 30L830 50L830 70L830 90L830 110L830 130L830 150L830 170L830 190L810 210L790 230L790 250L790 270L770 290L770 310L770 330L770 350L750 370" stroke="rgba(123, 140, 167, 1)" stroke-width="3.33"></path><path d="M745 370 a5 5 0 1 0 10 0 a5 5 0 1 0 -10 0zM725 390 a5 5 0 1 0 10 0 a5 5 0 1 0 -10 0zM845 30 a5 5 0 1 0 10 0 a5 5 0 1 0 -10 0zM805 110 a5 5 0 1 0 10 0 a5 5 0 1 0 -10 0zM785 290 a5 5 0 1 0 10 0 a5 5 0 1 0 -10 0zM805 190 a5 5 0 1 0 10 0 a5 5 0 1 0 -10 0z" fill="rgba(123, 140, 167, 1)"></path><path d="M1070 130L1050 150L1050 170M1030 330L1050 350L1050 370L1030 390M1070 230L1050 250L1030 270L1030 290L1010 310M1030 310L1050 330M1070 -10L1070 10L1070 30L1070 50L1070 70L1070 90L1070 110L1070 130L1070 150L1070 170L1070 190L1070 210L1070 230L1070 250L1050 270L1050 290L1030 310L1030 330L1030 350" stroke="rgba(107, 114, 128, 1)" stroke-width="3.33"></path><path d="M1025 350 a5 5 0 1 0 10 0 a5 5 0 1 0 -10 0zM1045 170 a5 5 0 1 0 10 0 a5 5 0 1 0 -10 0zM1025 390 a5 5 0 1 0 10 0 a5 5 0 1 0 -10 0zM1005 310 a5 5 0 1 0 10 0 a5 5 0 1 0 -10 0zM1045 330 a5 5 0 1 0 10 0 a5 5 0 1 0 -10 0z" fill="rgba(107, 114, 128, 1)"></path><path d="M790 50L810 70M830 -10L830 10L810 30L790 50L790 70L790 90L790 110L790 130L790 150L790 170L790 190L790 210L770 230L770 250" stroke="rgba(107, 114, 128, 1)" stroke-width="3.33"></path><path d="M765 250 a5 5 0 1 0 10 0 a5 5 0 1 0 -10 0zM805 70 a5 5 0 1 0 10 0 a5 5 0 1 0 -10 0z" fill="rgba(107, 114, 128, 1)"></path><path d="M1090 370L1070 390L1070 410L1070 430M1090 110L1110 130M1090 190L1110 210M1090 250L1090 270L1090 290L1090 310L1090 330M1090 50L1110 70L1110 90L1110 110M1090 -10L1090 10L1090 30L1090 50L1090 70L1090 90L1090 110L1090 130L1090 150L1090 170L1090 190L1090 210L1090 230L1090 250L1070 270L1070 290L1070 310L1070 330L1090 350L1090 370L1090 390" stroke="rgba(59, 130, 246, 1)" stroke-width="3.33"></path><path d="M1085 390 a5 5 0 1 0 10 0 a5 5 0 1 0 -10 0zM1065 430 a5 5 0 1 0 10 0 a5 5 0 1 0 -10 0zM1105 130 a5 5 0 1 0 10 0 a5 5 0 1 0 -10 0zM1105 210 a5 5 0 1 0 10 0 a5 5 0 1 0 -10 0zM1085 330 a5 5 0 1 0 10 0 a5 5 0 1 0 -10 0zM1105 110 a5 5 0 1 0 10 0 a5 5 0 1 0 -10 0z" fill="rgba(59, 130, 246, 1)"></path><path d="M770 90L750 110L750 130L750 150L750 170M770 190L750 210M750 250L730 270L730 290L730 310M810 -10L810 10L790 30L770 50L770 70L770 90L770 110L770 130L770 150L770 170L770 190L770 210L750 230L750 250L750 270L750 290" stroke="rgba(59, 130, 246, 1)" stroke-width="3.33"></path><path d="M745 290 a5 5 0 1 0 10 0 a5 5 0 1 0 -10 0zM745 170 a5 5 0 1 0 10 0 a5 5 0 1 0 -10 0zM745 210 a5 5 0 1 0 10 0 a5 5 0 1 0 -10 0zM725 310 a5 5 0 1 0 10 0 a5 5 0 1 0 -10 0z" fill="rgba(59, 130, 246, 1)"></path><path d="M1110 -10L1110 10L1110 30" stroke="rgba(107, 114, 128, 1)" stroke-width="3.33"></path><path d="M1105 30 a5 5 0 1 0 10 0 a5 5 0 1 0 -10 0z" fill="rgba(107, 114, 128, 1)"></path><path d="M790 -10L790 10L770 30L750 50L750 70" stroke="rgba(59, 130, 246, 1)" stroke-width="3.33"></path><path d="M745 70 a5 5 0 1 0 10 0 a5 5 0 1 0 -10 0z" fill="rgba(59, 130, 246, 1)"></path><path d="M1130 350L1150 370M1130 510L1150 530L1150 550L1150 570L1150 590L1150 610L1150 630L1150 650L1150 670L1150 690M1130 270L1150 290L1150 310L1150 330M1110 630L1130 650L1130 670L1130 690L1150 710M1130 390L1150 410L1150 430L1150 450L1150 470L1150 490L1150 510M1130 250L1150 270L1170 290L1170 310L1170 330M1130 370L1110 390L1110 410L1110 430L1110 450L1110 470L1110 490L1110 510L1110 530L1110 550L1110 570L1110 590M1130 70L1130 90M1150 110L1130 130L1130 150L1130 170L1130 190M1130 -10L1130 10L1130 30L1130 50L1130 70L1150 90L1150 110L1150 130L1150 150L1150 170L1150 190L1130 210L1130 230L1130 250L1130 270L1130 290L1130 310L1130 330L1130 350L1130 370L1130 390L1130 410L1130 430L1130 450L1130 470L1130 490L1130 510L1130 530L1130 550L1130 570L1130 590L1130 610L1110 630L1110 650L1110 670L1110 690L1110 710" stroke="rgba(107, 114, 128, 1)" stroke-width="3.33"></path><path d="M1105 710 a5 5 0 1 0 10 0 a5 5 0 1 0 -10 0zM1145 370 a5 5 0 1 0 10 0 a5 5 0 1 0 -10 0zM1145 690 a5 5 0 1 0 10 0 a5 5 0 1 0 -10 0zM1145 330 a5 5 0 1 0 10 0 a5 5 0 1 0 -10 0zM1145 710 a5 5 0 1 0 10 0 a5 5 0 1 0 -10 0zM1145 510 a5 5 0 1 0 10 0 a5 5 0 1 0 -10 0zM1165 330 a5 5 0 1 0 10 0 a5 5 0 1 0 -10 0zM1105 590 a5 5 0 1 0 10 0 a5 5 0 1 0 -10 0zM1125 90 a5 5 0 1 0 10 0 a5 5 0 1 0 -10 0zM1125 190 a5 5 0 1 0 10 0 a5 5 0 1 0 -10 0z" fill="rgba(107, 114, 128, 1)"></path><path d="M770 -10L770 10L750 30L730 50" stroke="rgba(59, 130, 246, 1)" stroke-width="3.33"></path><path d="M725 50 a5 5 0 1 0 10 0 a5 5 0 1 0 -10 0z" fill="rgba(59, 130, 246, 1)"></path><path d="M1190 450L1170 470L1170 490L1170 510L1170 530M1190 350L1170 370M1190 250L1170 270M1170 230L1170 250M1190 390L1170 410L1170 430L1170 450M1190 550L1170 570L1170 590L1170 610L1170 630M1150 -10L1150 10L1150 30L1150 50L1150 70L1170 90L1170 110L1170 130L1170 150L1170 170L1170 190L1170 210L1170 230L1190 250L1190 270L1190 290L1190 310L1190 330L1190 350L1190 370L1190 390L1190 410L1190 430L1190 450L1190 470L1190 490L1190 510L1190 530L1190 550L1190 570L1190 590" stroke="rgba(107, 114, 128, 1)" stroke-width="3.33"></path><path d="M1185 590 a5 5 0 1 0 10 0 a5 5 0 1 0 -10 0zM1165 530 a5 5 0 1 0 10 0 a5 5 0 1 0 -10 0zM1165 370 a5 5 0 1 0 10 0 a5 5 0 1 0 -10 0zM1165 270 a5 5 0 1 0 10 0 a5 5 0 1 0 -10 0zM1165 250 a5 5 0 1 0 10 0 a5 5 0 1 0 -10 0zM1165 450 a5 5 0 1 0 10 0 a5 5 0 1 0 -10 0zM1165 630 a5 5 0 1 0 10 0 a5 5 0 1 0 -10 0z" fill="rgba(107, 114, 128, 1)"></path><path d="M710 150L730 170M710 130L730 150M730 90L710 110M750 -10L750 10L730 30L710 50L710 70L730 90L730 110L710 130L710 150L710 170" stroke="rgba(123, 140, 167, 1)" stroke-width="3.33"></path><path d="M705 170 a5 5 0 1 0 10 0 a5 5 0 1 0 -10 0zM725 170 a5 5 0 1 0 10 0 a5 5 0 1 0 -10 0zM725 150 a5 5 0 1 0 10 0 a5 5 0 1 0 -10 0zM705 110 a5 5 0 1 0 10 0 a5 5 0 1 0 -10 0z" fill="rgba(123, 140, 167, 1)"></path><path d="M1210 690L1210 710L1210 730L1210 750L1210 770L1210 790L1210 810L1210 830M1210 670L1190 690L1190 710L1170 730M1210 610L1190 630L1190 650L1190 670L1170 690M1210 650L1230 670L1230 690L1250 710L1250 730L1250 750L1250 770L1250 790M1170 -10L1170 10L1170 30L1170 50L1170 70L1190 90L1190 110L1190 130L1190 150L1190 170L1190 190L1190 210L1190 230L1210 250L1210 270L1210 290L1210 310L1210 330L1210 350L1210 370L1210 390L1210 410L1210 430L1210 450L1210 470L1210 490L1210 510L1210 530L1210 550L1210 570L1210 590L1210 610L1210 630L1210 650L1210 670L1210 690L1230 710L1230 730" stroke="rgba(123, 140, 167, 1)" stroke-width="3.33"></path><path d="M1225 730 a5 5 0 1 0 10 0 a5 5 0 1 0 -10 0zM1205 830 a5 5 0 1 0 10 0 a5 5 0 1 0 -10 0zM1165 730 a5 5 0 1 0 10 0 a5 5 0 1 0 -10 0zM1165 690 a5 5 0 1 0 10 0 a5 5 0 1 0 -10 0zM1245 790 a5 5 0 1 0 10 0 a5 5 0 1 0 -10 0z" fill="rgba(123, 140, 167, 1)"></path><path d="M690 70L670 90L670 110L670 130L670 150M710 310L690 330L690 350L690 370L690 390L690 410M710 250L690 270L690 290L690 310M690 170L670 190L670 210L670 230M710 210L730 230L730 250M730 -10L730 10L710 30L690 50L690 70L690 90L690 110L690 130L690 150L690 170L690 190L710 210L710 230L710 250L710 270L710 290L710 310L710 330L710 350L710 370L710 390" stroke="rgba(59, 130, 246, 1)" stroke-width="3.33"></path><path d="M705 390 a5 5 0 1 0 10 0 a5 5 0 1 0 -10 0zM665 150 a5 5 0 1 0 10 0 a5 5 0 1 0 -10 0zM685 410 a5 5 0 1 0 10 0 a5 5 0 1 0 -10 0zM685 310 a5 5 0 1 0 10 0 a5 5 0 1 0 -10 0zM665 230 a5 5 0 1 0 10 0 a5 5 0 1 0 -10 0zM725 250 a5 5 0 1 0 10 0 a5 5 0 1 0 -10 0z" fill="rgba(59, 130, 246, 1)"></path><path d="M1230 430L1250 450L1250 470M1230 590L1250 610L1250 630L1230 650M1230 490L1250 510M1230 570L1250 590L1270 610L1290 630L1290 650M1230 550L1250 570L1270 590L1290 610L1310 630M1230 410L1250 430L1270 450M1230 390L1250 410M1230 530L1250 550L1270 570L1290 590M1190 -10L1190 10L1190 30L1190 50L1190 70L1210 90L1210 110L1210 130L1210 150L1210 170L1210 190L1210 210L1210 230L1230 250L1230 270L1230 290L1230 310L1230 330L1230 350L1230 370L1230 390L1230 410L1230 430L1230 450L1230 470L1230 490L1230 510L1230 530L1230 550L1230 570L1230 590L1230 610L1230 630" stroke="rgba(123, 140, 167, 1)" stroke-width="3.33"></path><path d="M1225 630 a5 5 0 1 0 10 0 a5 5 0 1 0 -10 0zM1245 470 a5 5 0 1 0 10 0 a5 5 0 1 0 -10 0zM1225 650 a5 5 0 1 0 10 0 a5 5 0 1 0 -10 0zM1245 510 a5 5 0 1 0 10 0 a5 5 0 1 0 -10 0zM1285 650 a5 5 0 1 0 10 0 a5 5 0 1 0 -10 0zM1305 630 a5 5 0 1 0 10 0 a5 5 0 1 0 -10 0zM1265 450 a5 5 0 1 0 10 0 a5 5 0 1 0 -10 0zM1245 410 a5 5 0 1 0 10 0 a5 5 0 1 0 -10 0zM1285 590 a5 5 0 1 0 10 0 a5 5 0 1 0 -10 0z" fill="rgba(123, 140, 167, 1)"></path><path d="M710 -10L710 10L690 30L670 50" stroke="rgba(123, 140, 167, 1)" stroke-width="3.33"></path><path d="M665 50 a5 5 0 1 0 10 0 a5 5 0 1 0 -10 0z" fill="rgba(123, 140, 167, 1)"></path><path d="M1210 -10L1210 10L1210 30L1210 50L1210 70L1230 90L1230 110L1230 130L1230 150" stroke="rgba(123, 140, 167, 1)" stroke-width="3.33"></path><path d="M1225 150 a5 5 0 1 0 10 0 a5 5 0 1 0 -10 0z" fill="rgba(123, 140, 167, 1)"></path><path d="M610 670L630 690L630 710L630 730L630 750L630 770L630 790L630 810L630 830M610 610L590 630L590 650L590 670L590 690L590 710L590 730L590 750L590 770L590 790L590 810L590 830M650 350L630 370M610 530L630 550L630 570L630 590L630 610L630 630L630 650L630 670L650 690M650 370L650 390L650 410M610 490L630 510L630 530L650 550L650 570L670 590L670 610L670 630L670 650L670 670L670 690L670 710M650 230L630 250L630 270L630 290L630 310L630 330L630 350M650 210L630 230M650 330L670 350L670 370L670 390L670 410M650 310L670 330M690 -10L690 10L670 30L650 50L650 70L650 90L650 110L650 130L650 150L650 170L650 190L650 210L650 230L650 250L650 270L650 290L650 310L650 330L650 350L650 370L630 390L630 410L630 430L610 450L610 470L610 490L610 510L610 530L610 550L610 570L610 590L610 610L610 630L610 650L610 670L610 690L610 710L610 730L610 750L610 770L610 790" stroke="rgba(59, 130, 246, 1)" stroke-width="3.33"></path><path d="M605 790 a5 5 0 1 0 10 0 a5 5 0 1 0 -10 0zM625 830 a5 5 0 1 0 10 0 a5 5 0 1 0 -10 0zM585 830 a5 5 0 1 0 10 0 a5 5 0 1 0 -10 0zM625 370 a5 5 0 1 0 10 0 a5 5 0 1 0 -10 0zM645 690 a5 5 0 1 0 10 0 a5 5 0 1 0 -10 0zM645 410 a5 5 0 1 0 10 0 a5 5 0 1 0 -10 0zM665 710 a5 5 0 1 0 10 0 a5 5 0 1 0 -10 0zM625 350 a5 5 0 1 0 10 0 a5 5 0 1 0 -10 0zM625 230 a5 5 0 1 0 10 0 a5 5 0 1 0 -10 0zM665 410 a5 5 0 1 0 10 0 a5 5 0 1 0 -10 0zM665 330 a5 5 0 1 0 10 0 a5 5 0 1 0 -10 0z" fill="rgba(59, 130, 246, 1)"></path><path d="M1230 170L1250 190M1230 210L1250 230M1250 150L1250 170M1230 30L1250 50M1250 350L1270 370M1230 -10L1230 10L1230 30L1230 50L1250 70L1250 90L1250 110L1250 130L1250 150L1230 170L1230 190L1230 210L1230 230L1250 250L1250 270L1250 290L1250 310L1250 330L1250 350L1250 370" stroke="rgba(123, 140, 167, 1)" stroke-width="3.33"></path><path d="M1245 370 a5 5 0 1 0 10 0 a5 5 0 1 0 -10 0zM1245 190 a5 5 0 1 0 10 0 a5 5 0 1 0 -10 0zM1245 230 a5 5 0 1 0 10 0 a5 5 0 1 0 -10 0zM1245 170 a5 5 0 1 0 10 0 a5 5 0 1 0 -10 0zM1245 50 a5 5 0 1 0 10 0 a5 5 0 1 0 -10 0zM1265 370 a5 5 0 1 0 10 0 a5 5 0 1 0 -10 0z" fill="rgba(123, 140, 167, 1)"></path><path d="M590 570L590 590L590 610M610 330L590 350L590 370L590 390M610 410L590 430L570 450M550 790L570 810L570 830M570 610L550 630L550 650L550 670L550 690M610 270L590 290L590 310L590 330M570 750L550 770L530 790L530 810L530 830M570 730L550 750L530 770M570 590L550 610M570 710L550 730M670 -10L670 10L650 30L630 50L630 70L630 90L630 110L630 130L630 150L630 170L610 190L610 210L610 230L610 250L610 270L610 290L610 310L610 330L610 350L610 370L610 390L610 410L610 430L590 450L590 470L590 490L590 510L590 530L590 550L590 570L570 590L570 610L570 630L570 650L570 670L570 690L570 710L570 730L570 750L570 770L550 790L550 810" stroke="rgba(59, 130, 246, 1)" stroke-width="3.33"></path><path d="M545 810 a5 5 0 1 0 10 0 a5 5 0 1 0 -10 0zM585 610 a5 5 0 1 0 10 0 a5 5 0 1 0 -10 0zM585 390 a5 5 0 1 0 10 0 a5 5 0 1 0 -10 0zM565 450 a5 5 0 1 0 10 0 a5 5 0 1 0 -10 0zM565 830 a5 5 0 1 0 10 0 a5 5 0 1 0 -10 0zM545 690 a5 5 0 1 0 10 0 a5 5 0 1 0 -10 0zM585 330 a5 5 0 1 0 10 0 a5 5 0 1 0 -10 0zM525 830 a5 5 0 1 0 10 0 a5 5 0 1 0 -10 0zM525 770 a5 5 0 1 0 10 0 a5 5 0 1 0 -10 0zM545 610 a5 5 0 1 0 10 0 a5 5 0 1 0 -10 0zM545 730 a5 5 0 1 0 10 0 a5 5 0 1 0 -10 0z" fill="rgba(59, 130, 246, 1)"></path><path d="M1250 -10L1250 10" stroke="rgba(59, 130, 246, 1)" stroke-width="3.33"></path><path d="M1245 10 a5 5 0 1 0 10 0 a5 5 0 1 0 -10 0z" fill="rgba(59, 130, 246, 1)"></path><path d="M610 90L590 110L590 130L590 150L590 170M590 190L570 210M650 -10L650 10L630 30L610 50L610 70L610 90L610 110L610 130L610 150L610 170L590 190L590 210" stroke="rgba(123, 140, 167, 1)" stroke-width="3.33"></path><path d="M585 210 a5 5 0 1 0 10 0 a5 5 0 1 0 -10 0zM585 170 a5 5 0 1 0 10 0 a5 5 0 1 0 -10 0zM565 210 a5 5 0 1 0 10 0 a5 5 0 1 0 -10 0z" fill="rgba(123, 140, 167, 1)"></path><path d="M1270 70L1290 90L1290 110L1290 130L1290 150M1270 170L1290 190L1290 210L1290 230L1290 250M1270 270L1290 290M1270 50L1290 70M1270 -10L1270 10L1270 30L1270 50L1270 70L1270 90L1270 110L1270 130L1270 150L1270 170L1270 190L1270 210L1270 230L1270 250L1270 270L1270 290L1270 310L1270 330L1290 350L1290 370" stroke="rgba(59, 130, 246, 1)" stroke-width="3.33"></path><path d="M1285 370 a5 5 0 1 0 10 0 a5 5 0 1 0 -10 0zM1285 150 a5 5 0 1 0 10 0 a5 5 0 1 0 -10 0zM1285 250 a5 5 0 1 0 10 0 a5 5 0 1 0 -10 0zM1285 290 a5 5 0 1 0 10 0 a5 5 0 1 0 -10 0zM1285 70 a5 5 0 1 0 10 0 a5 5 0 1 0 -10 0z" fill="rgba(59, 130, 246, 1)"></path><path d="M530 290L550 310L550 330L550 350L550 370L570 390L570 410M530 310L510 330L510 350L510 370L510 390L510 410L510 430L510 450L510 470L510 490M510 710L490 730L490 750L490 770L490 790L490 810M550 270L550 290L570 310L570 330L570 350L570 370M510 550L490 570L490 590L490 610L490 630L490 650L470 670L470 690L470 710L470 730L470 750M510 670L490 690L490 710M530 450L550 470L550 490L550 510M510 610L530 630L530 650L530 670L530 690M590 70L590 90M530 490L530 510L530 530L530 550L530 570M630 -10L630 10L610 30L590 50L590 70L570 90L570 110L570 130L570 150L550 170L550 190L550 210L550 230L550 250L550 270L530 290L530 310L530 330L530 350L530 370L530 390L530 410L530 430L530 450L530 470L530 490L510 510L510 530L510 550L510 570L510 590L510 610L510 630L510 650L510 670L510 690L510 710L510 730L510 750L510 770L510 790" stroke="rgba(107, 114, 128, 1)" stroke-width="3.33"></path><path d="M505 790 a5 5 0 1 0 10 0 a5 5 0 1 0 -10 0zM565 410 a5 5 0 1 0 10 0 a5 5 0 1 0 -10 0zM505 490 a5 5 0 1 0 10 0 a5 5 0 1 0 -10 0zM485 810 a5 5 0 1 0 10 0 a5 5 0 1 0 -10 0zM565 370 a5 5 0 1 0 10 0 a5 5 0 1 0 -10 0zM465 750 a5 5 0 1 0 10 0 a5 5 0 1 0 -10 0zM485 710 a5 5 0 1 0 10 0 a5 5 0 1 0 -10 0zM545 510 a5 5 0 1 0 10 0 a5 5 0 1 0 -10 0zM525 690 a5 5 0 1 0 10 0 a5 5 0 1 0 -10 0zM585 90 a5 5 0 1 0 10 0 a5 5 0 1 0 -10 0zM525 570 a5 5 0 1 0 10 0 a5 5 0 1 0 -10 0z" fill="rgba(107, 114, 128, 1)"></path><path d="M1330 550L1310 570L1310 590L1310 610L1330 630L1330 650L1330 670L1330 690L1330 710L1330 730M1310 350L1310 370L1310 390L1310 410L1310 430L1290 450L1290 470L1290 490L1310 510M1310 90L1330 110L1330 130L1330 150M1310 210L1330 230L1330 250L1330 270L1330 290M1310 290L1310 310L1310 330L1330 350M1330 530L1310 550L1290 570M1310 70L1330 90M1290 -10L1290 10L1290 30L1310 50L1310 70L1310 90L1310 110L1310 130L1310 150L1310 170L1310 190L1310 210L1310 230L1310 250L1310 270L1310 290L1290 310L1290 330L1310 350L1330 370L1330 390L1330 410L1330 430L1330 450L1330 470L1330 490L1330 510L1330 530L1330 550L1330 570L1330 590" stroke="rgba(107, 114, 128, 1)" stroke-width="3.33"></path><path d="M1325 590 a5 5 0 1 0 10 0 a5 5 0 1 0 -10 0zM1325 730 a5 5 0 1 0 10 0 a5 5 0 1 0 -10 0zM1305 510 a5 5 0 1 0 10 0 a5 5 0 1 0 -10 0zM1325 150 a5 5 0 1 0 10 0 a5 5 0 1 0 -10 0zM1325 290 a5 5 0 1 0 10 0 a5 5 0 1 0 -10 0zM1325 350 a5 5 0 1 0 10 0 a5 5 0 1 0 -10 0zM1285 570 a5 5 0 1 0 10 0 a5 5 0 1 0 -10 0zM1325 90 a5 5 0 1 0 10 0 a5 5 0 1 0 -10 0z" fill="rgba(107, 114, 128, 1)"></path><path d="M470 510L490 530L490 550L470 570M470 430L490 450L490 470M470 370L490 390L490 410L490 430M510 290L510 310M570 50L570 70M530 250L510 270M530 230L510 250M610 -10L610 10L590 30L570 50L550 70L550 90L550 110L550 130L550 150L530 170L530 190L530 210L530 230L530 250L530 270L510 290L490 310L490 330L490 350L470 370L470 390L470 410L470 430L470 450L470 470L470 490L470 510L470 530" stroke="rgba(107, 114, 128, 1)" stroke-width="3.33"></path><path d="M465 530 a5 5 0 1 0 10 0 a5 5 0 1 0 -10 0zM465 570 a5 5 0 1 0 10 0 a5 5 0 1 0 -10 0zM485 470 a5 5 0 1 0 10 0 a5 5 0 1 0 -10 0zM485 430 a5 5 0 1 0 10 0 a5 5 0 1 0 -10 0zM505 310 a5 5 0 1 0 10 0 a5 5 0 1 0 -10 0zM565 70 a5 5 0 1 0 10 0 a5 5 0 1 0 -10 0zM505 270 a5 5 0 1 0 10 0 a5 5 0 1 0 -10 0zM505 250 a5 5 0 1 0 10 0 a5 5 0 1 0 -10 0z" fill="rgba(107, 114, 128, 1)"></path><path d="M1350 290L1370 310L1370 330M1350 310L1330 330M1370 610L1390 630L1390 650M1350 410L1370 430L1370 450L1370 470L1370 490M1350 370L1370 390L1370 410L1390 430L1390 450M1350 510L1370 530L1370 550L1370 570L1390 590L1390 610L1410 630L1410 650L1410 670L1410 690M1370 590L1350 610L1350 630L1350 650L1350 670L1350 690L1350 710L1350 730L1350 750M1350 250L1370 270L1370 290L1390 310L1410 330L1410 350L1410 370L1410 390M1310 -10L1310 10L1310 30L1330 50L1350 70L1350 90L1350 110L1350 130L1350 150L1350 170L1350 190L1350 210L1350 230L1350 250L1350 270L1350 290L1350 310L1350 330L1350 350L1350 370L1350 390L1350 410L1350 430L1350 450L1350 470L1350 490L1350 510L1350 530L1350 550L1350 570L1370 590L1370 610L1370 630" stroke="rgba(59, 130, 246, 1)" stroke-width="3.33"></path><path d="M1365 630 a5 5 0 1 0 10 0 a5 5 0 1 0 -10 0zM1365 330 a5 5 0 1 0 10 0 a5 5 0 1 0 -10 0zM1325 330 a5 5 0 1 0 10 0 a5 5 0 1 0 -10 0zM1385 650 a5 5 0 1 0 10 0 a5 5 0 1 0 -10 0zM1365 490 a5 5 0 1 0 10 0 a5 5 0 1 0 -10 0zM1385 450 a5 5 0 1 0 10 0 a5 5 0 1 0 -10 0zM1405 690 a5 5 0 1 0 10 0 a5 5 0 1 0 -10 0zM1345 750 a5 5 0 1 0 10 0 a5 5 0 1 0 -10 0zM1405 390 a5 5 0 1 0 10 0 a5 5 0 1 0 -10 0z" fill="rgba(59, 130, 246, 1)"></path><path d="M590 -10L590 10L570 30L550 50L530 70L530 90L530 110L530 130L530 150L510 170L510 190L510 210" stroke="rgba(107, 114, 128, 1)" stroke-width="3.33"></path><path d="M505 210 a5 5 0 1 0 10 0 a5 5 0 1 0 -10 0z" fill="rgba(107, 114, 128, 1)"></path><path d="M1330 -10L1330 10L1330 30L1350 50L1370 70L1370 90L1370 110L1370 130L1370 150L1370 170L1370 190L1370 210" stroke="rgba(123, 140, 167, 1)" stroke-width="3.33"></path><path d="M1365 210 a5 5 0 1 0 10 0 a5 5 0 1 0 -10 0z" fill="rgba(123, 140, 167, 1)"></path><path d="M430 610L450 630L470 650M490 190L470 210M510 110L490 130M510 90L490 110M490 170L470 190M430 550L450 570M430 530L450 550M450 650L430 670L430 690M570 -10L570 10L550 30L530 50L510 70L510 90L510 110L510 130L510 150L490 170L490 190L490 210L490 230L490 250L490 270L490 290L470 310L470 330L470 350L450 370L450 390L450 410L450 430L450 450L450 470L450 490L450 510L430 530L430 550L430 570L430 590L430 610L430 630L450 650L450 670" stroke="rgba(107, 114, 128, 1)" stroke-width="3.33"></path><path d="M445 670 a5 5 0 1 0 10 0 a5 5 0 1 0 -10 0zM465 650 a5 5 0 1 0 10 0 a5 5 0 1 0 -10 0zM465 210 a5 5 0 1 0 10 0 a5 5 0 1 0 -10 0zM485 130 a5 5 0 1 0 10 0 a5 5 0 1 0 -10 0zM485 110 a5 5 0 1 0 10 0 a5 5 0 1 0 -10 0zM465 190 a5 5 0 1 0 10 0 a5 5 0 1 0 -10 0zM445 570 a5 5 0 1 0 10 0 a5 5 0 1 0 -10 0zM445 550 a5 5 0 1 0 10 0 a5 5 0 1 0 -10 0zM425 690 a5 5 0 1 0 10 0 a5 5 0 1 0 -10 0z" fill="rgba(107, 114, 128, 1)"></path><path d="M1430 210L1410 230L1410 250M1390 150L1390 170L1390 190L1390 210L1390 230L1390 250L1410 270M1470 450L1450 470L1450 490L1450 510L1450 530M1450 330L1450 350L1450 370L1450 390L1450 410L1450 430L1430 450M1410 190L1410 210M1450 310L1470 330M1350 -10L1350 10L1350 30L1370 50L1390 70L1390 90L1390 110L1390 130L1390 150L1410 170L1410 190L1430 210L1430 230L1430 250L1430 270L1450 290L1450 310L1450 330L1470 350L1470 370L1470 390L1470 410L1470 430L1470 450L1470 470" stroke="rgba(107, 114, 128, 1)" stroke-width="3.33"></path><path d="M1465 470 a5 5 0 1 0 10 0 a5 5 0 1 0 -10 0zM1405 250 a5 5 0 1 0 10 0 a5 5 0 1 0 -10 0zM1405 270 a5 5 0 1 0 10 0 a5 5 0 1 0 -10 0zM1445 530 a5 5 0 1 0 10 0 a5 5 0 1 0 -10 0zM1425 450 a5 5 0 1 0 10 0 a5 5 0 1 0 -10 0zM1405 210 a5 5 0 1 0 10 0 a5 5 0 1 0 -10 0zM1465 330 a5 5 0 1 0 10 0 a5 5 0 1 0 -10 0z" fill="rgba(107, 114, 128, 1)"></path><path d="M550 -10L550 10L530 30" stroke="rgba(123, 140, 167, 1)" stroke-width="3.33"></path><path d="M525 30 a5 5 0 1 0 10 0 a5 5 0 1 0 -10 0z" fill="rgba(123, 140, 167, 1)"></path><path d="M1470 290L1470 310M1470 250L1450 270M1370 -10L1370 10L1370 30L1390 50L1410 70L1410 90L1410 110L1410 130L1410 150L1430 170L1430 190L1450 210L1450 230L1470 250L1470 270L1470 290L1490 310L1490 330L1490 350L1490 370L1490 390L1490 410L1490 430L1490 450L1490 470L1490 490" stroke="rgba(59, 130, 246, 1)" stroke-width="3.33"></path><path d="M1485 490 a5 5 0 1 0 10 0 a5 5 0 1 0 -10 0zM1465 310 a5 5 0 1 0 10 0 a5 5 0 1 0 -10 0zM1445 270 a5 5 0 1 0 10 0 a5 5 0 1 0 -10 0z" fill="rgba(59, 130, 246, 1)"></path><path d="M450 330L430 350M470 270L450 290M450 190L430 210L430 230M490 70L490 90M470 150L470 170M470 250L450 270L430 290M450 310L430 330M450 210L450 230L450 250L430 270M530 -10L530 10L510 30L510 50L490 70L470 90L470 110L470 130L470 150L450 170L450 190L450 210L470 230L470 250L470 270L470 290L450 310L450 330L450 350L430 370L430 390L430 410L430 430L430 450L430 470L430 490L430 510L410 530L410 550L410 570L410 590L410 610" stroke="rgba(59, 130, 246, 1)" stroke-width="3.33"></path><path d="M405 610 a5 5 0 1 0 10 0 a5 5 0 1 0 -10 0zM425 350 a5 5 0 1 0 10 0 a5 5 0 1 0 -10 0zM445 290 a5 5 0 1 0 10 0 a5 5 0 1 0 -10 0zM425 230 a5 5 0 1 0 10 0 a5 5 0 1 0 -10 0zM485 90 a5 5 0 1 0 10 0 a5 5 0 1 0 -10 0zM465 170 a5 5 0 1 0 10 0 a5 5 0 1 0 -10 0zM425 290 a5 5 0 1 0 10 0 a5 5 0 1 0 -10 0zM425 330 a5 5 0 1 0 10 0 a5 5 0 1 0 -10 0zM425 270 a5 5 0 1 0 10 0 a5 5 0 1 0 -10 0z" fill="rgba(59, 130, 246, 1)"></path><path d="M1510 410L1530 430L1530 450L1530 470M1530 670L1550 690L1550 710L1570 730L1570 750L1570 770L1570 790L1570 810L1570 830M1530 650L1510 670L1510 690L1510 710L1510 730M1510 370L1530 390L1530 410M1510 510L1510 530L1510 550L1510 570M1530 590L1510 610L1510 630L1510 650L1490 670L1490 690M1530 570L1550 590L1550 610L1550 630L1570 650L1570 670L1570 690M1530 750L1550 770L1550 790M1530 530L1550 550L1550 570L1570 590L1570 610L1570 630L1590 650L1590 670L1590 690M1510 490L1530 510L1550 530L1570 550L1570 570L1590 590L1590 610L1590 630L1610 650L1610 670L1630 690L1630 710M1390 -10L1390 10L1390 30L1410 50L1430 70L1430 90L1430 110L1430 130L1430 150L1450 170L1450 190L1470 210L1470 230L1490 250L1490 270L1490 290L1510 310L1510 330L1510 350L1510 370L1510 390L1510 410L1510 430L1510 450L1510 470L1510 490L1510 510L1530 530L1530 550L1530 570L1530 590L1530 610L1530 630L1530 650L1530 670L1530 690L1530 710L1530 730L1530 750L1530 770" stroke="rgba(107, 114, 128, 1)" stroke-width="3.33"></path><path d="M1525 770 a5 5 0 1 0 10 0 a5 5 0 1 0 -10 0zM1525 470 a5 5 0 1 0 10 0 a5 5 0 1 0 -10 0zM1565 830 a5 5 0 1 0 10 0 a5 5 0 1 0 -10 0zM1505 730 a5 5 0 1 0 10 0 a5 5 0 1 0 -10 0zM1525 410 a5 5 0 1 0 10 0 a5 5 0 1 0 -10 0zM1505 570 a5 5 0 1 0 10 0 a5 5 0 1 0 -10 0zM1485 690 a5 5 0 1 0 10 0 a5 5 0 1 0 -10 0zM1565 690 a5 5 0 1 0 10 0 a5 5 0 1 0 -10 0zM1545 790 a5 5 0 1 0 10 0 a5 5 0 1 0 -10 0zM1585 690 a5 5 0 1 0 10 0 a5 5 0 1 0 -10 0zM1625 710 a5 5 0 1 0 10 0 a5 5 0 1 0 -10 0z" fill="rgba(107, 114, 128, 1)"></path><path d="M410 450L390 470L390 490L390 510L370 530L350 550L350 570L350 590L330 610L330 630M410 410L390 430L370 450L370 470L370 490L370 510L350 530L330 550M410 330L390 350L390 370L370 390L370 410L370 430L350 450L350 470L350 490L350 510L330 530M390 630L370 650M390 550L370 570L370 590L350 610L350 630M390 650L410 670L410 690L410 710L390 730L390 750M370 670L350 690L350 710L370 730L370 750L370 770L390 790L390 810L390 830M370 690L390 710M390 610L370 630M510 -10L510 10L490 30L490 50L470 70L450 90L450 110L450 130L450 150L430 170L410 190L410 210L410 230L410 250L410 270L410 290L410 310L410 330L410 350L410 370L410 390L410 410L410 430L410 450L410 470L410 490L410 510L390 530L390 550L390 570L390 590L390 610L390 630L390 650L370 670L370 690L370 710" stroke="rgba(59, 130, 246, 1)" stroke-width="3.33"></path><path d="M365 710 a5 5 0 1 0 10 0 a5 5 0 1 0 -10 0zM325 630 a5 5 0 1 0 10 0 a5 5 0 1 0 -10 0zM325 550 a5 5 0 1 0 10 0 a5 5 0 1 0 -10 0zM325 530 a5 5 0 1 0 10 0 a5 5 0 1 0 -10 0zM365 650 a5 5 0 1 0 10 0 a5 5 0 1 0 -10 0zM345 630 a5 5 0 1 0 10 0 a5 5 0 1 0 -10 0zM385 750 a5 5 0 1 0 10 0 a5 5 0 1 0 -10 0zM385 830 a5 5 0 1 0 10 0 a5 5 0 1 0 -10 0zM385 710 a5 5 0 1 0 10 0 a5 5 0 1 0 -10 0zM365 630 a5 5 0 1 0 10 0 a5 5 0 1 0 -10 0z" fill="rgba(59, 130, 246, 1)"></path><path d="M1410 10L1430 30L1450 50L1470 70M1510 250L1530 270L1530 290L1530 310M1450 110L1470 130L1470 150M1410 -10L1410 10L1410 30L1430 50L1450 70L1450 90L1450 110L1450 130L1450 150L1470 170L1470 190L1490 210L1490 230L1510 250L1510 270" stroke="rgba(59, 130, 246, 1)" stroke-width="3.33"></path><path d="M1505 270 a5 5 0 1 0 10 0 a5 5 0 1 0 -10 0zM1465 70 a5 5 0 1 0 10 0 a5 5 0 1 0 -10 0zM1525 310 a5 5 0 1 0 10 0 a5 5 0 1 0 -10 0zM1465 150 a5 5 0 1 0 10 0 a5 5 0 1 0 -10 0z" fill="rgba(59, 130, 246, 1)"></path><path d="M430 130L410 150M390 210L370 230L370 250M430 90L410 110L410 130L390 150M490 -10L490 10L470 30L470 50L450 70L430 90L430 110L430 130L430 150L410 170L390 190L390 210L390 230" stroke="rgba(107, 114, 128, 1)" stroke-width="3.33"></path><path d="M385 230 a5 5 0 1 0 10 0 a5 5 0 1 0 -10 0zM405 150 a5 5 0 1 0 10 0 a5 5 0 1 0 -10 0zM365 250 a5 5 0 1 0 10 0 a5 5 0 1 0 -10 0zM385 150 a5 5 0 1 0 10 0 a5 5 0 1 0 -10 0z" fill="rgba(107, 114, 128, 1)"></path></g></g><defs><mask id="SvgjsMask1288"><rect width="1900" height="1000" fill="#ffffff"></rect></mask><mask id="SvgjsMask1289"><rect width="1900" height="1000" fill="white"></rect><path d="M947.5 410 a2.5 2.5 0 1 0 5 0 a2.5 2.5 0 1 0 -5 0zM927.5 410 a2.5 2.5 0 1 0 5 0 a2.5 2.5 0 1 0 -5 0zM927.5 350 a2.5 2.5 0 1 0 5 0 a2.5 2.5 0 1 0 -5 0zM927.5 310 a2.5 2.5 0 1 0 5 0 a2.5 2.5 0 1 0 -5 0zM927.5 150 a2.5 2.5 0 1 0 5 0 a2.5 2.5 0 1 0 -5 0zM927.5 270 a2.5 2.5 0 1 0 5 0 a2.5 2.5 0 1 0 -5 0z" fill="black"></path><path d="M967.5 490 a2.5 2.5 0 1 0 5 0 a2.5 2.5 0 1 0 -5 0zM987.5 330 a2.5 2.5 0 1 0 5 0 a2.5 2.5 0 1 0 -5 0zM1007.5 430 a2.5 2.5 0 1 0 5 0 a2.5 2.5 0 1 0 -5 0zM987.5 530 a2.5 2.5 0 1 0 5 0 a2.5 2.5 0 1 0 -5 0zM987.5 130 a2.5 2.5 0 1 0 5 0 a2.5 2.5 0 1 0 -5 0zM1007.5 570 a2.5 2.5 0 1 0 5 0 a2.5 2.5 0 1 0 -5 0zM907.5 530 a2.5 2.5 0 1 0 5 0 a2.5 2.5 0 1 0 -5 0z" fill="black"></path><path d="M827.5 710 a2.5 2.5 0 1 0 5 0 a2.5 2.5 0 1 0 -5 0zM807.5 690 a2.5 2.5 0 1 0 5 0 a2.5 2.5 0 1 0 -5 0zM847.5 490 a2.5 2.5 0 1 0 5 0 a2.5 2.5 0 1 0 -5 0zM867.5 410 a2.5 2.5 0 1 0 5 0 a2.5 2.5 0 1 0 -5 0zM887.5 550 a2.5 2.5 0 1 0 5 0 a2.5 2.5 0 1 0 -5 0zM907.5 330 a2.5 2.5 0 1 0 5 0 a2.5 2.5 0 1 0 -5 0zM807.5 630 a2.5 2.5 0 1 0 5 0 a2.5 2.5 0 1 0 -5 0zM907.5 250 a2.5 2.5 0 1 0 5 0 a2.5 2.5 0 1 0 -5 0zM867.5 690 a2.5 2.5 0 1 0 5 0 a2.5 2.5 0 1 0 -5 0zM847.5 690 a2.5 2.5 0 1 0 5 0 a2.5 2.5 0 1 0 -5 0z" fill="black"></path><path d="M1007.5 150 a2.5 2.5 0 1 0 5 0 a2.5 2.5 0 1 0 -5 0zM1007.5 50 a2.5 2.5 0 1 0 5 0 a2.5 2.5 0 1 0 -5 0zM987.5 90 a2.5 2.5 0 1 0 5 0 a2.5 2.5 0 1 0 -5 0zM1027.5 210 a2.5 2.5 0 1 0 5 0 a2.5 2.5 0 1 0 -5 0z" fill="black"></path><path d="M807.5 490 a2.5 2.5 0 1 0 5 0 a2.5 2.5 0 1 0 -5 0zM827.5 510 a2.5 2.5 0 1 0 5 0 a2.5 2.5 0 1 0 -5 0zM767.5 530 a2.5 2.5 0 1 0 5 0 a2.5 2.5 0 1 0 -5 0zM867.5 230 a2.5 2.5 0 1 0 5 0 a2.5 2.5 0 1 0 -5 0zM847.5 450 a2.5 2.5 0 1 0 5 0 a2.5 2.5 0 1 0 -5 0zM827.5 430 a2.5 2.5 0 1 0 5 0 a2.5 2.5 0 1 0 -5 0zM847.5 370 a2.5 2.5 0 1 0 5 0 a2.5 2.5 0 1 0 -5 0z" fill="black"></path><path d="M787.5 430 a2.5 2.5 0 1 0 5 0 a2.5 2.5 0 1 0 -5 0zM767.5 430 a2.5 2.5 0 1 0 5 0 a2.5 2.5 0 1 0 -5 0z" fill="black"></path><path d="M1047.5 110 a2.5 2.5 0 1 0 5 0 a2.5 2.5 0 1 0 -5 0zM1027.5 90 a2.5 2.5 0 1 0 5 0 a2.5 2.5 0 1 0 -5 0zM1027.5 50 a2.5 2.5 0 1 0 5 0 a2.5 2.5 0 1 0 -5 0z" fill="black"></path><path d="M787.5 370 a2.5 2.5 0 1 0 5 0 a2.5 2.5 0 1 0 -5 0zM847.5 90 a2.5 2.5 0 1 0 5 0 a2.5 2.5 0 1 0 -5 0zM847.5 70 a2.5 2.5 0 1 0 5 0 a2.5 2.5 0 1 0 -5 0z" fill="black"></path><path d="M1047.5 30 a2.5 2.5 0 1 0 5 0 a2.5 2.5 0 1 0 -5 0z" fill="black"></path><path d="M747.5 370 a2.5 2.5 0 1 0 5 0 a2.5 2.5 0 1 0 -5 0zM727.5 390 a2.5 2.5 0 1 0 5 0 a2.5 2.5 0 1 0 -5 0zM847.5 30 a2.5 2.5 0 1 0 5 0 a2.5 2.5 0 1 0 -5 0zM807.5 110 a2.5 2.5 0 1 0 5 0 a2.5 2.5 0 1 0 -5 0zM787.5 290 a2.5 2.5 0 1 0 5 0 a2.5 2.5 0 1 0 -5 0zM807.5 190 a2.5 2.5 0 1 0 5 0 a2.5 2.5 0 1 0 -5 0z" fill="black"></path><path d="M1027.5 350 a2.5 2.5 0 1 0 5 0 a2.5 2.5 0 1 0 -5 0zM1047.5 170 a2.5 2.5 0 1 0 5 0 a2.5 2.5 0 1 0 -5 0zM1027.5 390 a2.5 2.5 0 1 0 5 0 a2.5 2.5 0 1 0 -5 0zM1007.5 310 a2.5 2.5 0 1 0 5 0 a2.5 2.5 0 1 0 -5 0zM1047.5 330 a2.5 2.5 0 1 0 5 0 a2.5 2.5 0 1 0 -5 0z" fill="black"></path><path d="M767.5 250 a2.5 2.5 0 1 0 5 0 a2.5 2.5 0 1 0 -5 0zM807.5 70 a2.5 2.5 0 1 0 5 0 a2.5 2.5 0 1 0 -5 0z" fill="black"></path><path d="M1087.5 390 a2.5 2.5 0 1 0 5 0 a2.5 2.5 0 1 0 -5 0zM1067.5 430 a2.5 2.5 0 1 0 5 0 a2.5 2.5 0 1 0 -5 0zM1107.5 130 a2.5 2.5 0 1 0 5 0 a2.5 2.5 0 1 0 -5 0zM1107.5 210 a2.5 2.5 0 1 0 5 0 a2.5 2.5 0 1 0 -5 0zM1087.5 330 a2.5 2.5 0 1 0 5 0 a2.5 2.5 0 1 0 -5 0zM1107.5 110 a2.5 2.5 0 1 0 5 0 a2.5 2.5 0 1 0 -5 0z" fill="black"></path><path d="M747.5 290 a2.5 2.5 0 1 0 5 0 a2.5 2.5 0 1 0 -5 0zM747.5 170 a2.5 2.5 0 1 0 5 0 a2.5 2.5 0 1 0 -5 0zM747.5 210 a2.5 2.5 0 1 0 5 0 a2.5 2.5 0 1 0 -5 0zM727.5 310 a2.5 2.5 0 1 0 5 0 a2.5 2.5 0 1 0 -5 0z" fill="black"></path><path d="M1107.5 30 a2.5 2.5 0 1 0 5 0 a2.5 2.5 0 1 0 -5 0z" fill="black"></path><path d="M747.5 70 a2.5 2.5 0 1 0 5 0 a2.5 2.5 0 1 0 -5 0z" fill="black"></path><path d="M1107.5 710 a2.5 2.5 0 1 0 5 0 a2.5 2.5 0 1 0 -5 0zM1147.5 370 a2.5 2.5 0 1 0 5 0 a2.5 2.5 0 1 0 -5 0zM1147.5 690 a2.5 2.5 0 1 0 5 0 a2.5 2.5 0 1 0 -5 0zM1147.5 330 a2.5 2.5 0 1 0 5 0 a2.5 2.5 0 1 0 -5 0zM1147.5 710 a2.5 2.5 0 1 0 5 0 a2.5 2.5 0 1 0 -5 0zM1147.5 510 a2.5 2.5 0 1 0 5 0 a2.5 2.5 0 1 0 -5 0zM1167.5 330 a2.5 2.5 0 1 0 5 0 a2.5 2.5 0 1 0 -5 0zM1107.5 590 a2.5 2.5 0 1 0 5 0 a2.5 2.5 0 1 0 -5 0zM1127.5 90 a2.5 2.5 0 1 0 5 0 a2.5 2.5 0 1 0 -5 0zM1127.5 190 a2.5 2.5 0 1 0 5 0 a2.5 2.5 0 1 0 -5 0z" fill="black"></path><path d="M727.5 50 a2.5 2.5 0 1 0 5 0 a2.5 2.5 0 1 0 -5 0z" fill="black"></path><path d="M1187.5 590 a2.5 2.5 0 1 0 5 0 a2.5 2.5 0 1 0 -5 0zM1167.5 530 a2.5 2.5 0 1 0 5 0 a2.5 2.5 0 1 0 -5 0zM1167.5 370 a2.5 2.5 0 1 0 5 0 a2.5 2.5 0 1 0 -5 0zM1167.5 270 a2.5 2.5 0 1 0 5 0 a2.5 2.5 0 1 0 -5 0zM1167.5 250 a2.5 2.5 0 1 0 5 0 a2.5 2.5 0 1 0 -5 0zM1167.5 450 a2.5 2.5 0 1 0 5 0 a2.5 2.5 0 1 0 -5 0zM1167.5 630 a2.5 2.5 0 1 0 5 0 a2.5 2.5 0 1 0 -5 0z" fill="black"></path><path d="M707.5 170 a2.5 2.5 0 1 0 5 0 a2.5 2.5 0 1 0 -5 0zM727.5 170 a2.5 2.5 0 1 0 5 0 a2.5 2.5 0 1 0 -5 0zM727.5 150 a2.5 2.5 0 1 0 5 0 a2.5 2.5 0 1 0 -5 0zM707.5 110 a2.5 2.5 0 1 0 5 0 a2.5 2.5 0 1 0 -5 0z" fill="black"></path><path d="M1227.5 730 a2.5 2.5 0 1 0 5 0 a2.5 2.5 0 1 0 -5 0zM1207.5 830 a2.5 2.5 0 1 0 5 0 a2.5 2.5 0 1 0 -5 0zM1167.5 730 a2.5 2.5 0 1 0 5 0 a2.5 2.5 0 1 0 -5 0zM1167.5 690 a2.5 2.5 0 1 0 5 0 a2.5 2.5 0 1 0 -5 0zM1247.5 790 a2.5 2.5 0 1 0 5 0 a2.5 2.5 0 1 0 -5 0z" fill="black"></path><path d="M707.5 390 a2.5 2.5 0 1 0 5 0 a2.5 2.5 0 1 0 -5 0zM667.5 150 a2.5 2.5 0 1 0 5 0 a2.5 2.5 0 1 0 -5 0zM687.5 410 a2.5 2.5 0 1 0 5 0 a2.5 2.5 0 1 0 -5 0zM687.5 310 a2.5 2.5 0 1 0 5 0 a2.5 2.5 0 1 0 -5 0zM667.5 230 a2.5 2.5 0 1 0 5 0 a2.5 2.5 0 1 0 -5 0zM727.5 250 a2.5 2.5 0 1 0 5 0 a2.5 2.5 0 1 0 -5 0z" fill="black"></path><path d="M1227.5 630 a2.5 2.5 0 1 0 5 0 a2.5 2.5 0 1 0 -5 0zM1247.5 470 a2.5 2.5 0 1 0 5 0 a2.5 2.5 0 1 0 -5 0zM1227.5 650 a2.5 2.5 0 1 0 5 0 a2.5 2.5 0 1 0 -5 0zM1247.5 510 a2.5 2.5 0 1 0 5 0 a2.5 2.5 0 1 0 -5 0zM1287.5 650 a2.5 2.5 0 1 0 5 0 a2.5 2.5 0 1 0 -5 0zM1307.5 630 a2.5 2.5 0 1 0 5 0 a2.5 2.5 0 1 0 -5 0zM1267.5 450 a2.5 2.5 0 1 0 5 0 a2.5 2.5 0 1 0 -5 0zM1247.5 410 a2.5 2.5 0 1 0 5 0 a2.5 2.5 0 1 0 -5 0zM1287.5 590 a2.5 2.5 0 1 0 5 0 a2.5 2.5 0 1 0 -5 0z" fill="black"></path><path d="M667.5 50 a2.5 2.5 0 1 0 5 0 a2.5 2.5 0 1 0 -5 0z" fill="black"></path><path d="M1227.5 150 a2.5 2.5 0 1 0 5 0 a2.5 2.5 0 1 0 -5 0z" fill="black"></path><path d="M607.5 790 a2.5 2.5 0 1 0 5 0 a2.5 2.5 0 1 0 -5 0zM627.5 830 a2.5 2.5 0 1 0 5 0 a2.5 2.5 0 1 0 -5 0zM587.5 830 a2.5 2.5 0 1 0 5 0 a2.5 2.5 0 1 0 -5 0zM627.5 370 a2.5 2.5 0 1 0 5 0 a2.5 2.5 0 1 0 -5 0zM647.5 690 a2.5 2.5 0 1 0 5 0 a2.5 2.5 0 1 0 -5 0zM647.5 410 a2.5 2.5 0 1 0 5 0 a2.5 2.5 0 1 0 -5 0zM667.5 710 a2.5 2.5 0 1 0 5 0 a2.5 2.5 0 1 0 -5 0zM627.5 350 a2.5 2.5 0 1 0 5 0 a2.5 2.5 0 1 0 -5 0zM627.5 230 a2.5 2.5 0 1 0 5 0 a2.5 2.5 0 1 0 -5 0zM667.5 410 a2.5 2.5 0 1 0 5 0 a2.5 2.5 0 1 0 -5 0zM667.5 330 a2.5 2.5 0 1 0 5 0 a2.5 2.5 0 1 0 -5 0z" fill="black"></path><path d="M1247.5 370 a2.5 2.5 0 1 0 5 0 a2.5 2.5 0 1 0 -5 0zM1247.5 190 a2.5 2.5 0 1 0 5 0 a2.5 2.5 0 1 0 -5 0zM1247.5 230 a2.5 2.5 0 1 0 5 0 a2.5 2.5 0 1 0 -5 0zM1247.5 170 a2.5 2.5 0 1 0 5 0 a2.5 2.5 0 1 0 -5 0zM1247.5 50 a2.5 2.5 0 1 0 5 0 a2.5 2.5 0 1 0 -5 0zM1267.5 370 a2.5 2.5 0 1 0 5 0 a2.5 2.5 0 1 0 -5 0z" fill="black"></path><path d="M547.5 810 a2.5 2.5 0 1 0 5 0 a2.5 2.5 0 1 0 -5 0zM587.5 610 a2.5 2.5 0 1 0 5 0 a2.5 2.5 0 1 0 -5 0zM587.5 390 a2.5 2.5 0 1 0 5 0 a2.5 2.5 0 1 0 -5 0zM567.5 450 a2.5 2.5 0 1 0 5 0 a2.5 2.5 0 1 0 -5 0zM567.5 830 a2.5 2.5 0 1 0 5 0 a2.5 2.5 0 1 0 -5 0zM547.5 690 a2.5 2.5 0 1 0 5 0 a2.5 2.5 0 1 0 -5 0zM587.5 330 a2.5 2.5 0 1 0 5 0 a2.5 2.5 0 1 0 -5 0zM527.5 830 a2.5 2.5 0 1 0 5 0 a2.5 2.5 0 1 0 -5 0zM527.5 770 a2.5 2.5 0 1 0 5 0 a2.5 2.5 0 1 0 -5 0zM547.5 610 a2.5 2.5 0 1 0 5 0 a2.5 2.5 0 1 0 -5 0zM547.5 730 a2.5 2.5 0 1 0 5 0 a2.5 2.5 0 1 0 -5 0z" fill="black"></path><path d="M1247.5 10 a2.5 2.5 0 1 0 5 0 a2.5 2.5 0 1 0 -5 0z" fill="black"></path><path d="M587.5 210 a2.5 2.5 0 1 0 5 0 a2.5 2.5 0 1 0 -5 0zM587.5 170 a2.5 2.5 0 1 0 5 0 a2.5 2.5 0 1 0 -5 0zM567.5 210 a2.5 2.5 0 1 0 5 0 a2.5 2.5 0 1 0 -5 0z" fill="black"></path><path d="M1287.5 370 a2.5 2.5 0 1 0 5 0 a2.5 2.5 0 1 0 -5 0zM1287.5 150 a2.5 2.5 0 1 0 5 0 a2.5 2.5 0 1 0 -5 0zM1287.5 250 a2.5 2.5 0 1 0 5 0 a2.5 2.5 0 1 0 -5 0zM1287.5 290 a2.5 2.5 0 1 0 5 0 a2.5 2.5 0 1 0 -5 0zM1287.5 70 a2.5 2.5 0 1 0 5 0 a2.5 2.5 0 1 0 -5 0z" fill="black"></path><path d="M507.5 790 a2.5 2.5 0 1 0 5 0 a2.5 2.5 0 1 0 -5 0zM567.5 410 a2.5 2.5 0 1 0 5 0 a2.5 2.5 0 1 0 -5 0zM507.5 490 a2.5 2.5 0 1 0 5 0 a2.5 2.5 0 1 0 -5 0zM487.5 810 a2.5 2.5 0 1 0 5 0 a2.5 2.5 0 1 0 -5 0zM567.5 370 a2.5 2.5 0 1 0 5 0 a2.5 2.5 0 1 0 -5 0zM467.5 750 a2.5 2.5 0 1 0 5 0 a2.5 2.5 0 1 0 -5 0zM487.5 710 a2.5 2.5 0 1 0 5 0 a2.5 2.5 0 1 0 -5 0zM547.5 510 a2.5 2.5 0 1 0 5 0 a2.5 2.5 0 1 0 -5 0zM527.5 690 a2.5 2.5 0 1 0 5 0 a2.5 2.5 0 1 0 -5 0zM587.5 90 a2.5 2.5 0 1 0 5 0 a2.5 2.5 0 1 0 -5 0zM527.5 570 a2.5 2.5 0 1 0 5 0 a2.5 2.5 0 1 0 -5 0z" fill="black"></path><path d="M1327.5 590 a2.5 2.5 0 1 0 5 0 a2.5 2.5 0 1 0 -5 0zM1327.5 730 a2.5 2.5 0 1 0 5 0 a2.5 2.5 0 1 0 -5 0zM1307.5 510 a2.5 2.5 0 1 0 5 0 a2.5 2.5 0 1 0 -5 0zM1327.5 150 a2.5 2.5 0 1 0 5 0 a2.5 2.5 0 1 0 -5 0zM1327.5 290 a2.5 2.5 0 1 0 5 0 a2.5 2.5 0 1 0 -5 0zM1327.5 350 a2.5 2.5 0 1 0 5 0 a2.5 2.5 0 1 0 -5 0zM1287.5 570 a2.5 2.5 0 1 0 5 0 a2.5 2.5 0 1 0 -5 0zM1327.5 90 a2.5 2.5 0 1 0 5 0 a2.5 2.5 0 1 0 -5 0z" fill="black"></path><path d="M467.5 530 a2.5 2.5 0 1 0 5 0 a2.5 2.5 0 1 0 -5 0zM467.5 570 a2.5 2.5 0 1 0 5 0 a2.5 2.5 0 1 0 -5 0zM487.5 470 a2.5 2.5 0 1 0 5 0 a2.5 2.5 0 1 0 -5 0zM487.5 430 a2.5 2.5 0 1 0 5 0 a2.5 2.5 0 1 0 -5 0zM507.5 310 a2.5 2.5 0 1 0 5 0 a2.5 2.5 0 1 0 -5 0zM567.5 70 a2.5 2.5 0 1 0 5 0 a2.5 2.5 0 1 0 -5 0zM507.5 270 a2.5 2.5 0 1 0 5 0 a2.5 2.5 0 1 0 -5 0zM507.5 250 a2.5 2.5 0 1 0 5 0 a2.5 2.5 0 1 0 -5 0z" fill="black"></path><path d="M1367.5 630 a2.5 2.5 0 1 0 5 0 a2.5 2.5 0 1 0 -5 0zM1367.5 330 a2.5 2.5 0 1 0 5 0 a2.5 2.5 0 1 0 -5 0zM1327.5 330 a2.5 2.5 0 1 0 5 0 a2.5 2.5 0 1 0 -5 0zM1387.5 650 a2.5 2.5 0 1 0 5 0 a2.5 2.5 0 1 0 -5 0zM1367.5 490 a2.5 2.5 0 1 0 5 0 a2.5 2.5 0 1 0 -5 0zM1387.5 450 a2.5 2.5 0 1 0 5 0 a2.5 2.5 0 1 0 -5 0zM1407.5 690 a2.5 2.5 0 1 0 5 0 a2.5 2.5 0 1 0 -5 0zM1347.5 750 a2.5 2.5 0 1 0 5 0 a2.5 2.5 0 1 0 -5 0zM1407.5 390 a2.5 2.5 0 1 0 5 0 a2.5 2.5 0 1 0 -5 0z" fill="black"></path><path d="M507.5 210 a2.5 2.5 0 1 0 5 0 a2.5 2.5 0 1 0 -5 0z" fill="black"></path><path d="M1367.5 210 a2.5 2.5 0 1 0 5 0 a2.5 2.5 0 1 0 -5 0z" fill="black"></path><path d="M447.5 670 a2.5 2.5 0 1 0 5 0 a2.5 2.5 0 1 0 -5 0zM467.5 650 a2.5 2.5 0 1 0 5 0 a2.5 2.5 0 1 0 -5 0zM467.5 210 a2.5 2.5 0 1 0 5 0 a2.5 2.5 0 1 0 -5 0zM487.5 130 a2.5 2.5 0 1 0 5 0 a2.5 2.5 0 1 0 -5 0zM487.5 110 a2.5 2.5 0 1 0 5 0 a2.5 2.5 0 1 0 -5 0zM467.5 190 a2.5 2.5 0 1 0 5 0 a2.5 2.5 0 1 0 -5 0zM447.5 570 a2.5 2.5 0 1 0 5 0 a2.5 2.5 0 1 0 -5 0zM447.5 550 a2.5 2.5 0 1 0 5 0 a2.5 2.5 0 1 0 -5 0zM427.5 690 a2.5 2.5 0 1 0 5 0 a2.5 2.5 0 1 0 -5 0z" fill="black"></path><path d="M1467.5 470 a2.5 2.5 0 1 0 5 0 a2.5 2.5 0 1 0 -5 0zM1407.5 250 a2.5 2.5 0 1 0 5 0 a2.5 2.5 0 1 0 -5 0zM1407.5 270 a2.5 2.5 0 1 0 5 0 a2.5 2.5 0 1 0 -5 0zM1447.5 530 a2.5 2.5 0 1 0 5 0 a2.5 2.5 0 1 0 -5 0zM1427.5 450 a2.5 2.5 0 1 0 5 0 a2.5 2.5 0 1 0 -5 0zM1407.5 210 a2.5 2.5 0 1 0 5 0 a2.5 2.5 0 1 0 -5 0zM1467.5 330 a2.5 2.5 0 1 0 5 0 a2.5 2.5 0 1 0 -5 0z" fill="black"></path><path d="M527.5 30 a2.5 2.5 0 1 0 5 0 a2.5 2.5 0 1 0 -5 0z" fill="black"></path><path d="M1487.5 490 a2.5 2.5 0 1 0 5 0 a2.5 2.5 0 1 0 -5 0zM1467.5 310 a2.5 2.5 0 1 0 5 0 a2.5 2.5 0 1 0 -5 0zM1447.5 270 a2.5 2.5 0 1 0 5 0 a2.5 2.5 0 1 0 -5 0z" fill="black"></path><path d="M407.5 610 a2.5 2.5 0 1 0 5 0 a2.5 2.5 0 1 0 -5 0zM427.5 350 a2.5 2.5 0 1 0 5 0 a2.5 2.5 0 1 0 -5 0zM447.5 290 a2.5 2.5 0 1 0 5 0 a2.5 2.5 0 1 0 -5 0zM427.5 230 a2.5 2.5 0 1 0 5 0 a2.5 2.5 0 1 0 -5 0zM487.5 90 a2.5 2.5 0 1 0 5 0 a2.5 2.5 0 1 0 -5 0zM467.5 170 a2.5 2.5 0 1 0 5 0 a2.5 2.5 0 1 0 -5 0zM427.5 290 a2.5 2.5 0 1 0 5 0 a2.5 2.5 0 1 0 -5 0zM427.5 330 a2.5 2.5 0 1 0 5 0 a2.5 2.5 0 1 0 -5 0zM427.5 270 a2.5 2.5 0 1 0 5 0 a2.5 2.5 0 1 0 -5 0z" fill="black"></path><path d="M1527.5 770 a2.5 2.5 0 1 0 5 0 a2.5 2.5 0 1 0 -5 0zM1527.5 470 a2.5 2.5 0 1 0 5 0 a2.5 2.5 0 1 0 -5 0zM1567.5 830 a2.5 2.5 0 1 0 5 0 a2.5 2.5 0 1 0 -5 0zM1507.5 730 a2.5 2.5 0 1 0 5 0 a2.5 2.5 0 1 0 -5 0zM1527.5 410 a2.5 2.5 0 1 0 5 0 a2.5 2.5 0 1 0 -5 0zM1507.5 570 a2.5 2.5 0 1 0 5 0 a2.5 2.5 0 1 0 -5 0zM1487.5 690 a2.5 2.5 0 1 0 5 0 a2.5 2.5 0 1 0 -5 0zM1567.5 690 a2.5 2.5 0 1 0 5 0 a2.5 2.5 0 1 0 -5 0zM1547.5 790 a2.5 2.5 0 1 0 5 0 a2.5 2.5 0 1 0 -5 0zM1587.5 690 a2.5 2.5 0 1 0 5 0 a2.5 2.5 0 1 0 -5 0zM1627.5 710 a2.5 2.5 0 1 0 5 0 a2.5 2.5 0 1 0 -5 0z" fill="black"></path><path d="M367.5 710 a2.5 2.5 0 1 0 5 0 a2.5 2.5 0 1 0 -5 0zM327.5 630 a2.5 2.5 0 1 0 5 0 a2.5 2.5 0 1 0 -5 0zM327.5 550 a2.5 2.5 0 1 0 5 0 a2.5 2.5 0 1 0 -5 0zM327.5 530 a2.5 2.5 0 1 0 5 0 a2.5 2.5 0 1 0 -5 0zM367.5 650 a2.5 2.5 0 1 0 5 0 a2.5 2.5 0 1 0 -5 0zM347.5 630 a2.5 2.5 0 1 0 5 0 a2.5 2.5 0 1 0 -5 0zM387.5 750 a2.5 2.5 0 1 0 5 0 a2.5 2.5 0 1 0 -5 0zM387.5 830 a2.5 2.5 0 1 0 5 0 a2.5 2.5 0 1 0 -5 0zM387.5 710 a2.5 2.5 0 1 0 5 0 a2.5 2.5 0 1 0 -5 0zM367.5 630 a2.5 2.5 0 1 0 5 0 a2.5 2.5 0 1 0 -5 0z" fill="black"></path><path d="M1507.5 270 a2.5 2.5 0 1 0 5 0 a2.5 2.5 0 1 0 -5 0zM1467.5 70 a2.5 2.5 0 1 0 5 0 a2.5 2.5 0 1 0 -5 0zM1527.5 310 a2.5 2.5 0 1 0 5 0 a2.5 2.5 0 1 0 -5 0zM1467.5 150 a2.5 2.5 0 1 0 5 0 a2.5 2.5 0 1 0 -5 0z" fill="black"></path><path d="M387.5 230 a2.5 2.5 0 1 0 5 0 a2.5 2.5 0 1 0 -5 0zM407.5 150 a2.5 2.5 0 1 0 5 0 a2.5 2.5 0 1 0 -5 0zM367.5 250 a2.5 2.5 0 1 0 5 0 a2.5 2.5 0 1 0 -5 0zM387.5 150 a2.5 2.5 0 1 0 5 0 a2.5 2.5 0 1 0 -5 0z" fill="black"></path></mask></defs></svg>