<svg xmlns="http://www.w3.org/2000/svg" version="1.1" xmlns:xlink="http://www.w3.org/1999/xlink" xmlns:svgjs="http://svgjs.dev/svgjs" width="1900" height="1000" preserveAspectRatio="none" viewBox="0 0 1900 1000"><g clip-path="url(&quot;#SvgjsClipPath1062&quot;)" fill="none"><path d="M45.69 45.45Q53.32 45.45 60.94 45.45 68.57 45.45 76.2 45.45 83.83 45.45 91.45 45.45 99.08 45.45 106.71 45.45 114.34 45.45 121.96 45.45 129.59 45.45 137.22 45.45 144.84 45.45 152.47 45.45 160.1 45.45 167.73 45.45 175.35 45.45 182.98 45.45" stroke="#ff00ff" stroke-width="4"></path><path d="M201.22 45.45Q208.74 45.45 216.26 45.45 223.79 45.45 231.31 45.45 238.83 45.45 246.35 45.45 253.87 45.45 261.4 45.45 268.92 45.45 276.44 45.45 283.96 45.45 291.48 45.45 299 45.45 306.53 45.45 314.05 45.45 321.57 45.45 329.09 45.45 336.61 45.45 344.14 45.45 351.66 45.45 359.18 45.45 366.7 45.45 374.22 45.45 381.75 45.45 389.27 45.45 396.79 45.45" stroke="rgba(201, 251, 255, 1)" stroke-width="4"></path><path d="M411.12 45.45Q419.11 45.45 427.11 45.45 435.1 45.45 443.1 45.45 451.09 45.45 459.09 45.45 467.08 45.45 475.08 45.45 483.07 45.45 491.07 45.45 499.06 45.45 507.06 45.45" stroke="#4000ff" stroke-width="4"></path><path d="M527.93 45.45Q529.62 45.45 531.31 45.45 533 45.45 534.7 45.45 536.39 45.45 538.08 45.45" stroke="rgba(120, 81, 255, 1)" stroke-width="4"></path><path d="M564.52 45.45Q572.04 45.45 579.56 45.45 587.08 45.45 594.59 45.45 602.11 45.45 609.63 45.45 617.15 45.45 624.67 45.45 632.19 45.45 639.7 45.45 647.22 45.45 654.74 45.45 662.26 45.45 669.78 45.45 677.3 45.45 684.82 45.45 692.33 45.45 699.85 45.45 707.37 45.45 714.89 45.45" stroke="rgba(120, 81, 255, 1)" stroke-width="4"></path><path d="M745.12 45.45Q752.68 45.45 760.24 45.45 767.8 45.45 775.35 45.45 782.91 45.45 790.47 45.45 798.03 45.45 805.59 45.45 813.15 45.45 820.7 45.45 828.26 45.45 835.82 45.45 843.38 45.45 850.94 45.45 858.5 45.45 866.06 45.45 873.61 45.45 881.17 45.45 888.73 45.45 896.29 45.45 903.85 45.45 911.41 45.45 918.96 45.45 926.52 45.45 934.08 45.45 941.64 45.45" stroke="rgba(120, 81, 255, 1)" stroke-width="4"></path><path d="M956.97 45.45Q966.24 45.45 975.5 45.45 984.77 45.45 994.03 45.45 1003.3 45.45 1012.56 45.45 1021.83 45.45 1031.09 45.45" stroke="rgba(120, 81, 255, 1)" stroke-width="4"></path><path d="M1041.14 45.45Q1045.04 45.45 1048.93 45.45 1052.83 45.45 1056.73 45.45 1060.62 45.45 1064.52 45.45" stroke="rgba(120, 81, 255, 1)" stroke-width="4"></path><path d="M1090.64 45.45Q1098.25 45.45 1105.86 45.45 1113.47 45.45 1121.08 45.45 1128.69 45.45 1136.3 45.45 1143.91 45.45 1151.52 45.45 1159.13 45.45 1166.74 45.45 1174.35 45.45 1181.96 45.45 1189.57 45.45 1197.18 45.45 1204.79 45.45 1212.4 45.45 1220.01 45.45 1227.62 45.45" stroke="#4000ff" stroke-width="4"></path><path d="M1250.39 45.45Q1257.9 45.45 1265.41 45.45 1272.92 45.45 1280.44 45.45 1287.95 45.45 1295.46 45.45 1302.97 45.45 1310.48 45.45 1317.99 45.45 1325.5 45.45 1333.02 45.45 1340.53 45.45 1348.04 45.45 1355.55 45.45" stroke="rgba(201, 251, 255, 1)" stroke-width="4"></path><path d="M1374.89 45.45Q1382.98 45.45 1391.08 45.45 1399.17 45.45 1407.26 45.45 1415.36 45.45 1423.45 45.45 1431.54 45.45 1439.64 45.45 1447.73 45.45 1455.82 45.45 1463.91 45.45 1472.01 45.45 1480.1 45.45 1488.19 45.45 1496.29 45.45 1504.38 45.45 1512.47 45.45 1520.57 45.45 1528.66 45.45 1536.75 45.45 1544.85 45.45 1552.94 45.45" stroke="#ff00ff" stroke-width="4"></path><path d="M1588.49 45.45Q1597.23 45.45 1605.98 45.45 1614.72 45.45 1623.46 45.45 1632.2 45.45 1640.95 45.45 1649.69 45.45 1658.43 45.45 1667.18 45.45 1675.92 45.45" stroke="#4000ff" stroke-width="4"></path><path d="M1714.83 45.45Q1722.89 45.45 1730.95 45.45 1739 45.45 1747.06 45.45 1755.12 45.45 1763.18 45.45 1771.24 45.45 1779.29 45.45 1787.35 45.45 1795.41 45.45" stroke="#ff00ff" stroke-width="4"></path><path d="M1807.7 45.45Q1812.32 45.45 1816.93 45.45 1821.55 45.45 1826.16 45.45 1830.78 45.45 1835.39 45.45 1840.01 45.45 1844.62 45.45 1849.24 45.45 1853.85 45.45 1858.46 45.45 1863.08 45.45 1867.69 45.45 1872.31 45.45 1876.92 45.45 1881.54 45.45 1886.15 45.45 1890.77 45.45 1895.38 45.45 1900 45.45" stroke="rgba(120, 81, 255, 1)" stroke-width="4"></path><path d="M23.24 90.91Q26.05 90.91 28.85 90.91 31.66 90.91 34.47 90.91 37.27 90.91 40.08 90.91" stroke="#4000ff" stroke-width="4"></path><path d="M64.98 90.91Q72.49 90.91 79.99 90.91 87.5 90.91 95 90.91 102.51 90.91 110.02 90.91 117.52 90.91 125.03 90.91 132.53 90.91 140.04 90.91 147.55 90.91 155.05 90.91 162.56 90.91 170.07 90.91 177.57 90.91 185.08 90.91 192.58 90.91 200.09 90.91" stroke="#4000ff" stroke-width="4"></path><path d="M210.34 90.91Q218.2 90.91 226.07 90.91 233.93 90.91 241.8 90.91 249.66 90.91 257.53 90.91 265.39 90.91 273.25 90.91 281.12 90.91 288.98 90.91 296.85 90.91 304.71 90.91 312.57 90.91 320.44 90.91 328.3 90.91 336.17 90.91 344.03 90.91 351.9 90.91 359.76 90.91 367.62 90.91 375.49 90.91 383.35 90.91 391.22 90.91 399.08 90.91" stroke="#4000ff" stroke-width="4"></path><path d="M430.3 90.91Q438.45 90.91 446.6 90.91 454.75 90.91 462.9 90.91 471.05 90.91 479.2 90.91 487.35 90.91 495.5 90.91" stroke="#8000ff" stroke-width="4"></path><path d="M529.88 90.91Q539.27 90.91 548.66 90.91 558.05 90.91 567.44 90.91 576.83 90.91 586.22 90.91" stroke="#4000ff" stroke-width="4"></path><path d="M598 90.91Q601.77 90.91 605.54 90.91 609.31 90.91 613.08 90.91 616.85 90.91 620.62 90.91" stroke="#ff00ff" stroke-width="4"></path><path d="M653.94 90.91Q663.28 90.91 672.62 90.91 681.95 90.91 691.29 90.91 700.63 90.91 709.97 90.91 719.3 90.91 728.64 90.91" stroke="rgba(120, 81, 255, 1)" stroke-width="4"></path><path d="M745.32 90.91Q753.11 90.91 760.9 90.91 768.69 90.91 776.48 90.91 784.27 90.91 792.06 90.91 799.85 90.91 807.64 90.91 815.42 90.91 823.21 90.91 831 90.91 838.79 90.91 846.58 90.91 854.37 90.91 862.16 90.91 869.95 90.91" stroke="rgba(59, 130, 246, 1)" stroke-width="4"></path><path d="M893.84 90.91Q894.68 90.91 895.52 90.91 896.37 90.91 897.21 90.91 898.05 90.91 898.89 90.91" stroke="#ff00ff" stroke-width="4"></path><path d="M911.27 90.91Q919.11 90.91 926.95 90.91 934.79 90.91 942.62 90.91 950.46 90.91 958.3 90.91 966.14 90.91 973.98 90.91 981.82 90.91 989.66 90.91 997.49 90.91 1005.33 90.91 1013.17 90.91 1021.01 90.91" stroke="rgba(201, 251, 255, 1)" stroke-width="4"></path><path d="M1034.55 90.91Q1042.23 90.91 1049.91 90.91 1057.59 90.91 1065.27 90.91 1072.95 90.91 1080.63 90.91 1088.31 90.91 1096 90.91 1103.68 90.91 1111.36 90.91 1119.04 90.91 1126.72 90.91 1134.4 90.91 1142.08 90.91 1149.76 90.91 1157.44 90.91" stroke="rgba(201, 251, 255, 1)" stroke-width="4"></path><path d="M1190.94 90.91Q1198.54 90.91 1206.14 90.91 1213.73 90.91 1221.33 90.91 1228.93 90.91 1236.53 90.91 1244.13 90.91 1251.72 90.91 1259.32 90.91 1266.92 90.91 1274.52 90.91 1282.12 90.91 1289.71 90.91 1297.31 90.91 1304.91 90.91 1312.51 90.91 1320.1 90.91 1327.7 90.91 1335.3 90.91 1342.9 90.91 1350.5 90.91 1358.09 90.91 1365.69 90.91 1373.29 90.91" stroke="#8000ff" stroke-width="4"></path><path d="M1389.78 90.91Q1398.47 90.91 1407.16 90.91 1415.85 90.91 1424.53 90.91 1433.22 90.91 1441.91 90.91" stroke="rgba(120, 81, 255, 1)" stroke-width="4"></path><path d="M1474.92 90.91Q1482.85 90.91 1490.77 90.91 1498.7 90.91 1506.63 90.91 1514.56 90.91 1522.48 90.91 1530.41 90.91 1538.34 90.91 1546.27 90.91 1554.19 90.91 1562.12 90.91 1570.05 90.91 1577.97 90.91 1585.9 90.91 1593.83 90.91 1601.76 90.91 1609.68 90.91 1617.61 90.91" stroke="rgba(120, 81, 255, 1)" stroke-width="4"></path><path d="M1651.29 90.91Q1655.21 90.91 1659.13 90.91 1663.05 90.91 1666.97 90.91 1670.89 90.91 1674.81 90.91" stroke="rgba(120, 81, 255, 1)" stroke-width="4"></path><path d="M1685.51 90.91Q1693.96 90.91 1702.41 90.91 1710.86 90.91 1719.31 90.91 1727.76 90.91 1736.21 90.91 1744.67 90.91 1753.12 90.91 1761.57 90.91 1770.02 90.91 1778.47 90.91 1786.92 90.91 1795.37 90.91 1803.82 90.91" stroke="#4000ff" stroke-width="4"></path><path d="M1817.02 90.91Q1820.48 90.91 1823.94 90.91 1827.39 90.91 1830.85 90.91 1834.31 90.91 1837.77 90.91 1841.22 90.91 1844.68 90.91 1848.14 90.91 1851.6 90.91 1855.05 90.91 1858.51 90.91 1861.97 90.91 1865.43 90.91 1868.88 90.91 1872.34 90.91 1875.8 90.91 1879.26 90.91 1882.71 90.91 1886.17 90.91 1889.63 90.91 1893.09 90.91 1896.54 90.91 1900 90.91" stroke="#8000ff" stroke-width="4"></path><path d="M4.83 136.36Q12.42 136.36 20.01 136.36 27.6 136.36 35.19 136.36 42.78 136.36 50.37 136.36 57.97 136.36 65.56 136.36 73.15 136.36 80.74 136.36 88.33 136.36 95.92 136.36 103.51 136.36 111.1 136.36 118.69 136.36 126.28 136.36 133.87 136.36 141.46 136.36 149.05 136.36 156.65 136.36 164.24 136.36 171.83 136.36 179.42 136.36 187.01 136.36 194.6 136.36 202.19 136.36" stroke="#ff00ff" stroke-width="4"></path><path d="M214.33 136.36Q222.19 136.36 230.06 136.36 237.92 136.36 245.79 136.36 253.65 136.36 261.51 136.36 269.38 136.36 277.24 136.36 285.1 136.36 292.97 136.36 300.83 136.36 308.7 136.36 316.56 136.36 324.42 136.36 332.29 136.36 340.15 136.36" stroke="rgba(201, 251, 255, 1)" stroke-width="4"></path><path d="M373.74 136.36Q381.24 136.36 388.75 136.36 396.25 136.36 403.75 136.36 411.26 136.36 418.76 136.36 426.27 136.36 433.77 136.36 441.27 136.36 448.78 136.36 456.28 136.36 463.79 136.36 471.29 136.36 478.79 136.36 486.3 136.36 493.8 136.36" stroke="#4000ff" stroke-width="4"></path><path d="M522.13 136.36Q525.54 136.36 528.95 136.36 532.36 136.36 535.76 136.36 539.17 136.36 542.58 136.36" stroke="#4000ff" stroke-width="4"></path><path d="M571.78 136.36Q580 136.36 588.21 136.36 596.43 136.36 604.64 136.36 612.86 136.36 621.08 136.36 629.29 136.36 637.51 136.36 645.72 136.36 653.94 136.36 662.16 136.36 670.37 136.36 678.59 136.36 686.8 136.36 695.02 136.36 703.24 136.36 711.45 136.36 719.67 136.36 727.88 136.36 736.1 136.36" stroke="#ff00ff" stroke-width="4"></path><path d="M775.48 136.36Q783.61 136.36 791.75 136.36 799.88 136.36 808.01 136.36 816.15 136.36 824.28 136.36 832.41 136.36 840.54 136.36 848.68 136.36 856.81 136.36" stroke="rgba(59, 130, 246, 1)" stroke-width="4"></path><path d="M877.07 136.36Q884.61 136.36 892.16 136.36 899.7 136.36 907.24 136.36 914.79 136.36 922.33 136.36" stroke="#4000ff" stroke-width="4"></path><path d="M956.05 136.36Q964 136.36 971.94 136.36 979.89 136.36 987.84 136.36 995.78 136.36 1003.73 136.36 1011.67 136.36 1019.62 136.36" stroke="#4000ff" stroke-width="4"></path><path d="M1049.17 136.36Q1058.72 136.36 1068.26 136.36 1077.81 136.36 1087.35 136.36 1096.9 136.36 1106.44 136.36" stroke="rgba(201, 251, 255, 1)" stroke-width="4"></path><path d="M1142.51 136.36Q1150.26 136.36 1158.01 136.36 1165.77 136.36 1173.52 136.36 1181.27 136.36 1189.02 136.36 1196.77 136.36 1204.52 136.36 1212.28 136.36 1220.03 136.36 1227.78 136.36 1235.53 136.36 1243.28 136.36 1251.04 136.36 1258.79 136.36 1266.54 136.36 1274.29 136.36 1282.04 136.36 1289.79 136.36 1297.55 136.36 1305.3 136.36 1313.05 136.36" stroke="#4000ff" stroke-width="4"></path><path d="M1328.61 136.36Q1336.98 136.36 1345.35 136.36 1353.73 136.36 1362.1 136.36 1370.47 136.36 1378.84 136.36" stroke="#ff00ff" stroke-width="4"></path><path d="M1389.51 136.36Q1397.09 136.36 1404.67 136.36 1412.25 136.36 1419.83 136.36 1427.41 136.36 1434.99 136.36 1442.57 136.36 1450.15 136.36" stroke="rgba(120, 81, 255, 1)" stroke-width="4"></path><path d="M1477.6 136.36Q1485.67 136.36 1493.75 136.36 1501.82 136.36 1509.89 136.36 1517.97 136.36 1526.04 136.36 1534.11 136.36 1542.19 136.36 1550.26 136.36 1558.33 136.36 1566.41 136.36 1574.48 136.36 1582.55 136.36 1590.63 136.36 1598.7 136.36 1606.77 136.36 1614.85 136.36 1622.92 136.36" stroke="rgba(201, 251, 255, 1)" stroke-width="4"></path><path d="M1660.52 136.36Q1668.24 136.36 1675.96 136.36 1683.68 136.36 1691.39 136.36 1699.11 136.36 1706.83 136.36 1714.55 136.36 1722.27 136.36 1729.99 136.36 1737.71 136.36 1745.43 136.36 1753.14 136.36 1760.86 136.36 1768.58 136.36 1776.3 136.36 1784.02 136.36 1791.74 136.36 1799.46 136.36 1807.17 136.36 1814.89 136.36 1822.61 136.36 1830.33 136.36" stroke="rgba(201, 251, 255, 1)" stroke-width="4"></path><path d="M1861.97 136.36Q1866.92 136.36 1871.87 136.36 1876.82 136.36 1881.77 136.36 1886.72 136.36 1891.67 136.36" stroke="#4000ff" stroke-width="4"></path><path d="M17.22 181.82Q20.05 181.82 22.88 181.82 25.71 181.82 28.54 181.82 31.37 181.82 34.2 181.82" stroke="#ff00ff" stroke-width="4"></path><path d="M70.33 181.82Q73.19 181.82 76.06 181.82 78.92 181.82 81.78 181.82 84.65 181.82 87.51 181.82" stroke="rgba(120, 81, 255, 1)" stroke-width="4"></path><path d="M100.5 181.82Q108.84 181.82 117.19 181.82 125.53 181.82 133.87 181.82 142.21 181.82 150.56 181.82 158.9 181.82 167.24 181.82" stroke="rgba(59, 130, 246, 1)" stroke-width="4"></path><path d="M197.44 181.82Q205.93 181.82 214.43 181.82 222.92 181.82 231.41 181.82 239.9 181.82 248.4 181.82 256.89 181.82 265.38 181.82 273.88 181.82 282.37 181.82 290.86 181.82 299.35 181.82 307.85 181.82 316.34 181.82" stroke="#4000ff" stroke-width="4"></path><path d="M347.33 181.82Q355.26 181.82 363.19 181.82 371.12 181.82 379.05 181.82 386.98 181.82 394.9 181.82 402.83 181.82 410.76 181.82 418.69 181.82 426.62 181.82 434.55 181.82 442.48 181.82 450.41 181.82 458.34 181.82 466.27 181.82 474.2 181.82 482.12 181.82 490.05 181.82 497.98 181.82 505.91 181.82 513.84 181.82 521.77 181.82" stroke="#4000ff" stroke-width="4"></path><path d="M540.99 181.82Q541.83 181.82 542.67 181.82 543.51 181.82 544.35 181.82 545.19 181.82 546.03 181.82" stroke="#4000ff" stroke-width="4"></path><path d="M568.48 181.82Q576.33 181.82 584.18 181.82 592.02 181.82 599.87 181.82 607.72 181.82 615.57 181.82 623.42 181.82 631.26 181.82 639.11 181.82 646.96 181.82 654.81 181.82 662.66 181.82 670.5 181.82 678.35 181.82 686.2 181.82 694.05 181.82 701.9 181.82 709.74 181.82 717.59 181.82 725.44 181.82" stroke="rgba(59, 130, 246, 1)" stroke-width="4"></path><path d="M753.19 181.82Q761.37 181.82 769.55 181.82 777.73 181.82 785.9 181.82 794.08 181.82 802.26 181.82 810.44 181.82 818.62 181.82 826.8 181.82 834.97 181.82 843.15 181.82 851.33 181.82 859.51 181.82 867.69 181.82 875.87 181.82 884.04 181.82 892.22 181.82 900.4 181.82" stroke="rgba(59, 130, 246, 1)" stroke-width="4"></path><path d="M927.76 181.82Q935.81 181.82 943.86 181.82 951.91 181.82 959.96 181.82 968.01 181.82 976.05 181.82 984.1 181.82 992.15 181.82 1000.2 181.82 1008.25 181.82 1016.3 181.82 1024.35 181.82 1032.4 181.82 1040.45 181.82 1048.5 181.82 1056.55 181.82 1064.59 181.82 1072.64 181.82 1080.69 181.82 1088.74 181.82 1096.79 181.82 1104.84 181.82" stroke="#8000ff" stroke-width="4"></path><path d="M1133.15 181.82Q1140.71 181.82 1148.28 181.82 1155.84 181.82 1163.4 181.82 1170.96 181.82 1178.53 181.82 1186.09 181.82 1193.65 181.82 1201.21 181.82 1208.78 181.82 1216.34 181.82 1223.9 181.82 1231.47 181.82 1239.03 181.82 1246.59 181.82 1254.15 181.82 1261.72 181.82 1269.28 181.82 1276.84 181.82 1284.4 181.82 1291.97 181.82 1299.53 181.82" stroke="rgba(59, 130, 246, 1)" stroke-width="4"></path><path d="M1329.99 181.82Q1331.3 181.82 1332.61 181.82 1333.93 181.82 1335.24 181.82 1336.55 181.82 1337.86 181.82" stroke="rgba(201, 251, 255, 1)" stroke-width="4"></path><path d="M1372.86 181.82Q1378.21 181.82 1383.55 181.82 1388.89 181.82 1394.24 181.82 1399.59 181.82 1404.93 181.82" stroke="#ff00ff" stroke-width="4"></path><path d="M1429.49 181.82Q1437.47 181.82 1445.45 181.82 1453.42 181.82 1461.4 181.82 1469.38 181.82 1477.36 181.82 1485.34 181.82 1493.31 181.82 1501.29 181.82 1509.27 181.82 1517.25 181.82 1525.22 181.82 1533.2 181.82 1541.18 181.82" stroke="#4000ff" stroke-width="4"></path><path d="M1551.68 181.82Q1559.42 181.82 1567.15 181.82 1574.89 181.82 1582.63 181.82 1590.37 181.82 1598.11 181.82 1605.84 181.82 1613.58 181.82 1621.32 181.82 1629.06 181.82 1636.79 181.82 1644.53 181.82" stroke="#8000ff" stroke-width="4"></path><path d="M1657.6 181.82Q1665.58 181.82 1673.55 181.82 1681.53 181.82 1689.51 181.82 1697.49 181.82 1705.46 181.82 1713.44 181.82 1721.42 181.82 1729.4 181.82 1737.38 181.82 1745.35 181.82 1753.33 181.82 1761.31 181.82 1769.28 181.82 1777.26 181.82 1785.24 181.82 1793.22 181.82 1801.19 181.82 1809.17 181.82 1817.15 181.82" stroke="rgba(59, 130, 246, 1)" stroke-width="4"></path><path d="M1831.82 181.82Q1834.44 181.82 1837.06 181.82 1839.69 181.82 1842.31 181.82 1844.93 181.82 1847.55 181.82 1850.18 181.82 1852.8 181.82 1855.42 181.82 1858.04 181.82 1860.67 181.82 1863.29 181.82 1865.91 181.82 1868.53 181.82 1871.15 181.82 1873.78 181.82 1876.4 181.82 1879.02 181.82 1881.64 181.82 1884.27 181.82 1886.89 181.82 1889.51 181.82 1892.13 181.82 1894.76 181.82 1897.38 181.82 1900 181.82" stroke="rgba(59, 130, 246, 1)" stroke-width="4"></path><path d="M43.41 227.27Q49 227.27 54.59 227.27 60.17 227.27 65.76 227.27 71.35 227.27 76.94 227.27" stroke="rgba(59, 130, 246, 1)" stroke-width="4"></path><path d="M107.5 227.27Q115.05 227.27 122.6 227.27 130.15 227.27 137.69 227.27 145.24 227.27 152.79 227.27 160.34 227.27 167.89 227.27 175.44 227.27 182.99 227.27 190.54 227.27 198.09 227.27 205.63 227.27 213.18 227.27 220.73 227.27 228.28 227.27" stroke="#4000ff" stroke-width="4"></path><path d="M244.95 227.27Q252.62 227.27 260.29 227.27 267.96 227.27 275.63 227.27 283.3 227.27 290.97 227.27 298.64 227.27 306.31 227.27 313.98 227.27 321.65 227.27 329.32 227.27 336.99 227.27 344.66 227.27 352.33 227.27 360 227.27 367.67 227.27 375.34 227.27 383.01 227.27 390.68 227.27 398.35 227.27" stroke="rgba(201, 251, 255, 1)" stroke-width="4"></path><path d="M417.12 227.27Q425.24 227.27 433.37 227.27 441.49 227.27 449.61 227.27 457.74 227.27 465.86 227.27 473.99 227.27 482.11 227.27 490.23 227.27 498.36 227.27 506.48 227.27 514.6 227.27 522.73 227.27 530.85 227.27 538.97 227.27 547.1 227.27 555.22 227.27 563.35 227.27 571.47 227.27 579.59 227.27 587.72 227.27 595.84 227.27" stroke="rgba(120, 81, 255, 1)" stroke-width="4"></path><path d="M628.15 227.27Q636.09 227.27 644.03 227.27 651.96 227.27 659.9 227.27 667.84 227.27 675.78 227.27 683.72 227.27 691.65 227.27 699.59 227.27 707.53 227.27 715.47 227.27 723.41 227.27 731.34 227.27 739.28 227.27 747.22 227.27 755.16 227.27 763.1 227.27 771.03 227.27 778.97 227.27 786.91 227.27" stroke="#4000ff" stroke-width="4"></path><path d="M815.79 227.27Q824.98 227.27 834.17 227.27 843.35 227.27 852.54 227.27 861.73 227.27 870.92 227.27 880.1 227.27 889.29 227.27" stroke="#ff00ff" stroke-width="4"></path><path d="M902.81 227.27Q910.46 227.27 918.12 227.27 925.77 227.27 933.42 227.27 941.07 227.27 948.73 227.27 956.38 227.27 964.03 227.27 971.69 227.27 979.34 227.27 986.99 227.27 994.64 227.27 1002.3 227.27 1009.95 227.27 1017.6 227.27 1025.26 227.27 1032.91 227.27 1040.56 227.27 1048.22 227.27 1055.87 227.27 1063.52 227.27 1071.17 227.27 1078.83 227.27 1086.48 227.27" stroke="rgba(59, 130, 246, 1)" stroke-width="4"></path><path d="M1096.66 227.27Q1104.73 227.27 1112.8 227.27 1120.86 227.27 1128.93 227.27 1137 227.27 1145.07 227.27 1153.13 227.27 1161.2 227.27 1169.27 227.27 1177.34 227.27 1185.41 227.27 1193.47 227.27 1201.54 227.27 1209.61 227.27 1217.68 227.27 1225.74 227.27 1233.81 227.27 1241.88 227.27 1249.95 227.27 1258.01 227.27 1266.08 227.27 1274.15 227.27" stroke="#8000ff" stroke-width="4"></path><path d="M1306 227.27Q1312.05 227.27 1318.1 227.27 1324.15 227.27 1330.2 227.27 1336.25 227.27 1342.3 227.27" stroke="rgba(201, 251, 255, 1)" stroke-width="4"></path><path d="M1369.2 227.27Q1377.13 227.27 1385.06 227.27 1392.99 227.27 1400.91 227.27 1408.84 227.27 1416.77 227.27 1424.7 227.27 1432.63 227.27 1440.56 227.27 1448.48 227.27 1456.41 227.27 1464.34 227.27" stroke="rgba(59, 130, 246, 1)" stroke-width="4"></path><path d="M1497.03 227.27Q1504.86 227.27 1512.69 227.27 1520.52 227.27 1528.35 227.27 1536.19 227.27 1544.02 227.27 1551.85 227.27 1559.68 227.27 1567.51 227.27 1575.34 227.27 1583.17 227.27 1591 227.27 1598.83 227.27 1606.66 227.27 1614.5 227.27 1622.33 227.27 1630.16 227.27 1637.99 227.27 1645.82 227.27 1653.65 227.27" stroke="#8000ff" stroke-width="4"></path><path d="M1669.91 227.27Q1677.52 227.27 1685.12 227.27 1692.73 227.27 1700.33 227.27 1707.94 227.27 1715.55 227.27 1723.15 227.27 1730.76 227.27 1738.36 227.27 1745.97 227.27 1753.58 227.27 1761.18 227.27 1768.79 227.27 1776.39 227.27 1784 227.27 1791.61 227.27 1799.21 227.27 1806.82 227.27 1814.42 227.27 1822.03 227.27" stroke="#8000ff" stroke-width="4"></path><path d="M1836.45 227.27Q1839.34 227.27 1842.23 227.27 1845.12 227.27 1848 227.27 1850.89 227.27 1853.78 227.27 1856.67 227.27 1859.56 227.27 1862.45 227.27 1865.34 227.27 1868.23 227.27 1871.11 227.27 1874 227.27 1876.89 227.27 1879.78 227.27 1882.67 227.27 1885.56 227.27 1888.45 227.27 1891.33 227.27 1894.22 227.27 1897.11 227.27 1900 227.27" stroke="#8000ff" stroke-width="4"></path><path d="M18.81 272.73Q26.37 272.73 33.93 272.73 41.48 272.73 49.04 272.73 56.6 272.73 64.16 272.73 71.71 272.73 79.27 272.73 86.83 272.73 94.39 272.73 101.94 272.73 109.5 272.73 117.06 272.73 124.62 272.73 132.18 272.73 139.73 272.73 147.29 272.73 154.85 272.73 162.41 272.73 169.96 272.73 177.52 272.73 185.08 272.73 192.64 272.73 200.19 272.73 207.75 272.73 215.31 272.73" stroke="rgba(201, 251, 255, 1)" stroke-width="4"></path><path d="M231.79 272.73Q239.32 272.73 246.85 272.73 254.37 272.73 261.9 272.73 269.43 272.73 276.96 272.73 284.49 272.73 292.02 272.73 299.54 272.73 307.07 272.73 314.6 272.73 322.13 272.73 329.66 272.73 337.18 272.73 344.71 272.73 352.24 272.73 359.77 272.73 367.3 272.73 374.83 272.73 382.35 272.73 389.88 272.73 397.41 272.73" stroke="rgba(201, 251, 255, 1)" stroke-width="4"></path><path d="M437.26 272.73Q446.04 272.73 454.81 272.73 463.59 272.73 472.36 272.73 481.14 272.73 489.92 272.73 498.69 272.73 507.47 272.73 516.24 272.73 525.02 272.73" stroke="rgba(201, 251, 255, 1)" stroke-width="4"></path><path d="M542.29 272.73Q550.72 272.73 559.16 272.73 567.59 272.73 576.03 272.73 584.46 272.73 592.89 272.73 601.33 272.73 609.76 272.73 618.2 272.73 626.63 272.73 635.07 272.73 643.5 272.73" stroke="#ff00ff" stroke-width="4"></path><path d="M675.93 272.73Q684.59 272.73 693.26 272.73 701.92 272.73 710.59 272.73 719.25 272.73 727.91 272.73 736.58 272.73 745.24 272.73 753.91 272.73 762.57 272.73" stroke="rgba(201, 251, 255, 1)" stroke-width="4"></path><path d="M786.49 272.73Q794.17 272.73 801.86 272.73 809.54 272.73 817.23 272.73 824.91 272.73 832.6 272.73" stroke="#8000ff" stroke-width="4"></path><path d="M859.3 272.73Q868.01 272.73 876.72 272.73 885.43 272.73 894.15 272.73 902.86 272.73 911.57 272.73" stroke="rgba(201, 251, 255, 1)" stroke-width="4"></path><path d="M925.63 272.73Q933.29 272.73 940.94 272.73 948.6 272.73 956.26 272.73 963.92 272.73 971.57 272.73 979.23 272.73 986.89 272.73 994.55 272.73 1002.2 272.73 1009.86 272.73 1017.52 272.73" stroke="#4000ff" stroke-width="4"></path><path d="M1039.88 272.73Q1047.45 272.73 1055.03 272.73 1062.6 272.73 1070.17 272.73 1077.75 272.73 1085.32 272.73 1092.9 272.73 1100.47 272.73 1108.04 272.73 1115.62 272.73 1123.19 272.73 1130.76 272.73 1138.34 272.73 1145.91 272.73 1153.48 272.73 1161.06 272.73 1168.63 272.73 1176.21 272.73 1183.78 272.73 1191.35 272.73 1198.93 272.73 1206.5 272.73" stroke="rgba(201, 251, 255, 1)" stroke-width="4"></path><path d="M1246.22 272.73Q1256.14 272.73 1266.05 272.73 1275.97 272.73 1285.89 272.73 1295.8 272.73 1305.72 272.73" stroke="rgba(120, 81, 255, 1)" stroke-width="4"></path><path d="M1341.11 272.73Q1348.86 272.73 1356.61 272.73 1364.36 272.73 1372.11 272.73 1379.85 272.73 1387.6 272.73 1395.35 272.73 1403.1 272.73" stroke="#4000ff" stroke-width="4"></path><path d="M1440.6 272.73Q1448.39 272.73 1456.18 272.73 1463.96 272.73 1471.75 272.73 1479.54 272.73 1487.33 272.73 1495.11 272.73 1502.9 272.73 1510.69 272.73 1518.48 272.73 1526.26 272.73 1534.05 272.73 1541.84 272.73 1549.63 272.73 1557.41 272.73 1565.2 272.73 1572.99 272.73 1580.78 272.73 1588.56 272.73 1596.35 272.73 1604.14 272.73 1611.93 272.73 1619.71 272.73 1627.5 272.73" stroke="rgba(59, 130, 246, 1)" stroke-width="4"></path><path d="M1660.22 272.73Q1667.86 272.73 1675.49 272.73 1683.13 272.73 1690.77 272.73 1698.4 272.73 1706.04 272.73 1713.68 272.73 1721.31 272.73 1728.95 272.73 1736.59 272.73 1744.22 272.73 1751.86 272.73 1759.49 272.73 1767.13 272.73 1774.77 272.73 1782.4 272.73 1790.04 272.73 1797.68 272.73 1805.31 272.73 1812.95 272.73" stroke="#ff00ff" stroke-width="4"></path><path d="M1829.49 272.73Q1835.61 272.73 1841.73 272.73 1847.85 272.73 1853.96 272.73 1860.08 272.73 1866.2 272.73" stroke="rgba(201, 251, 255, 1)" stroke-width="4"></path><path d="M25.43 318.18Q33.15 318.18 40.88 318.18 48.6 318.18 56.32 318.18 64.05 318.18 71.77 318.18 79.49 318.18 87.22 318.18 94.94 318.18 102.66 318.18 110.39 318.18 118.11 318.18 125.84 318.18 133.56 318.18 141.28 318.18 149.01 318.18 156.73 318.18 164.45 318.18 172.18 318.18 179.9 318.18" stroke="#4000ff" stroke-width="4"></path><path d="M204.06 318.18Q211.95 318.18 219.84 318.18 227.74 318.18 235.63 318.18 243.52 318.18 251.41 318.18 259.31 318.18 267.2 318.18 275.09 318.18 282.98 318.18 290.88 318.18 298.77 318.18 306.66 318.18 314.55 318.18 322.44 318.18 330.34 318.18 338.23 318.18 346.12 318.18 354.01 318.18 361.91 318.18 369.8 318.18 377.69 318.18" stroke="rgba(120, 81, 255, 1)" stroke-width="4"></path><path d="M408.81 318.18Q417.46 318.18 426.12 318.18 434.77 318.18 443.43 318.18 452.08 318.18 460.74 318.18 469.39 318.18 478.04 318.18 486.7 318.18 495.35 318.18 504.01 318.18 512.66 318.18" stroke="rgba(120, 81, 255, 1)" stroke-width="4"></path><path d="M531.92 318.18Q533.96 318.18 536.01 318.18 538.05 318.18 540.1 318.18 542.14 318.18 544.19 318.18" stroke="rgba(120, 81, 255, 1)" stroke-width="4"></path><path d="M582.22 318.18Q585.79 318.18 589.35 318.18 592.92 318.18 596.49 318.18 600.05 318.18 603.62 318.18" stroke="rgba(201, 251, 255, 1)" stroke-width="4"></path><path d="M619.94 318.18Q628.89 318.18 637.84 318.18 646.79 318.18 655.74 318.18 664.69 318.18 673.65 318.18 682.6 318.18 691.55 318.18 700.5 318.18 709.45 318.18" stroke="#4000ff" stroke-width="4"></path><path d="M730.81 318.18Q738.32 318.18 745.84 318.18 753.35 318.18 760.87 318.18 768.38 318.18 775.9 318.18 783.41 318.18 790.93 318.18 798.44 318.18 805.96 318.18 813.47 318.18 820.99 318.18 828.5 318.18 836.02 318.18 843.53 318.18 851.05 318.18 858.56 318.18 866.08 318.18" stroke="rgba(120, 81, 255, 1)" stroke-width="4"></path><path d="M881.01 318.18Q888.87 318.18 896.74 318.18 904.6 318.18 912.47 318.18 920.33 318.18 928.2 318.18 936.06 318.18 943.93 318.18 951.79 318.18 959.66 318.18 967.52 318.18 975.39 318.18" stroke="rgba(120, 81, 255, 1)" stroke-width="4"></path><path d="M1011.65 318.18Q1017.15 318.18 1022.66 318.18 1028.16 318.18 1033.66 318.18 1039.17 318.18 1044.67 318.18" stroke="rgba(59, 130, 246, 1)" stroke-width="4"></path><path d="M1070.82 318.18Q1074.63 318.18 1078.44 318.18 1082.25 318.18 1086.06 318.18 1089.87 318.18 1093.68 318.18" stroke="#4000ff" stroke-width="4"></path><path d="M1120.79 318.18Q1128.45 318.18 1136.1 318.18 1143.76 318.18 1151.42 318.18 1159.07 318.18 1166.73 318.18 1174.39 318.18 1182.04 318.18 1189.7 318.18 1197.36 318.18 1205.02 318.18 1212.67 318.18 1220.33 318.18 1227.99 318.18 1235.64 318.18 1243.3 318.18" stroke="#4000ff" stroke-width="4"></path><path d="M1256.39 318.18Q1266.03 318.18 1275.68 318.18 1285.32 318.18 1294.97 318.18 1304.61 318.18 1314.26 318.18" stroke="#ff00ff" stroke-width="4"></path><path d="M1331.28 318.18Q1339.6 318.18 1347.92 318.18 1356.25 318.18 1364.57 318.18 1372.89 318.18 1381.21 318.18 1389.54 318.18 1397.86 318.18" stroke="#ff00ff" stroke-width="4"></path><path d="M1429.66 318.18Q1436.54 318.18 1443.42 318.18 1450.3 318.18 1457.19 318.18 1464.07 318.18 1470.95 318.18" stroke="#ff00ff" stroke-width="4"></path><path d="M1503.8 318.18Q1512.18 318.18 1520.55 318.18 1528.93 318.18 1537.3 318.18 1545.68 318.18 1554.06 318.18 1562.43 318.18 1570.81 318.18" stroke="rgba(120, 81, 255, 1)" stroke-width="4"></path><path d="M1591.49 318.18Q1599.18 318.18 1606.88 318.18 1614.57 318.18 1622.27 318.18 1629.96 318.18 1637.66 318.18 1645.35 318.18 1653.05 318.18 1660.74 318.18 1668.43 318.18 1676.13 318.18 1683.82 318.18 1691.52 318.18 1699.21 318.18 1706.91 318.18 1714.6 318.18 1722.3 318.18 1729.99 318.18 1737.69 318.18 1745.38 318.18" stroke="rgba(120, 81, 255, 1)" stroke-width="4"></path><path d="M1772.18 318.18Q1780.52 318.18 1788.86 318.18 1797.2 318.18 1805.53 318.18 1813.87 318.18 1822.21 318.18 1830.55 318.18 1838.89 318.18" stroke="#8000ff" stroke-width="4"></path><path d="M1852.68 318.18Q1854.65 318.18 1856.62 318.18 1858.59 318.18 1860.57 318.18 1862.54 318.18 1864.51 318.18 1866.48 318.18 1868.45 318.18 1870.42 318.18 1872.4 318.18 1874.37 318.18 1876.34 318.18 1878.31 318.18 1880.28 318.18 1882.25 318.18 1884.23 318.18 1886.2 318.18 1888.17 318.18 1890.14 318.18 1892.11 318.18 1894.09 318.18 1896.06 318.18 1898.03 318.18 1900 318.18" stroke="rgba(201, 251, 255, 1)" stroke-width="4"></path><path d="M38.65 363.64Q46.34 363.64 54.04 363.64 61.73 363.64 69.42 363.64 77.12 363.64 84.81 363.64" stroke="#8000ff" stroke-width="4"></path><path d="M113.71 363.64Q116.85 363.64 119.99 363.64 123.13 363.64 126.27 363.64 129.41 363.64 132.55 363.64" stroke="#8000ff" stroke-width="4"></path><path d="M157.66 363.64Q165.28 363.64 172.9 363.64 180.52 363.64 188.14 363.64 195.76 363.64 203.38 363.64 211 363.64 218.62 363.64 226.24 363.64 233.86 363.64 241.48 363.64 249.1 363.64 256.72 363.64 264.34 363.64" stroke="#8000ff" stroke-width="4"></path><path d="M286.46 363.64Q288.04 363.64 289.62 363.64 291.21 363.64 292.79 363.64 294.37 363.64 295.95 363.64" stroke="rgba(59, 130, 246, 1)" stroke-width="4"></path><path d="M328.73 363.64Q332.37 363.64 336.01 363.64 339.66 363.64 343.3 363.64 346.94 363.64 350.58 363.64" stroke="rgba(120, 81, 255, 1)" stroke-width="4"></path><path d="M372.42 363.64Q381.41 363.64 390.41 363.64 399.4 363.64 408.39 363.64 417.39 363.64 426.38 363.64" stroke="#8000ff" stroke-width="4"></path><path d="M437.61 363.64Q439.67 363.64 441.74 363.64 443.8 363.64 445.86 363.64 447.93 363.64 449.99 363.64" stroke="#8000ff" stroke-width="4"></path><path d="M462.87 363.64Q470.74 363.64 478.6 363.64 486.47 363.64 494.33 363.64 502.19 363.64 510.06 363.64 517.92 363.64 525.79 363.64 533.65 363.64 541.52 363.64 549.38 363.64 557.25 363.64" stroke="#8000ff" stroke-width="4"></path><path d="M582.39 363.64Q590.46 363.64 598.54 363.64 606.61 363.64 614.69 363.64 622.76 363.64 630.84 363.64 638.91 363.64 646.99 363.64 655.06 363.64 663.14 363.64 671.21 363.64 679.28 363.64 687.36 363.64 695.43 363.64 703.51 363.64 711.58 363.64 719.66 363.64 727.73 363.64 735.81 363.64 743.88 363.64 751.96 363.64 760.03 363.64" stroke="rgba(120, 81, 255, 1)" stroke-width="4"></path><path d="M780.69 363.64Q789.33 363.64 797.96 363.64 806.6 363.64 815.23 363.64 823.87 363.64 832.5 363.64 841.14 363.64 849.78 363.64 858.41 363.64 867.05 363.64 875.68 363.64 884.32 363.64" stroke="#ff00ff" stroke-width="4"></path><path d="M899.45 363.64Q907.04 363.64 914.63 363.64 922.22 363.64 929.81 363.64 937.39 363.64 944.98 363.64 952.57 363.64 960.16 363.64 967.75 363.64 975.34 363.64 982.93 363.64 990.52 363.64 998.11 363.64 1005.69 363.64 1013.28 363.64 1020.87 363.64 1028.46 363.64 1036.05 363.64 1043.64 363.64 1051.23 363.64 1058.82 363.64 1066.4 363.64 1073.99 363.64 1081.58 363.64 1089.17 363.64 1096.76 363.64" stroke="rgba(120, 81, 255, 1)" stroke-width="4"></path><path d="M1127.72 363.64Q1135.53 363.64 1143.33 363.64 1151.14 363.64 1158.94 363.64 1166.75 363.64 1174.56 363.64 1182.36 363.64 1190.17 363.64 1197.97 363.64 1205.78 363.64 1213.58 363.64 1221.39 363.64 1229.2 363.64 1237 363.64 1244.81 363.64 1252.61 363.64 1260.42 363.64 1268.22 363.64 1276.03 363.64 1283.84 363.64 1291.64 363.64 1299.45 363.64 1307.25 363.64 1315.06 363.64" stroke="#4000ff" stroke-width="4"></path><path d="M1350.48 363.64Q1358.07 363.64 1365.66 363.64 1373.25 363.64 1380.84 363.64 1388.43 363.64 1396.01 363.64 1403.6 363.64 1411.19 363.64 1418.78 363.64 1426.37 363.64 1433.96 363.64 1441.55 363.64 1449.14 363.64 1456.73 363.64 1464.32 363.64 1471.91 363.64 1479.5 363.64 1487.09 363.64 1494.67 363.64 1502.26 363.64 1509.85 363.64 1517.44 363.64 1525.03 363.64 1532.62 363.64" stroke="#8000ff" stroke-width="4"></path><path d="M1562.18 363.64Q1567.91 363.64 1573.64 363.64 1579.37 363.64 1585.1 363.64 1590.83 363.64 1596.56 363.64" stroke="rgba(120, 81, 255, 1)" stroke-width="4"></path><path d="M1618.95 363.64Q1626.65 363.64 1634.36 363.64 1642.06 363.64 1649.77 363.64 1657.47 363.64 1665.17 363.64 1672.88 363.64 1680.58 363.64 1688.29 363.64 1695.99 363.64 1703.69 363.64 1711.4 363.64 1719.1 363.64 1726.81 363.64 1734.51 363.64 1742.21 363.64 1749.92 363.64 1757.62 363.64 1765.33 363.64 1773.03 363.64" stroke="#ff00ff" stroke-width="4"></path><path d="M1802.38 363.64Q1808.48 363.64 1814.58 363.64 1820.68 363.64 1826.78 363.64 1832.89 363.64 1838.99 363.64 1845.09 363.64 1851.19 363.64 1857.29 363.64 1863.39 363.64 1869.49 363.64 1875.6 363.64 1881.7 363.64 1887.8 363.64 1893.9 363.64 1900 363.64" stroke="#ff00ff" stroke-width="4"></path><path d="M47.29 409.09Q55.1 409.09 62.91 409.09 70.72 409.09 78.52 409.09 86.33 409.09 94.14 409.09 101.95 409.09 109.76 409.09 117.57 409.09 125.38 409.09 133.19 409.09 140.99 409.09 148.8 409.09 156.61 409.09 164.42 409.09 172.23 409.09 180.04 409.09 187.85 409.09 195.65 409.09 203.46 409.09 211.27 409.09 219.08 409.09" stroke="#8000ff" stroke-width="4"></path><path d="M237.94 409.09Q245.46 409.09 252.98 409.09 260.5 409.09 268.02 409.09 275.54 409.09 283.07 409.09 290.59 409.09 298.11 409.09 305.63 409.09 313.15 409.09" stroke="rgba(120, 81, 255, 1)" stroke-width="4"></path><path d="M336.64 409.09Q339.22 409.09 341.81 409.09 344.39 409.09 346.97 409.09 349.56 409.09 352.14 409.09" stroke="#4000ff" stroke-width="4"></path><path d="M371.95 409.09Q380.93 409.09 389.9 409.09 398.88 409.09 407.86 409.09 416.83 409.09 425.81 409.09 434.78 409.09 443.76 409.09" stroke="#4000ff" stroke-width="4"></path><path d="M474.73 409.09Q483.03 409.09 491.33 409.09 499.63 409.09 507.93 409.09 516.23 409.09 524.53 409.09 532.83 409.09 541.13 409.09" stroke="rgba(59, 130, 246, 1)" stroke-width="4"></path><path d="M569.77 409.09Q577.83 409.09 585.9 409.09 593.96 409.09 602.02 409.09 610.09 409.09 618.15 409.09 626.22 409.09 634.28 409.09 642.34 409.09 650.41 409.09 658.47 409.09 666.53 409.09 674.6 409.09 682.66 409.09 690.73 409.09 698.79 409.09" stroke="#8000ff" stroke-width="4"></path><path d="M731.8 409.09Q739.91 409.09 748.01 409.09 756.12 409.09 764.22 409.09 772.33 409.09 780.43 409.09 788.54 409.09 796.64 409.09 804.75 409.09 812.86 409.09 820.96 409.09 829.07 409.09 837.17 409.09 845.28 409.09 853.38 409.09 861.49 409.09 869.59 409.09 877.7 409.09 885.8 409.09 893.91 409.09" stroke="#ff00ff" stroke-width="4"></path><path d="M914.65 409.09Q918.01 409.09 921.37 409.09 924.72 409.09 928.08 409.09 931.44 409.09 934.8 409.09" stroke="#ff00ff" stroke-width="4"></path><path d="M974.51 409.09Q983.36 409.09 992.2 409.09 1001.05 409.09 1009.89 409.09 1018.73 409.09 1027.58 409.09 1036.42 409.09 1045.27 409.09" stroke="rgba(201, 251, 255, 1)" stroke-width="4"></path><path d="M1078 409.09Q1086.04 409.09 1094.07 409.09 1102.11 409.09 1110.14 409.09 1118.18 409.09 1126.22 409.09 1134.25 409.09 1142.29 409.09 1150.32 409.09 1158.36 409.09 1166.4 409.09 1174.43 409.09 1182.47 409.09 1190.5 409.09 1198.54 409.09 1206.58 409.09 1214.61 409.09 1222.65 409.09 1230.68 409.09 1238.72 409.09" stroke="#ff00ff" stroke-width="4"></path><path d="M1254.14 409.09Q1257.4 409.09 1260.65 409.09 1263.91 409.09 1267.17 409.09 1270.42 409.09 1273.68 409.09" stroke="rgba(201, 251, 255, 1)" stroke-width="4"></path><path d="M1310.38 409.09Q1317.99 409.09 1325.6 409.09 1333.21 409.09 1340.83 409.09 1348.44 409.09 1356.05 409.09 1363.66 409.09 1371.27 409.09" stroke="#ff00ff" stroke-width="4"></path><path d="M1406.72 409.09Q1414.36 409.09 1422.01 409.09 1429.65 409.09 1437.3 409.09 1444.94 409.09 1452.59 409.09 1460.23 409.09 1467.87 409.09 1475.52 409.09 1483.16 409.09 1490.81 409.09 1498.45 409.09 1506.09 409.09 1513.74 409.09 1521.38 409.09 1529.03 409.09 1536.67 409.09 1544.32 409.09 1551.96 409.09 1559.6 409.09 1567.25 409.09 1574.89 409.09 1582.54 409.09 1590.18 409.09" stroke="rgba(201, 251, 255, 1)" stroke-width="4"></path><path d="M1609.45 409.09Q1613.9 409.09 1618.35 409.09 1622.81 409.09 1627.26 409.09 1631.71 409.09 1636.16 409.09" stroke="#ff00ff" stroke-width="4"></path><path d="M1673.94 409.09Q1681.54 409.09 1689.13 409.09 1696.73 409.09 1704.32 409.09 1711.92 409.09 1719.51 409.09 1727.11 409.09 1734.7 409.09 1742.3 409.09 1749.89 409.09 1757.49 409.09 1765.08 409.09 1772.68 409.09 1780.27 409.09 1787.87 409.09 1795.46 409.09 1803.06 409.09 1810.65 409.09" stroke="#8000ff" stroke-width="4"></path><path d="M1828.06 409.09Q1835.25 409.09 1842.45 409.09 1849.64 409.09 1856.84 409.09 1864.03 409.09 1871.22 409.09 1878.42 409.09 1885.61 409.09 1892.81 409.09 1900 409.09" stroke="rgba(120, 81, 255, 1)" stroke-width="4"></path><path d="M8.77 454.55Q13.62 454.55 18.48 454.55 23.33 454.55 28.19 454.55 33.05 454.55 37.9 454.55" stroke="#8000ff" stroke-width="4"></path><path d="M69.5 454.55Q77.65 454.55 85.79 454.55 93.94 454.55 102.09 454.55 110.23 454.55 118.38 454.55 126.53 454.55 134.67 454.55 142.82 454.55 150.96 454.55 159.11 454.55 167.26 454.55 175.4 454.55 183.55 454.55" stroke="rgba(120, 81, 255, 1)" stroke-width="4"></path><path d="M194.38 454.55Q202.89 454.55 211.4 454.55 219.92 454.55 228.43 454.55 236.94 454.55 245.45 454.55 253.96 454.55 262.47 454.55 270.99 454.55 279.5 454.55 288.01 454.55 296.52 454.55" stroke="rgba(59, 130, 246, 1)" stroke-width="4"></path><path d="M331.03 454.55Q338.89 454.55 346.75 454.55 354.61 454.55 362.46 454.55 370.32 454.55 378.18 454.55 386.04 454.55 393.9 454.55 401.76 454.55 409.62 454.55 417.47 454.55 425.33 454.55 433.19 454.55 441.05 454.55" stroke="#ff00ff" stroke-width="4"></path><path d="M463.61 454.55Q471.88 454.55 480.15 454.55 488.42 454.55 496.69 454.55 504.96 454.55 513.23 454.55 521.49 454.55 529.76 454.55 538.03 454.55 546.3 454.55 554.57 454.55 562.84 454.55" stroke="#4000ff" stroke-width="4"></path><path d="M592.51 454.55Q596.06 454.55 599.61 454.55 603.16 454.55 606.71 454.55 610.26 454.55 613.81 454.55" stroke="rgba(59, 130, 246, 1)" stroke-width="4"></path><path d="M645.84 454.55Q653.64 454.55 661.44 454.55 669.24 454.55 677.04 454.55 684.84 454.55 692.64 454.55 700.44 454.55 708.24 454.55 716.05 454.55 723.85 454.55 731.65 454.55 739.45 454.55 747.25 454.55 755.05 454.55 762.85 454.55 770.65 454.55" stroke="rgba(201, 251, 255, 1)" stroke-width="4"></path><path d="M783.97 454.55Q792.73 454.55 801.49 454.55 810.24 454.55 819 454.55 827.76 454.55 836.52 454.55 845.28 454.55 854.03 454.55 862.79 454.55 871.55 454.55" stroke="#8000ff" stroke-width="4"></path><path d="M897.39 454.55Q899.1 454.55 900.81 454.55 902.52 454.55 904.23 454.55 905.94 454.55 907.65 454.55" stroke="#ff00ff" stroke-width="4"></path><path d="M930.1 454.55Q937.85 454.55 945.61 454.55 953.36 454.55 961.11 454.55 968.87 454.55 976.62 454.55 984.37 454.55 992.13 454.55 999.88 454.55 1007.63 454.55 1015.39 454.55 1023.14 454.55 1030.89 454.55 1038.65 454.55 1046.4 454.55 1054.15 454.55 1061.91 454.55 1069.66 454.55" stroke="#ff00ff" stroke-width="4"></path><path d="M1082.91 454.55Q1090.83 454.55 1098.75 454.55 1106.67 454.55 1114.59 454.55 1122.51 454.55 1130.43 454.55 1138.35 454.55 1146.28 454.55 1154.2 454.55 1162.12 454.55 1170.04 454.55 1177.96 454.55 1185.88 454.55 1193.8 454.55 1201.72 454.55 1209.64 454.55" stroke="#4000ff" stroke-width="4"></path><path d="M1232.08 454.55Q1240.51 454.55 1248.94 454.55 1257.37 454.55 1265.8 454.55 1274.23 454.55 1282.66 454.55 1291.09 454.55 1299.52 454.55 1307.95 454.55 1316.38 454.55 1324.81 454.55 1333.24 454.55 1341.67 454.55 1350.1 454.55" stroke="rgba(120, 81, 255, 1)" stroke-width="4"></path><path d="M1373.43 454.55Q1382.01 454.55 1390.6 454.55 1399.18 454.55 1407.77 454.55 1416.35 454.55 1424.93 454.55 1433.52 454.55 1442.1 454.55" stroke="rgba(59, 130, 246, 1)" stroke-width="4"></path><path d="M1452.85 454.55Q1459.34 454.55 1465.83 454.55 1472.32 454.55 1478.8 454.55 1485.29 454.55 1491.78 454.55" stroke="rgba(59, 130, 246, 1)" stroke-width="4"></path><path d="M1530.58 454.55Q1538.37 454.55 1546.17 454.55 1553.96 454.55 1561.76 454.55 1569.55 454.55 1577.35 454.55 1585.14 454.55 1592.94 454.55 1600.73 454.55 1608.52 454.55 1616.32 454.55 1624.11 454.55 1631.91 454.55 1639.7 454.55 1647.5 454.55 1655.29 454.55" stroke="#4000ff" stroke-width="4"></path><path d="M1666.47 454.55Q1674.46 454.55 1682.45 454.55 1690.44 454.55 1698.43 454.55 1706.42 454.55 1714.41 454.55 1722.4 454.55 1730.39 454.55 1738.38 454.55 1746.37 454.55" stroke="rgba(59, 130, 246, 1)" stroke-width="4"></path><path d="M1782.58 454.55Q1789.92 454.55 1797.26 454.55 1804.6 454.55 1811.94 454.55 1819.27 454.55 1826.61 454.55 1833.95 454.55 1841.29 454.55 1848.63 454.55 1855.97 454.55 1863.31 454.55 1870.64 454.55 1877.98 454.55 1885.32 454.55 1892.66 454.55 1900 454.55" stroke="#4000ff" stroke-width="4"></path><path d="M26.13 500Q34.2 500 42.27 500 50.34 500 58.41 500 66.48 500 74.55 500 82.63 500 90.7 500 98.77 500 106.84 500 114.91 500 122.98 500 131.05 500 139.12 500 147.19 500 155.26 500 163.33 500 171.4 500 179.48 500 187.55 500 195.62 500 203.69 500 211.76 500 219.83 500" stroke="#ff00ff" stroke-width="4"></path><path d="M242.21 500Q250 500 257.79 500 265.58 500 273.36 500 281.15 500 288.94 500 296.73 500 304.52 500 312.31 500 320.1 500 327.88 500 335.67 500 343.46 500 351.25 500 359.04 500 366.83 500 374.62 500 382.41 500 390.19 500 397.98 500 405.77 500 413.56 500" stroke="#8000ff" stroke-width="4"></path><path d="M424.14 500Q431.86 500 439.57 500 447.29 500 455 500 462.72 500 470.43 500 478.15 500 485.86 500 493.58 500 501.3 500 509.01 500 516.73 500 524.44 500 532.16 500 539.87 500 547.59 500" stroke="#4000ff" stroke-width="4"></path><path d="M583.6 500Q584.9 500 586.21 500 587.51 500 588.81 500 590.12 500 591.42 500" stroke="rgba(59, 130, 246, 1)" stroke-width="4"></path><path d="M629.47 500Q637.14 500 644.8 500 652.47 500 660.13 500 667.8 500 675.47 500 683.13 500 690.8 500 698.47 500 706.13 500 713.8 500 721.46 500 729.13 500 736.8 500 744.46 500 752.13 500 759.8 500 767.46 500 775.13 500 782.79 500 790.46 500 798.13 500 805.79 500 813.46 500" stroke="rgba(201, 251, 255, 1)" stroke-width="4"></path><path d="M840.07 500Q847.68 500 855.28 500 862.89 500 870.5 500 878.11 500 885.71 500 893.32 500 900.93 500 908.53 500 916.14 500 923.75 500 931.35 500 938.96 500 946.57 500 954.17 500 961.78 500 969.39 500 977 500 984.6 500 992.21 500" stroke="rgba(120, 81, 255, 1)" stroke-width="4"></path><path d="M1019.53 500Q1027.28 500 1035.02 500 1042.77 500 1050.52 500 1058.26 500 1066.01 500 1073.76 500 1081.5 500 1089.25 500 1097 500 1104.74 500 1112.49 500 1120.24 500 1127.98 500 1135.73 500 1143.48 500 1151.22 500 1158.97 500" stroke="rgba(201, 251, 255, 1)" stroke-width="4"></path><path d="M1192.88 500Q1198.32 500 1203.75 500 1209.18 500 1214.62 500 1220.06 500 1225.49 500" stroke="rgba(120, 81, 255, 1)" stroke-width="4"></path><path d="M1252.88 500Q1260.46 500 1268.04 500 1275.62 500 1283.2 500 1290.78 500 1298.36 500 1305.93 500 1313.51 500 1321.09 500 1328.67 500 1336.25 500 1343.83 500 1351.41 500 1358.99 500 1366.57 500 1374.15 500 1381.73 500 1389.31 500 1396.88 500 1404.46 500 1412.04 500 1419.62 500 1427.2 500 1434.78 500" stroke="#ff00ff" stroke-width="4"></path><path d="M1459.86 500Q1467.61 500 1475.36 500 1483.11 500 1490.86 500 1498.61 500 1506.36 500 1514.11 500 1521.86 500 1529.61 500 1537.36 500 1545.11 500 1552.87 500 1560.62 500 1568.37 500 1576.12 500 1583.87 500 1591.62 500 1599.37 500 1607.12 500 1614.87 500 1622.62 500 1630.37 500 1638.12 500 1645.87 500" stroke="rgba(59, 130, 246, 1)" stroke-width="4"></path><path d="M1672.93 500Q1682.28 500 1691.62 500 1700.97 500 1710.32 500 1719.66 500 1729.01 500 1738.35 500 1747.7 500" stroke="#4000ff" stroke-width="4"></path><path d="M1781.57 500Q1791.39 500 1801.21 500 1811.03 500 1820.86 500 1830.68 500 1840.5 500" stroke="#ff00ff" stroke-width="4"></path><path d="M1867.5 500Q1872.92 500 1878.33 500 1883.75 500 1889.17 500 1894.58 500 1900 500" stroke="#ff00ff" stroke-width="4"></path><path d="M5.19 545.45Q14.57 545.45 23.95 545.45 33.33 545.45 42.71 545.45 52.09 545.45 61.47 545.45" stroke="#4000ff" stroke-width="4"></path><path d="M76.17 545.45Q84.55 545.45 92.94 545.45 101.32 545.45 109.7 545.45 118.08 545.45 126.47 545.45 134.85 545.45 143.23 545.45" stroke="rgba(120, 81, 255, 1)" stroke-width="4"></path><path d="M181.11 545.45Q189.46 545.45 197.8 545.45 206.15 545.45 214.49 545.45 222.84 545.45 231.19 545.45 239.53 545.45 247.88 545.45 256.22 545.45 264.57 545.45" stroke="rgba(201, 251, 255, 1)" stroke-width="4"></path><path d="M297.75 545.45Q305.27 545.45 312.78 545.45 320.3 545.45 327.81 545.45 335.33 545.45 342.85 545.45 350.36 545.45 357.88 545.45 365.4 545.45 372.91 545.45 380.43 545.45 387.94 545.45 395.46 545.45 402.98 545.45 410.49 545.45 418.01 545.45 425.52 545.45 433.04 545.45 440.56 545.45 448.07 545.45 455.59 545.45 463.11 545.45 470.62 545.45 478.14 545.45 485.65 545.45 493.17 545.45" stroke="#8000ff" stroke-width="4"></path><path d="M532.88 545.45Q535.98 545.45 539.09 545.45 542.19 545.45 545.29 545.45 548.4 545.45 551.5 545.45" stroke="rgba(59, 130, 246, 1)" stroke-width="4"></path><path d="M570.16 545.45Q578.09 545.45 586.03 545.45 593.96 545.45 601.89 545.45 609.83 545.45 617.76 545.45 625.69 545.45 633.63 545.45 641.56 545.45 649.49 545.45 657.42 545.45 665.36 545.45 673.29 545.45 681.22 545.45 689.16 545.45 697.09 545.45" stroke="#4000ff" stroke-width="4"></path><path d="M728.36 545.45Q737.56 545.45 746.75 545.45 755.95 545.45 765.14 545.45 774.34 545.45 783.54 545.45 792.73 545.45 801.93 545.45" stroke="rgba(201, 251, 255, 1)" stroke-width="4"></path><path d="M821.72 545.45Q829.9 545.45 838.08 545.45 846.26 545.45 854.44 545.45 862.62 545.45 870.81 545.45 878.99 545.45 887.17 545.45 895.35 545.45 903.53 545.45 911.71 545.45 919.89 545.45 928.07 545.45 936.25 545.45 944.43 545.45 952.61 545.45 960.8 545.45 968.98 545.45 977.16 545.45 985.34 545.45 993.52 545.45 1001.7 545.45" stroke="#8000ff" stroke-width="4"></path><path d="M1026.81 545.45Q1034.52 545.45 1042.24 545.45 1049.95 545.45 1057.67 545.45 1065.38 545.45 1073.1 545.45 1080.81 545.45 1088.53 545.45 1096.24 545.45 1103.96 545.45 1111.67 545.45 1119.39 545.45 1127.1 545.45 1134.82 545.45 1142.53 545.45 1150.25 545.45 1157.96 545.45 1165.68 545.45 1173.39 545.45 1181.11 545.45 1188.82 545.45 1196.54 545.45" stroke="#ff00ff" stroke-width="4"></path><path d="M1230.09 545.45Q1231.9 545.45 1233.7 545.45 1235.51 545.45 1237.32 545.45 1239.12 545.45 1240.93 545.45" stroke="rgba(201, 251, 255, 1)" stroke-width="4"></path><path d="M1266.84 545.45Q1269.17 545.45 1271.5 545.45 1273.83 545.45 1276.17 545.45 1278.5 545.45 1280.83 545.45" stroke="#4000ff" stroke-width="4"></path><path d="M1306.55 545.45Q1311.95 545.45 1317.35 545.45 1322.74 545.45 1328.14 545.45 1333.54 545.45 1338.94 545.45" stroke="rgba(59, 130, 246, 1)" stroke-width="4"></path><path d="M1359.41 545.45Q1362.09 545.45 1364.77 545.45 1367.45 545.45 1370.14 545.45 1372.82 545.45 1375.5 545.45" stroke="#8000ff" stroke-width="4"></path><path d="M1399.75 545.45Q1407.8 545.45 1415.85 545.45 1423.9 545.45 1431.95 545.45 1440 545.45 1448.05 545.45 1456.1 545.45 1464.15 545.45 1472.2 545.45 1480.25 545.45 1488.3 545.45 1496.35 545.45 1504.4 545.45 1512.45 545.45 1520.5 545.45 1528.55 545.45 1536.6 545.45 1544.65 545.45 1552.7 545.45 1560.75 545.45 1568.8 545.45 1576.85 545.45 1584.9 545.45 1592.95 545.45" stroke="#8000ff" stroke-width="4"></path><path d="M1607.13 545.45Q1614.76 545.45 1622.4 545.45 1630.03 545.45 1637.67 545.45 1645.3 545.45 1652.93 545.45 1660.57 545.45 1668.2 545.45 1675.84 545.45 1683.47 545.45 1691.1 545.45 1698.74 545.45 1706.37 545.45 1714.01 545.45 1721.64 545.45 1729.27 545.45 1736.91 545.45 1744.54 545.45 1752.18 545.45 1759.81 545.45" stroke="#8000ff" stroke-width="4"></path><path d="M1790.62 545.45Q1798.47 545.45 1806.32 545.45 1814.16 545.45 1822.01 545.45 1829.86 545.45 1837.71 545.45" stroke="#4000ff" stroke-width="4"></path><path d="M1875.68 545.45Q1878.72 545.45 1881.76 545.45 1884.8 545.45 1887.84 545.45 1890.88 545.45 1893.92 545.45 1896.96 545.45 1900 545.45" stroke="rgba(201, 251, 255, 1)" stroke-width="4"></path><path d="M2.06 590.91Q9.83 590.91 17.59 590.91 25.36 590.91 33.13 590.91 40.9 590.91 48.66 590.91 56.43 590.91 64.2 590.91 71.97 590.91 79.73 590.91 87.5 590.91 95.27 590.91 103.04 590.91 110.81 590.91 118.57 590.91 126.34 590.91 134.11 590.91 141.88 590.91 149.64 590.91 157.41 590.91 165.18 590.91 172.94 590.91 180.71 590.91 188.48 590.91" stroke="rgba(201, 251, 255, 1)" stroke-width="4"></path><path d="M217.57 590.91Q225.58 590.91 233.6 590.91 241.61 590.91 249.63 590.91 257.64 590.91 265.66 590.91 273.67 590.91 281.69 590.91 289.7 590.91 297.72 590.91 305.73 590.91 313.75 590.91 321.76 590.91 329.77 590.91 337.79 590.91 345.8 590.91 353.82 590.91 361.83 590.91 369.85 590.91 377.86 590.91 385.88 590.91 393.89 590.91 401.91 590.91 409.92 590.91" stroke="#8000ff" stroke-width="4"></path><path d="M434.06 590.91Q442.91 590.91 451.77 590.91 460.62 590.91 469.48 590.91 478.33 590.91 487.19 590.91" stroke="rgba(59, 130, 246, 1)" stroke-width="4"></path><path d="M513.1 590.91Q521.27 590.91 529.43 590.91 537.6 590.91 545.77 590.91 553.94 590.91 562.1 590.91 570.27 590.91 578.44 590.91 586.61 590.91 594.77 590.91 602.94 590.91 611.11 590.91 619.27 590.91 627.44 590.91 635.61 590.91 643.78 590.91 651.94 590.91 660.11 590.91 668.28 590.91 676.45 590.91 684.61 590.91 692.78 590.91" stroke="#4000ff" stroke-width="4"></path><path d="M716.15 590.91Q724.79 590.91 733.43 590.91 742.07 590.91 750.71 590.91 759.35 590.91 767.99 590.91 776.63 590.91 785.27 590.91 793.91 590.91 802.55 590.91" stroke="#ff00ff" stroke-width="4"></path><path d="M825.23 590.91Q833.22 590.91 841.2 590.91 849.19 590.91 857.18 590.91 865.17 590.91 873.15 590.91 881.14 590.91 889.13 590.91 897.12 590.91 905.1 590.91 913.09 590.91 921.08 590.91 929.07 590.91 937.05 590.91 945.04 590.91 953.03 590.91" stroke="#4000ff" stroke-width="4"></path><path d="M975.73 590.91Q983.49 590.91 991.24 590.91 999 590.91 1006.76 590.91 1014.51 590.91 1022.27 590.91 1030.03 590.91 1037.78 590.91 1045.54 590.91 1053.3 590.91 1061.05 590.91 1068.81 590.91" stroke="rgba(201, 251, 255, 1)" stroke-width="4"></path><path d="M1108.07 590.91Q1114.73 590.91 1121.39 590.91 1128.05 590.91 1134.7 590.91 1141.36 590.91 1148.02 590.91" stroke="#ff00ff" stroke-width="4"></path><path d="M1186.47 590.91Q1194.22 590.91 1201.98 590.91 1209.73 590.91 1217.48 590.91 1225.24 590.91 1232.99 590.91 1240.74 590.91 1248.49 590.91 1256.25 590.91 1264 590.91 1271.75 590.91 1279.51 590.91 1287.26 590.91 1295.01 590.91 1302.76 590.91 1310.52 590.91 1318.27 590.91 1326.02 590.91 1333.78 590.91 1341.53 590.91" stroke="#4000ff" stroke-width="4"></path><path d="M1363.57 590.91Q1371.79 590.91 1380.01 590.91 1388.22 590.91 1396.44 590.91 1404.66 590.91 1412.88 590.91 1421.1 590.91 1429.32 590.91 1437.53 590.91 1445.75 590.91 1453.97 590.91 1462.19 590.91 1470.41 590.91 1478.63 590.91 1486.84 590.91 1495.06 590.91 1503.28 590.91 1511.5 590.91" stroke="rgba(59, 130, 246, 1)" stroke-width="4"></path><path d="M1549.55 590.91Q1557.07 590.91 1564.58 590.91 1572.1 590.91 1579.61 590.91 1587.13 590.91 1594.64 590.91 1602.16 590.91 1609.67 590.91 1617.19 590.91 1624.7 590.91 1632.22 590.91 1639.73 590.91 1647.25 590.91 1654.77 590.91 1662.28 590.91 1669.8 590.91 1677.31 590.91 1684.83 590.91 1692.34 590.91 1699.86 590.91 1707.37 590.91 1714.89 590.91 1722.4 590.91 1729.92 590.91 1737.43 590.91 1744.95 590.91" stroke="rgba(201, 251, 255, 1)" stroke-width="4"></path><path d="M1780.81 590.91Q1782.65 590.91 1784.5 590.91 1786.34 590.91 1788.19 590.91 1790.03 590.91 1791.88 590.91" stroke="#ff00ff" stroke-width="4"></path><path d="M1831.57 590.91Q1835.37 590.91 1839.17 590.91 1842.97 590.91 1846.78 590.91 1850.58 590.91 1854.38 590.91 1858.18 590.91 1861.98 590.91 1865.78 590.91 1869.59 590.91 1873.39 590.91 1877.19 590.91 1880.99 590.91 1884.79 590.91 1888.6 590.91 1892.4 590.91 1896.2 590.91 1900 590.91" stroke="rgba(59, 130, 246, 1)" stroke-width="4"></path><path d="M37.67 636.36Q46.07 636.36 54.47 636.36 62.87 636.36 71.27 636.36 79.67 636.36 88.08 636.36 96.48 636.36 104.88 636.36 113.28 636.36 121.68 636.36 130.08 636.36 138.48 636.36" stroke="#4000ff" stroke-width="4"></path><path d="M150.95 636.36Q158.77 636.36 166.58 636.36 174.4 636.36 182.22 636.36 190.04 636.36 197.85 636.36 205.67 636.36 213.49 636.36 221.3 636.36 229.12 636.36 236.94 636.36 244.75 636.36 252.57 636.36 260.39 636.36 268.21 636.36 276.02 636.36 283.84 636.36 291.66 636.36 299.47 636.36 307.29 636.36" stroke="rgba(120, 81, 255, 1)" stroke-width="4"></path><path d="M336.17 636.36Q344.28 636.36 352.38 636.36 360.49 636.36 368.59 636.36 376.7 636.36 384.81 636.36 392.91 636.36 401.02 636.36 409.12 636.36 417.23 636.36 425.33 636.36 433.44 636.36 441.55 636.36 449.65 636.36 457.76 636.36 465.86 636.36 473.97 636.36 482.08 636.36 490.18 636.36 498.29 636.36 506.39 636.36 514.5 636.36 522.6 636.36 530.71 636.36" stroke="#8000ff" stroke-width="4"></path><path d="M544.74 636.36Q552.67 636.36 560.6 636.36 568.52 636.36 576.45 636.36 584.38 636.36 592.31 636.36 600.23 636.36 608.16 636.36 616.09 636.36 624.02 636.36 631.95 636.36 639.87 636.36 647.8 636.36 655.73 636.36 663.66 636.36 671.58 636.36 679.51 636.36 687.44 636.36" stroke="rgba(120, 81, 255, 1)" stroke-width="4"></path><path d="M699.08 636.36Q706.7 636.36 714.33 636.36 721.95 636.36 729.57 636.36 737.2 636.36 744.82 636.36 752.45 636.36 760.07 636.36 767.69 636.36 775.32 636.36 782.94 636.36 790.56 636.36 798.19 636.36 805.81 636.36 813.43 636.36 821.06 636.36 828.68 636.36 836.31 636.36 843.93 636.36 851.55 636.36 859.18 636.36 866.8 636.36" stroke="rgba(120, 81, 255, 1)" stroke-width="4"></path><path d="M883.41 636.36Q891.33 636.36 899.25 636.36 907.17 636.36 915.1 636.36 923.02 636.36 930.94 636.36 938.86 636.36 946.78 636.36 954.7 636.36 962.62 636.36 970.55 636.36 978.47 636.36 986.39 636.36 994.31 636.36 1002.23 636.36 1010.15 636.36 1018.07 636.36 1025.99 636.36 1033.92 636.36 1041.84 636.36 1049.76 636.36 1057.68 636.36" stroke="#ff00ff" stroke-width="4"></path><path d="M1096.64 636.36Q1104.53 636.36 1112.41 636.36 1120.3 636.36 1128.18 636.36 1136.07 636.36 1143.95 636.36 1151.84 636.36 1159.72 636.36 1167.61 636.36 1175.5 636.36 1183.38 636.36 1191.27 636.36 1199.15 636.36 1207.04 636.36 1214.92 636.36 1222.81 636.36 1230.69 636.36 1238.58 636.36" stroke="#4000ff" stroke-width="4"></path><path d="M1272.37 636.36Q1280.61 636.36 1288.85 636.36 1297.09 636.36 1305.33 636.36 1313.57 636.36 1321.81 636.36" stroke="rgba(120, 81, 255, 1)" stroke-width="4"></path><path d="M1349.19 636.36Q1358.08 636.36 1366.97 636.36 1375.86 636.36 1384.75 636.36 1393.63 636.36 1402.52 636.36 1411.41 636.36 1420.3 636.36" stroke="rgba(120, 81, 255, 1)" stroke-width="4"></path><path d="M1449.59 636.36Q1457.68 636.36 1465.76 636.36 1473.85 636.36 1481.94 636.36 1490.02 636.36 1498.11 636.36 1506.2 636.36 1514.28 636.36 1522.37 636.36 1530.46 636.36 1538.54 636.36 1546.63 636.36 1554.72 636.36 1562.8 636.36 1570.89 636.36 1578.98 636.36 1587.06 636.36 1595.15 636.36 1603.24 636.36 1611.32 636.36 1619.41 636.36 1627.5 636.36 1635.58 636.36 1643.67 636.36" stroke="#4000ff" stroke-width="4"></path><path d="M1682.57 636.36Q1690.24 636.36 1697.9 636.36 1705.57 636.36 1713.24 636.36 1720.9 636.36 1728.57 636.36 1736.23 636.36 1743.9 636.36 1751.57 636.36 1759.23 636.36 1766.9 636.36 1774.57 636.36 1782.23 636.36 1789.9 636.36 1797.56 636.36 1805.23 636.36 1812.9 636.36 1820.56 636.36 1828.23 636.36 1835.9 636.36 1843.56 636.36 1851.23 636.36 1858.89 636.36 1866.56 636.36" stroke="rgba(120, 81, 255, 1)" stroke-width="4"></path><path d="M36.31 681.82Q43.19 681.82 50.07 681.82 56.95 681.82 63.82 681.82 70.7 681.82 77.58 681.82" stroke="#4000ff" stroke-width="4"></path><path d="M106.74 681.82Q114.86 681.82 122.99 681.82 131.11 681.82 139.23 681.82 147.35 681.82 155.48 681.82 163.6 681.82 171.72 681.82 179.85 681.82 187.97 681.82 196.09 681.82 204.21 681.82 212.34 681.82 220.46 681.82" stroke="rgba(59, 130, 246, 1)" stroke-width="4"></path><path d="M253.49 681.82Q261.1 681.82 268.72 681.82 276.33 681.82 283.94 681.82 291.55 681.82 299.16 681.82 306.78 681.82 314.39 681.82" stroke="#ff00ff" stroke-width="4"></path><path d="M333.49 681.82Q336.12 681.82 338.75 681.82 341.38 681.82 344 681.82 346.63 681.82 349.26 681.82" stroke="#ff00ff" stroke-width="4"></path><path d="M383.27 681.82Q391.18 681.82 399.1 681.82 407.01 681.82 414.92 681.82 422.83 681.82 430.75 681.82 438.66 681.82 446.57 681.82 454.48 681.82 462.4 681.82 470.31 681.82 478.22 681.82 486.14 681.82 494.05 681.82 501.96 681.82 509.87 681.82 517.79 681.82 525.7 681.82 533.61 681.82 541.52 681.82 549.44 681.82 557.35 681.82" stroke="rgba(59, 130, 246, 1)" stroke-width="4"></path><path d="M577.69 681.82Q585.2 681.82 592.72 681.82 600.23 681.82 607.74 681.82 615.25 681.82 622.77 681.82 630.28 681.82 637.79 681.82 645.3 681.82 652.82 681.82 660.33 681.82 667.84 681.82 675.35 681.82 682.87 681.82 690.38 681.82 697.89 681.82 705.4 681.82 712.92 681.82 720.43 681.82 727.94 681.82" stroke="rgba(59, 130, 246, 1)" stroke-width="4"></path><path d="M761.84 681.82Q771.07 681.82 780.3 681.82 789.53 681.82 798.76 681.82 807.98 681.82 817.21 681.82 826.44 681.82 835.67 681.82" stroke="rgba(201, 251, 255, 1)" stroke-width="4"></path><path d="M868.79 681.82Q876.45 681.82 884.12 681.82 891.78 681.82 899.45 681.82 907.11 681.82 914.78 681.82 922.44 681.82 930.11 681.82 937.77 681.82 945.44 681.82 953.1 681.82 960.77 681.82 968.43 681.82 976.09 681.82 983.76 681.82 991.42 681.82 999.09 681.82 1006.75 681.82 1014.42 681.82 1022.08 681.82 1029.75 681.82 1037.41 681.82 1045.08 681.82 1052.74 681.82" stroke="#ff00ff" stroke-width="4"></path><path d="M1081.84 681.82Q1088.29 681.82 1094.74 681.82 1101.19 681.82 1107.65 681.82 1114.1 681.82 1120.55 681.82" stroke="#8000ff" stroke-width="4"></path><path d="M1151.18 681.82Q1158.84 681.82 1166.5 681.82 1174.15 681.82 1181.81 681.82 1189.47 681.82 1197.13 681.82 1204.79 681.82 1212.44 681.82 1220.1 681.82 1227.76 681.82 1235.42 681.82 1243.08 681.82 1250.73 681.82 1258.39 681.82 1266.05 681.82 1273.71 681.82 1281.36 681.82 1289.02 681.82 1296.68 681.82 1304.34 681.82 1312 681.82 1319.65 681.82 1327.31 681.82 1334.97 681.82" stroke="#4000ff" stroke-width="4"></path><path d="M1374.6 681.82Q1383.22 681.82 1391.84 681.82 1400.46 681.82 1409.08 681.82 1417.7 681.82 1426.32 681.82 1434.93 681.82 1443.55 681.82 1452.17 681.82 1460.79 681.82 1469.41 681.82 1478.03 681.82" stroke="rgba(201, 251, 255, 1)" stroke-width="4"></path><path d="M1490.79 681.82Q1498.62 681.82 1506.46 681.82 1514.29 681.82 1522.12 681.82 1529.95 681.82 1537.79 681.82 1545.62 681.82 1553.45 681.82 1561.28 681.82 1569.12 681.82 1576.95 681.82 1584.78 681.82 1592.61 681.82 1600.45 681.82 1608.28 681.82 1616.11 681.82" stroke="rgba(59, 130, 246, 1)" stroke-width="4"></path><path d="M1637.03 681.82Q1645.3 681.82 1653.57 681.82 1661.84 681.82 1670.1 681.82 1678.37 681.82 1686.64 681.82 1694.91 681.82 1703.18 681.82 1711.45 681.82 1719.71 681.82 1727.98 681.82 1736.25 681.82" stroke="#8000ff" stroke-width="4"></path><path d="M1768.16 681.82Q1773.65 681.82 1779.15 681.82 1784.64 681.82 1790.13 681.82 1795.63 681.82 1801.12 681.82 1806.61 681.82 1812.11 681.82 1817.6 681.82 1823.09 681.82 1828.59 681.82 1834.08 681.82 1839.57 681.82 1845.07 681.82 1850.56 681.82 1856.05 681.82 1861.55 681.82 1867.04 681.82 1872.53 681.82 1878.03 681.82 1883.52 681.82 1889.01 681.82 1894.51 681.82 1900 681.82" stroke="#4000ff" stroke-width="4"></path><path d="M29.03 727.27Q29.99 727.27 30.94 727.27 31.9 727.27 32.86 727.27 33.81 727.27 34.77 727.27" stroke="rgba(201, 251, 255, 1)" stroke-width="4"></path><path d="M47.3 727.27Q51.53 727.27 55.75 727.27 59.98 727.27 64.2 727.27 68.43 727.27 72.65 727.27" stroke="#ff00ff" stroke-width="4"></path><path d="M107.34 727.27Q115.08 727.27 122.81 727.27 130.55 727.27 138.28 727.27 146.01 727.27 153.75 727.27 161.49 727.27 169.22 727.27 176.95 727.27 184.69 727.27 192.43 727.27 200.16 727.27 207.89 727.27 215.63 727.27 223.37 727.27 231.1 727.27 238.83 727.27 246.57 727.27 254.3 727.27 262.04 727.27 269.77 727.27 277.51 727.27" stroke="#8000ff" stroke-width="4"></path><path d="M287.57 727.27Q295.48 727.27 303.4 727.27 311.31 727.27 319.23 727.27 327.14 727.27 335.05 727.27 342.97 727.27 350.88 727.27 358.8 727.27 366.71 727.27 374.63 727.27 382.54 727.27" stroke="rgba(120, 81, 255, 1)" stroke-width="4"></path><path d="M422.16 727.27Q429.93 727.27 437.69 727.27 445.46 727.27 453.22 727.27 460.99 727.27 468.75 727.27 476.52 727.27 484.29 727.27 492.05 727.27 499.82 727.27 507.58 727.27 515.35 727.27 523.12 727.27 530.88 727.27 538.65 727.27 546.41 727.27 554.18 727.27 561.94 727.27 569.71 727.27 577.48 727.27 585.24 727.27 593.01 727.27 600.77 727.27 608.54 727.27" stroke="#ff00ff" stroke-width="4"></path><path d="M632.16 727.27Q640.32 727.27 648.48 727.27 656.65 727.27 664.81 727.27 672.97 727.27 681.13 727.27 689.29 727.27 697.45 727.27 705.62 727.27 713.78 727.27 721.94 727.27 730.1 727.27 738.26 727.27 746.43 727.27 754.59 727.27 762.75 727.27 770.91 727.27 779.07 727.27 787.23 727.27 795.4 727.27 803.56 727.27 811.72 727.27" stroke="#ff00ff" stroke-width="4"></path><path d="M846.94 727.27Q851.74 727.27 856.54 727.27 861.34 727.27 866.13 727.27 870.93 727.27 875.73 727.27" stroke="rgba(201, 251, 255, 1)" stroke-width="4"></path><path d="M903.99 727.27Q911.51 727.27 919.03 727.27 926.54 727.27 934.06 727.27 941.58 727.27 949.1 727.27 956.62 727.27 964.13 727.27 971.65 727.27 979.17 727.27 986.69 727.27 994.2 727.27 1001.72 727.27 1009.24 727.27" stroke="rgba(120, 81, 255, 1)" stroke-width="4"></path><path d="M1026.08 727.27Q1033.73 727.27 1041.38 727.27 1049.03 727.27 1056.68 727.27 1064.33 727.27 1071.97 727.27 1079.62 727.27 1087.27 727.27 1094.92 727.27 1102.57 727.27 1110.22 727.27 1117.87 727.27 1125.52 727.27 1133.17 727.27 1140.82 727.27 1148.47 727.27 1156.12 727.27 1163.76 727.27 1171.41 727.27 1179.06 727.27 1186.71 727.27 1194.36 727.27 1202.01 727.27 1209.66 727.27" stroke="rgba(120, 81, 255, 1)" stroke-width="4"></path><path d="M1242.59 727.27Q1250.41 727.27 1258.23 727.27 1266.05 727.27 1273.87 727.27 1281.69 727.27 1289.51 727.27 1297.34 727.27 1305.16 727.27 1312.98 727.27 1320.8 727.27 1328.62 727.27 1336.44 727.27" stroke="rgba(120, 81, 255, 1)" stroke-width="4"></path><path d="M1372.14 727.27Q1380.67 727.27 1389.2 727.27 1397.73 727.27 1406.26 727.27 1414.78 727.27 1423.31 727.27 1431.84 727.27 1440.37 727.27 1448.9 727.27 1457.43 727.27" stroke="rgba(201, 251, 255, 1)" stroke-width="4"></path><path d="M1473.26 727.27Q1479.92 727.27 1486.57 727.27 1493.23 727.27 1499.89 727.27 1506.54 727.27 1513.2 727.27" stroke="rgba(59, 130, 246, 1)" stroke-width="4"></path><path d="M1544.85 727.27Q1553.08 727.27 1561.31 727.27 1569.53 727.27 1577.76 727.27 1585.99 727.27 1594.22 727.27 1602.44 727.27 1610.67 727.27 1618.9 727.27 1627.13 727.27 1635.36 727.27 1643.58 727.27 1651.81 727.27 1660.04 727.27" stroke="rgba(59, 130, 246, 1)" stroke-width="4"></path><path d="M1693.12 727.27Q1700.94 727.27 1708.77 727.27 1716.59 727.27 1724.41 727.27 1732.23 727.27 1740.06 727.27 1747.88 727.27 1755.7 727.27 1763.52 727.27 1771.35 727.27 1779.17 727.27 1786.99 727.27 1794.82 727.27 1802.64 727.27 1810.46 727.27 1818.28 727.27 1826.11 727.27 1833.93 727.27" stroke="rgba(201, 251, 255, 1)" stroke-width="4"></path><path d="M1851.25 727.27Q1854.73 727.27 1858.21 727.27 1861.7 727.27 1865.18 727.27 1868.66 727.27 1872.14 727.27 1875.63 727.27 1879.11 727.27 1882.59 727.27 1886.07 727.27 1889.55 727.27 1893.04 727.27 1896.52 727.27 1900 727.27" stroke="rgba(120, 81, 255, 1)" stroke-width="4"></path><path d="M0.79 772.73Q6.58 772.73 12.36 772.73 18.15 772.73 23.94 772.73 29.72 772.73 35.51 772.73" stroke="rgba(120, 81, 255, 1)" stroke-width="4"></path><path d="M69.13 772.73Q73.74 772.73 78.35 772.73 82.95 772.73 87.56 772.73 92.17 772.73 96.78 772.73" stroke="rgba(120, 81, 255, 1)" stroke-width="4"></path><path d="M135.45 772.73Q144.32 772.73 153.19 772.73 162.06 772.73 170.93 772.73 179.8 772.73 188.68 772.73 197.55 772.73 206.42 772.73 215.29 772.73 224.16 772.73" stroke="#ff00ff" stroke-width="4"></path><path d="M253.45 772.73Q261 772.73 268.55 772.73 276.11 772.73 283.66 772.73 291.21 772.73 298.76 772.73 306.32 772.73 313.87 772.73 321.42 772.73 328.97 772.73 336.52 772.73 344.08 772.73 351.63 772.73 359.18 772.73 366.73 772.73 374.29 772.73 381.84 772.73 389.39 772.73" stroke="#4000ff" stroke-width="4"></path><path d="M408.19 772.73Q414.7 772.73 421.2 772.73 427.71 772.73 434.22 772.73 440.72 772.73 447.23 772.73" stroke="rgba(59, 130, 246, 1)" stroke-width="4"></path><path d="M485.49 772.73Q494.06 772.73 502.63 772.73 511.2 772.73 519.77 772.73 528.34 772.73 536.91 772.73 545.48 772.73 554.04 772.73 562.61 772.73 571.18 772.73 579.75 772.73 588.32 772.73 596.89 772.73 605.46 772.73" stroke="rgba(120, 81, 255, 1)" stroke-width="4"></path><path d="M628.38 772.73Q636.52 772.73 644.66 772.73 652.81 772.73 660.95 772.73 669.09 772.73 677.23 772.73" stroke="rgba(201, 251, 255, 1)" stroke-width="4"></path><path d="M697.05 772.73Q704.63 772.73 712.22 772.73 719.8 772.73 727.38 772.73 734.96 772.73 742.55 772.73 750.13 772.73 757.71 772.73 765.29 772.73 772.88 772.73 780.46 772.73 788.04 772.73 795.62 772.73 803.21 772.73 810.79 772.73 818.37 772.73 825.95 772.73 833.54 772.73 841.12 772.73 848.7 772.73" stroke="rgba(59, 130, 246, 1)" stroke-width="4"></path><path d="M882.41 772.73Q890.19 772.73 897.96 772.73 905.74 772.73 913.52 772.73 921.29 772.73 929.07 772.73 936.84 772.73 944.62 772.73 952.4 772.73 960.17 772.73 967.95 772.73 975.73 772.73 983.5 772.73 991.28 772.73 999.05 772.73 1006.83 772.73" stroke="#8000ff" stroke-width="4"></path><path d="M1024.78 772.73Q1033.18 772.73 1041.59 772.73 1049.99 772.73 1058.4 772.73 1066.8 772.73 1075.21 772.73 1083.62 772.73 1092.02 772.73 1100.42 772.73 1108.83 772.73 1117.23 772.73 1125.64 772.73" stroke="rgba(201, 251, 255, 1)" stroke-width="4"></path><path d="M1160.35 772.73Q1168.43 772.73 1176.51 772.73 1184.59 772.73 1192.68 772.73 1200.76 772.73 1208.84 772.73 1216.92 772.73 1225 772.73 1233.08 772.73 1241.16 772.73 1249.25 772.73 1257.33 772.73 1265.41 772.73 1273.49 772.73 1281.57 772.73 1289.65 772.73 1297.74 772.73 1305.82 772.73 1313.9 772.73 1321.98 772.73" stroke="#4000ff" stroke-width="4"></path><path d="M1346.7 772.73Q1355.02 772.73 1363.33 772.73 1371.65 772.73 1379.96 772.73 1388.28 772.73 1396.6 772.73 1404.91 772.73 1413.23 772.73 1421.54 772.73 1429.86 772.73" stroke="rgba(201, 251, 255, 1)" stroke-width="4"></path><path d="M1457.26 772.73Q1465.31 772.73 1473.36 772.73 1481.4 772.73 1489.45 772.73 1497.5 772.73 1505.55 772.73 1513.6 772.73 1521.65 772.73 1529.69 772.73 1537.74 772.73 1545.79 772.73 1553.84 772.73 1561.89 772.73 1569.93 772.73 1577.98 772.73 1586.03 772.73 1594.08 772.73 1602.13 772.73 1610.18 772.73 1618.22 772.73 1626.27 772.73 1634.32 772.73" stroke="rgba(120, 81, 255, 1)" stroke-width="4"></path><path d="M1651.88 772.73Q1658.78 772.73 1665.69 772.73 1672.59 772.73 1679.49 772.73 1686.4 772.73 1693.3 772.73" stroke="rgba(201, 251, 255, 1)" stroke-width="4"></path><path d="M1708 772.73Q1715.99 772.73 1723.99 772.73 1731.98 772.73 1739.98 772.73 1747.97 772.73 1755.96 772.73 1763.96 772.73 1771.95 772.73" stroke="rgba(201, 251, 255, 1)" stroke-width="4"></path><path d="M1791.98 772.73Q1797.98 772.73 1803.98 772.73 1809.98 772.73 1815.98 772.73 1821.99 772.73 1827.99 772.73 1833.99 772.73 1839.99 772.73 1845.99 772.73 1851.99 772.73 1857.99 772.73 1863.99 772.73 1869.99 772.73 1876 772.73 1882 772.73 1888 772.73 1894 772.73 1900 772.73" stroke="rgba(201, 251, 255, 1)" stroke-width="4"></path><path d="M49.6 818.18Q58.17 818.18 66.75 818.18 75.33 818.18 83.9 818.18 92.47 818.18 101.05 818.18 109.63 818.18 118.2 818.18 126.78 818.18 135.35 818.18" stroke="#ff00ff" stroke-width="4"></path><path d="M149.77 818.18Q157.6 818.18 165.43 818.18 173.26 818.18 181.09 818.18 188.92 818.18 196.75 818.18 204.58 818.18 212.41 818.18 220.24 818.18 228.07 818.18 235.9 818.18 243.73 818.18 251.56 818.18 259.39 818.18 267.22 818.18 275.05 818.18 282.88 818.18 290.71 818.18 298.54 818.18 306.37 818.18 314.2 818.18 322.03 818.18 329.86 818.18 337.69 818.18" stroke="rgba(201, 251, 255, 1)" stroke-width="4"></path><path d="M357.85 818.18Q359.91 818.18 361.96 818.18 364.02 818.18 366.08 818.18 368.13 818.18 370.19 818.18" stroke="rgba(120, 81, 255, 1)" stroke-width="4"></path><path d="M403.08 818.18Q406.46 818.18 409.84 818.18 413.22 818.18 416.6 818.18 419.98 818.18 423.36 818.18" stroke="rgba(59, 130, 246, 1)" stroke-width="4"></path><path d="M452.13 818.18Q460.62 818.18 469.11 818.18 477.6 818.18 486.08 818.18 494.57 818.18 503.06 818.18 511.55 818.18 520.04 818.18" stroke="rgba(59, 130, 246, 1)" stroke-width="4"></path><path d="M553.36 818.18Q561.88 818.18 570.41 818.18 578.93 818.18 587.46 818.18 595.98 818.18 604.5 818.18 613.03 818.18 621.55 818.18 630.08 818.18 638.6 818.18" stroke="rgba(201, 251, 255, 1)" stroke-width="4"></path><path d="M663.05 818.18Q670.98 818.18 678.9 818.18 686.83 818.18 694.75 818.18 702.68 818.18 710.61 818.18 718.53 818.18 726.46 818.18 734.38 818.18 742.31 818.18 750.24 818.18 758.16 818.18 766.09 818.18 774.02 818.18 781.94 818.18 789.87 818.18 797.79 818.18 805.72 818.18" stroke="rgba(59, 130, 246, 1)" stroke-width="4"></path><path d="M835.04 818.18Q842.13 818.18 849.22 818.18 856.31 818.18 863.41 818.18 870.5 818.18 877.59 818.18" stroke="rgba(201, 251, 255, 1)" stroke-width="4"></path><path d="M914.11 818.18Q921.85 818.18 929.59 818.18 937.32 818.18 945.06 818.18 952.8 818.18 960.54 818.18 968.27 818.18 976.01 818.18 983.75 818.18 991.49 818.18 999.23 818.18 1006.96 818.18 1014.7 818.18 1022.44 818.18 1030.18 818.18 1037.91 818.18 1045.65 818.18 1053.39 818.18" stroke="#ff00ff" stroke-width="4"></path><path d="M1083.44 818.18Q1091.3 818.18 1099.17 818.18 1107.03 818.18 1114.89 818.18 1122.76 818.18 1130.62 818.18 1138.49 818.18 1146.35 818.18 1154.21 818.18 1162.08 818.18 1169.94 818.18 1177.8 818.18 1185.67 818.18 1193.53 818.18 1201.4 818.18 1209.26 818.18 1217.12 818.18 1224.99 818.18 1232.85 818.18 1240.71 818.18 1248.58 818.18 1256.44 818.18 1264.31 818.18 1272.17 818.18" stroke="#4000ff" stroke-width="4"></path><path d="M1300.16 818.18Q1308.09 818.18 1316.02 818.18 1323.96 818.18 1331.89 818.18 1339.82 818.18 1347.75 818.18 1355.69 818.18 1363.62 818.18 1371.55 818.18 1379.48 818.18 1387.42 818.18 1395.35 818.18 1403.28 818.18 1411.21 818.18 1419.15 818.18 1427.08 818.18 1435.01 818.18 1442.94 818.18 1450.88 818.18 1458.81 818.18" stroke="#4000ff" stroke-width="4"></path><path d="M1482.02 818.18Q1491.39 818.18 1500.77 818.18 1510.14 818.18 1519.51 818.18 1528.89 818.18 1538.26 818.18 1547.64 818.18 1557.01 818.18" stroke="rgba(59, 130, 246, 1)" stroke-width="4"></path><path d="M1572.55 818.18Q1580.44 818.18 1588.33 818.18 1596.21 818.18 1604.1 818.18 1611.99 818.18 1619.88 818.18 1627.76 818.18 1635.65 818.18 1643.54 818.18 1651.42 818.18 1659.31 818.18 1667.2 818.18 1675.09 818.18 1682.97 818.18 1690.86 818.18 1698.75 818.18 1706.64 818.18 1714.52 818.18 1722.41 818.18 1730.3 818.18 1738.19 818.18 1746.07 818.18 1753.96 818.18 1761.85 818.18" stroke="rgba(201, 251, 255, 1)" stroke-width="4"></path><path d="M1777.15 818.18Q1782.48 818.18 1787.81 818.18 1793.14 818.18 1798.48 818.18 1803.81 818.18 1809.14 818.18" stroke="rgba(120, 81, 255, 1)" stroke-width="4"></path><path d="M1843.1 818.18Q1845.94 818.18 1848.79 818.18 1851.63 818.18 1854.48 818.18 1857.32 818.18 1860.17 818.18 1863.01 818.18 1865.86 818.18 1868.7 818.18 1871.55 818.18 1874.39 818.18 1877.24 818.18 1880.09 818.18 1882.93 818.18 1885.78 818.18 1888.62 818.18 1891.46 818.18 1894.31 818.18 1897.15 818.18 1900 818.18" stroke="rgba(201, 251, 255, 1)" stroke-width="4"></path><path d="M10.81 863.64Q18.57 863.64 26.33 863.64 34.09 863.64 41.85 863.64 49.61 863.64 57.37 863.64 65.13 863.64 72.89 863.64 80.66 863.64 88.42 863.64 96.18 863.64 103.94 863.64 111.7 863.64 119.46 863.64 127.22 863.64 134.98 863.64" stroke="rgba(59, 130, 246, 1)" stroke-width="4"></path><path d="M162.04 863.64Q165.14 863.64 168.25 863.64 171.35 863.64 174.46 863.64 177.56 863.64 180.67 863.64" stroke="#8000ff" stroke-width="4"></path><path d="M199.82 863.64Q207.34 863.64 214.87 863.64 222.39 863.64 229.92 863.64 237.44 863.64 244.97 863.64 252.5 863.64 260.02 863.64 267.54 863.64 275.07 863.64 282.6 863.64 290.12 863.64" stroke="rgba(120, 81, 255, 1)" stroke-width="4"></path><path d="M315.22 863.64Q322.76 863.64 330.31 863.64 337.86 863.64 345.4 863.64 352.95 863.64 360.49 863.64" stroke="rgba(201, 251, 255, 1)" stroke-width="4"></path><path d="M381.52 863.64Q389.33 863.64 397.15 863.64 404.96 863.64 412.77 863.64 420.59 863.64 428.4 863.64 436.22 863.64 444.03 863.64 451.84 863.64 459.66 863.64 467.47 863.64 475.28 863.64 483.1 863.64 490.91 863.64 498.73 863.64 506.54 863.64 514.35 863.64 522.17 863.64 529.98 863.64 537.79 863.64 545.61 863.64 553.42 863.64 561.24 863.64 569.05 863.64" stroke="#ff00ff" stroke-width="4"></path><path d="M585.01 863.64Q592.99 863.64 600.96 863.64 608.94 863.64 616.92 863.64 624.89 863.64 632.87 863.64 640.85 863.64 648.82 863.64 656.8 863.64 664.78 863.64 672.75 863.64 680.73 863.64 688.71 863.64 696.68 863.64 704.66 863.64 712.64 863.64 720.61 863.64 728.59 863.64 736.57 863.64 744.54 863.64 752.52 863.64 760.5 863.64 768.47 863.64 776.45 863.64" stroke="rgba(120, 81, 255, 1)" stroke-width="4"></path><path d="M789.28 863.64Q798.22 863.64 807.17 863.64 816.11 863.64 825.05 863.64 834 863.64 842.94 863.64 851.88 863.64 860.82 863.64 869.77 863.64 878.71 863.64" stroke="#8000ff" stroke-width="4"></path><path d="M901.73 863.64Q909.49 863.64 917.25 863.64 925.01 863.64 932.77 863.64 940.53 863.64 948.29 863.64 956.05 863.64 963.81 863.64 971.57 863.64 979.33 863.64 987.09 863.64 994.85 863.64" stroke="rgba(59, 130, 246, 1)" stroke-width="4"></path><path d="M1011.78 863.64Q1019.53 863.64 1027.28 863.64 1035.03 863.64 1042.78 863.64 1050.53 863.64 1058.28 863.64 1066.03 863.64 1073.78 863.64 1081.53 863.64 1089.28 863.64 1097.03 863.64 1104.77 863.64 1112.52 863.64 1120.27 863.64 1128.02 863.64 1135.77 863.64 1143.52 863.64 1151.27 863.64 1159.02 863.64 1166.77 863.64 1174.52 863.64 1182.27 863.64" stroke="rgba(201, 251, 255, 1)" stroke-width="4"></path><path d="M1211.57 863.64Q1216.67 863.64 1221.76 863.64 1226.86 863.64 1231.96 863.64 1237.05 863.64 1242.15 863.64" stroke="#8000ff" stroke-width="4"></path><path d="M1252.34 863.64Q1257.14 863.64 1261.95 863.64 1266.75 863.64 1271.56 863.64 1276.36 863.64 1281.17 863.64" stroke="rgba(201, 251, 255, 1)" stroke-width="4"></path><path d="M1294.92 863.64Q1302.57 863.64 1310.22 863.64 1317.87 863.64 1325.52 863.64 1333.17 863.64 1340.82 863.64 1348.47 863.64 1356.12 863.64 1363.77 863.64 1371.41 863.64 1379.06 863.64 1386.71 863.64 1394.36 863.64 1402.01 863.64 1409.66 863.64 1417.31 863.64 1424.96 863.64 1432.61 863.64 1440.26 863.64 1447.91 863.64" stroke="rgba(201, 251, 255, 1)" stroke-width="4"></path><path d="M1458.01 863.64Q1466.58 863.64 1475.15 863.64 1483.71 863.64 1492.28 863.64 1500.85 863.64 1509.42 863.64" stroke="#ff00ff" stroke-width="4"></path><path d="M1542.92 863.64Q1550.82 863.64 1558.73 863.64 1566.63 863.64 1574.54 863.64 1582.44 863.64 1590.35 863.64 1598.25 863.64 1606.15 863.64 1614.06 863.64 1621.96 863.64 1629.87 863.64 1637.77 863.64 1645.68 863.64 1653.58 863.64" stroke="#4000ff" stroke-width="4"></path><path d="M1669.26 863.64Q1676.89 863.64 1684.51 863.64 1692.14 863.64 1699.76 863.64 1707.39 863.64 1715.02 863.64 1722.64 863.64 1730.27 863.64 1737.9 863.64 1745.52 863.64 1753.15 863.64 1760.77 863.64 1768.4 863.64 1776.03 863.64 1783.65 863.64 1791.28 863.64 1798.9 863.64 1806.53 863.64 1814.16 863.64 1821.78 863.64 1829.41 863.64 1837.04 863.64 1844.66 863.64 1852.29 863.64 1859.91 863.64 1867.54 863.64" stroke="#8000ff" stroke-width="4"></path><path d="M16.81 909.09Q25.74 909.09 34.66 909.09 43.59 909.09 52.52 909.09 61.44 909.09 70.37 909.09" stroke="#ff00ff" stroke-width="4"></path><path d="M107.53 909.09Q111.94 909.09 116.35 909.09 120.75 909.09 125.16 909.09 129.57 909.09 133.98 909.09" stroke="#ff00ff" stroke-width="4"></path><path d="M158.94 909.09Q164.37 909.09 169.79 909.09 175.22 909.09 180.64 909.09 186.06 909.09 191.49 909.09" stroke="rgba(120, 81, 255, 1)" stroke-width="4"></path><path d="M205.18 909.09Q212.79 909.09 220.4 909.09 228.01 909.09 235.62 909.09 243.22 909.09 250.83 909.09 258.44 909.09 266.05 909.09 273.66 909.09 281.27 909.09" stroke="#8000ff" stroke-width="4"></path><path d="M296.78 909.09Q298.72 909.09 300.67 909.09 302.62 909.09 304.56 909.09 306.5 909.09 308.45 909.09" stroke="#8000ff" stroke-width="4"></path><path d="M339.21 909.09Q347.26 909.09 355.31 909.09 363.37 909.09 371.42 909.09 379.47 909.09 387.52 909.09 395.57 909.09 403.62 909.09 411.68 909.09 419.73 909.09 427.78 909.09 435.83 909.09" stroke="rgba(59, 130, 246, 1)" stroke-width="4"></path><path d="M455.95 909.09Q457.51 909.09 459.07 909.09 460.63 909.09 462.2 909.09 463.76 909.09 465.32 909.09" stroke="rgba(59, 130, 246, 1)" stroke-width="4"></path><path d="M495.04 909.09Q503.33 909.09 511.62 909.09 519.91 909.09 528.19 909.09 536.48 909.09 544.77 909.09 553.06 909.09 561.35 909.09" stroke="rgba(59, 130, 246, 1)" stroke-width="4"></path><path d="M592.26 909.09Q600.4 909.09 608.55 909.09 616.69 909.09 624.84 909.09 632.98 909.09 641.12 909.09 649.27 909.09 657.41 909.09 665.56 909.09 673.7 909.09" stroke="#ff00ff" stroke-width="4"></path><path d="M695.88 909.09Q703.71 909.09 711.54 909.09 719.38 909.09 727.21 909.09 735.04 909.09 742.87 909.09 750.7 909.09 758.53 909.09 766.37 909.09 774.2 909.09 782.03 909.09 789.86 909.09 797.69 909.09 805.53 909.09 813.36 909.09 821.19 909.09 829.02 909.09 836.85 909.09 844.68 909.09 852.52 909.09 860.35 909.09 868.18 909.09" stroke="#ff00ff" stroke-width="4"></path><path d="M879.67 909.09Q887.4 909.09 895.13 909.09 902.86 909.09 910.59 909.09 918.32 909.09 926.05 909.09 933.79 909.09 941.52 909.09 949.25 909.09 956.98 909.09 964.71 909.09 972.44 909.09" stroke="#4000ff" stroke-width="4"></path><path d="M982.54 909.09Q990.26 909.09 997.98 909.09 1005.7 909.09 1013.42 909.09 1021.14 909.09 1028.85 909.09 1036.57 909.09 1044.29 909.09 1052.01 909.09 1059.73 909.09 1067.45 909.09 1075.17 909.09" stroke="#4000ff" stroke-width="4"></path><path d="M1113.51 909.09Q1115.42 909.09 1117.34 909.09 1119.25 909.09 1121.17 909.09 1123.08 909.09 1125 909.09" stroke="#ff00ff" stroke-width="4"></path><path d="M1159.87 909.09Q1167.54 909.09 1175.21 909.09 1182.88 909.09 1190.55 909.09 1198.22 909.09 1205.89 909.09 1213.56 909.09 1221.23 909.09 1228.9 909.09 1236.57 909.09 1244.24 909.09 1251.91 909.09 1259.58 909.09 1267.25 909.09 1274.92 909.09 1282.59 909.09 1290.26 909.09 1297.93 909.09 1305.6 909.09 1313.27 909.09 1320.94 909.09 1328.61 909.09" stroke="#8000ff" stroke-width="4"></path><path d="M1338.93 909.09Q1346.93 909.09 1354.94 909.09 1362.94 909.09 1370.94 909.09 1378.94 909.09 1386.95 909.09 1394.95 909.09 1402.95 909.09 1410.95 909.09 1418.96 909.09 1426.96 909.09 1434.96 909.09 1442.97 909.09 1450.97 909.09 1458.97 909.09 1466.97 909.09 1474.98 909.09 1482.98 909.09 1490.98 909.09 1498.98 909.09 1506.99 909.09 1514.99 909.09" stroke="rgba(59, 130, 246, 1)" stroke-width="4"></path><path d="M1529.27 909.09Q1537.28 909.09 1545.29 909.09 1553.31 909.09 1561.32 909.09 1569.33 909.09 1577.34 909.09 1585.35 909.09 1593.37 909.09 1601.38 909.09 1609.39 909.09 1617.4 909.09 1625.41 909.09 1633.43 909.09 1641.44 909.09 1649.45 909.09 1657.46 909.09 1665.47 909.09 1673.49 909.09 1681.5 909.09 1689.51 909.09" stroke="#8000ff" stroke-width="4"></path><path d="M1720.96 909.09Q1726.74 909.09 1732.52 909.09 1738.29 909.09 1744.07 909.09 1749.85 909.09 1755.63 909.09" stroke="rgba(120, 81, 255, 1)" stroke-width="4"></path><path d="M1788.8 909.09Q1791.22 909.09 1793.64 909.09 1796.05 909.09 1798.47 909.09 1800.89 909.09 1803.31 909.09" stroke="#4000ff" stroke-width="4"></path><path d="M1837.56 909.09Q1842.02 909.09 1846.48 909.09 1850.94 909.09 1855.4 909.09 1859.86 909.09 1864.32 909.09 1868.78 909.09 1873.24 909.09 1877.7 909.09 1882.16 909.09 1886.62 909.09 1891.08 909.09 1895.54 909.09 1900 909.09" stroke="#8000ff" stroke-width="4"></path><path d="M12.84 954.55Q20.46 954.55 28.07 954.55 35.69 954.55 43.31 954.55 50.92 954.55 58.54 954.55 66.16 954.55 73.78 954.55 81.39 954.55 89.01 954.55 96.63 954.55 104.24 954.55 111.86 954.55 119.48 954.55 127.09 954.55 134.71 954.55" stroke="rgba(120, 81, 255, 1)" stroke-width="4"></path><path d="M171.41 954.55Q179.71 954.55 188.01 954.55 196.3 954.55 204.6 954.55 212.9 954.55 221.2 954.55 229.5 954.55 237.79 954.55 246.09 954.55 254.39 954.55 262.69 954.55 270.98 954.55 279.28 954.55 287.58 954.55" stroke="rgba(59, 130, 246, 1)" stroke-width="4"></path><path d="M318.63 954.55Q328.02 954.55 337.41 954.55 346.8 954.55 356.18 954.55 365.57 954.55 374.96 954.55" stroke="rgba(59, 130, 246, 1)" stroke-width="4"></path><path d="M386.35 954.55Q388.2 954.55 390.04 954.55 391.89 954.55 393.74 954.55 395.58 954.55 397.43 954.55" stroke="rgba(201, 251, 255, 1)" stroke-width="4"></path><path d="M413.53 954.55Q421.54 954.55 429.56 954.55 437.57 954.55 445.59 954.55 453.6 954.55 461.61 954.55 469.63 954.55 477.64 954.55 485.65 954.55 493.67 954.55 501.68 954.55 509.7 954.55 517.71 954.55 525.72 954.55 533.74 954.55 541.75 954.55 549.77 954.55 557.78 954.55" stroke="rgba(59, 130, 246, 1)" stroke-width="4"></path><path d="M588.67 954.55Q597.95 954.55 607.24 954.55 616.52 954.55 625.8 954.55 635.09 954.55 644.37 954.55" stroke="rgba(59, 130, 246, 1)" stroke-width="4"></path><path d="M666.27 954.55Q674.58 954.55 682.89 954.55 691.2 954.55 699.51 954.55 707.82 954.55 716.13 954.55 724.44 954.55 732.75 954.55 741.05 954.55 749.36 954.55 757.67 954.55 765.98 954.55 774.29 954.55 782.6 954.55 790.91 954.55 799.22 954.55" stroke="rgba(201, 251, 255, 1)" stroke-width="4"></path><path d="M811.95 954.55Q820.9 954.55 829.86 954.55 838.81 954.55 847.77 954.55 856.72 954.55 865.67 954.55 874.63 954.55 883.58 954.55 892.54 954.55 901.49 954.55" stroke="rgba(201, 251, 255, 1)" stroke-width="4"></path><path d="M933.42 954.55Q940.94 954.55 948.46 954.55 955.98 954.55 963.5 954.55 971.02 954.55 978.55 954.55 986.07 954.55 993.59 954.55 1001.11 954.55 1008.63 954.55 1016.15 954.55 1023.67 954.55 1031.19 954.55 1038.71 954.55 1046.23 954.55 1053.75 954.55 1061.28 954.55 1068.8 954.55 1076.32 954.55 1083.84 954.55 1091.36 954.55 1098.88 954.55" stroke="#4000ff" stroke-width="4"></path><path d="M1131.54 954.55Q1139.18 954.55 1146.82 954.55 1154.46 954.55 1162.11 954.55 1169.75 954.55 1177.39 954.55 1185.03 954.55 1192.67 954.55 1200.32 954.55 1207.96 954.55 1215.6 954.55 1223.24 954.55 1230.88 954.55 1238.52 954.55 1246.16 954.55 1253.81 954.55 1261.45 954.55 1269.09 954.55 1276.73 954.55 1284.37 954.55 1292.02 954.55 1299.66 954.55 1307.3 954.55 1314.94 954.55" stroke="#4000ff" stroke-width="4"></path><path d="M1343.81 954.55Q1352.44 954.55 1361.07 954.55 1369.7 954.55 1378.33 954.55 1386.96 954.55 1395.59 954.55 1404.22 954.55 1412.85 954.55" stroke="rgba(120, 81, 255, 1)" stroke-width="4"></path><path d="M1441.28 954.55Q1449 954.55 1456.72 954.55 1464.44 954.55 1472.16 954.55 1479.88 954.55 1487.6 954.55 1495.32 954.55 1503.04 954.55 1510.76 954.55 1518.47 954.55 1526.19 954.55 1533.91 954.55 1541.63 954.55 1549.35 954.55 1557.07 954.55 1564.79 954.55 1572.51 954.55 1580.23 954.55" stroke="#4000ff" stroke-width="4"></path><path d="M1600.26 954.55Q1608.25 954.55 1616.23 954.55 1624.22 954.55 1632.2 954.55 1640.19 954.55 1648.17 954.55 1656.16 954.55 1664.15 954.55 1672.13 954.55 1680.12 954.55 1688.1 954.55 1696.09 954.55 1704.07 954.55 1712.06 954.55" stroke="rgba(120, 81, 255, 1)" stroke-width="4"></path><path d="M1751.22 954.55Q1758.9 954.55 1766.59 954.55 1774.27 954.55 1781.95 954.55 1789.63 954.55 1797.32 954.55 1805 954.55 1812.68 954.55 1820.37 954.55 1828.05 954.55 1835.73 954.55 1843.41 954.55 1851.1 954.55 1858.78 954.55" stroke="rgba(201, 251, 255, 1)" stroke-width="4"></path><path d="M1872.47 954.55Q1873.62 954.55 1874.76 954.55 1875.91 954.55 1877.06 954.55 1878.21 954.55 1879.35 954.55 1880.5 954.55 1881.65 954.55 1882.79 954.55 1883.94 954.55 1885.09 954.55 1886.24 954.55 1887.38 954.55 1888.53 954.55 1889.68 954.55 1890.82 954.55 1891.97 954.55 1893.12 954.55 1894.26 954.55 1895.41 954.55 1896.56 954.55 1897.71 954.55 1898.85 954.55 1900 954.55" stroke="#8000ff" stroke-width="4"></path></g><defs><clipPath id="SvgjsClipPath1062"><rect width="1900" height="1000" x="0" y="0"></rect></clipPath></defs></svg>