<svg xmlns="http://www.w3.org/2000/svg" version="1.1" xmlns:xlink="http://www.w3.org/1999/xlink" xmlns:svgjs="http://svgjs.dev/svgjs" width="1900" height="900" preserveAspectRatio="none" viewBox="0 0 1900 900"><g clip-path="url(&quot;#SvgjsClipPath1084&quot;)" fill="none"><g><path d="M491.76276420251514 581.7693344609933Q506.3510385176376 547.9216760582523 520.9393128327602 567.7645911184757Q535.5275871478826 544.2901479104613 550.1158614630051 567.7645911184757Q564.7041357781276 553.2246879911518 579.29241009325 567.7645911184757Q593.8806844083725 550.2026193885862 608.468958723495 581.7693344609933L491.76276420251514 581.7693344609933Z " fill="rgba(96, 154, 248, 1)" stroke-width="1" stroke="#4a5568"></path></g><g><path d="M1493.786925165914 118.07362005228187Q1521.9734893557613 50.38682152068617 1550.1600535456087 97.77929383559183Q1578.3466177354558 67.52269051364381 1606.533181925303 97.77929383559183Q1634.7197461151504 58.14560408798864 1662.9063103049978 118.07362005228187L1493.786925165914 118.07362005228187Z " fill="rgba(96, 154, 248, 1)" stroke-width="1" stroke="#4a5568"></path></g><g><path d="M1164.248461154733 136.42967079633Q1179.9550639039755 97.8321628968649 1195.6616666532182 121.3513321570571Q1211.3682694024606 104.76176789377047 1227.0748721517032 121.3513321570571Q1242.7814749009458 91.94281577078802 1258.4880776501884 121.3513321570571Q1274.194680399431 86.16146477902483 1289.9012831486737 136.42967079633L1164.248461154733 136.42967079633Z " fill="#abdff5" stroke-width="1" stroke="#4a5568"></path></g><g><path d="M1127.3702130624615 576.0160999961747Q1169.9008400856064 466.5898530374455 1212.4314671087511 535.1866980539558Q1254.962094131896 433.54629309053837 1297.492721155041 535.1866980539558Q1340.0233481781856 486.86125910207716 1382.5539752013306 535.1866980539558Q1425.0846022244755 468.30270619130897 1467.6152292476204 576.0160999961747L1127.3702130624615 576.0160999961747Z " fill="rgba(96, 154, 248, 1)" stroke-width="1" stroke="#4a5568"></path></g><g><path d="M488.6634596026272 59.486185406979516Q522.2986374393 -36.49955146556495 555.9338152759727 27.19641468377364Q589.5689931126456 -26.973173145175323 623.2041709493184 27.19641468377364Q656.8393487859912 -6.607573407920498 690.4745266226639 27.19641468377364Q724.1097044593367 -11.565348075185753 757.7448822960096 59.486185406979516L488.6634596026272 59.486185406979516Z " fill="#abdff5" stroke-width="1" stroke="#4a5568"></path></g><g><path d="M766.7794035452425 258.1329059488418Q815.0946258019403 185.93426382455937 863.4098480586381 223.34594592401945Q911.7250703153359 168.72818363470503 960.0402925720335 223.34594592401945Q1008.3555148287313 185.49759211370483 1056.6707370854292 258.1329059488418L766.7794035452425 258.1329059488418Z " fill="rgba(96, 154, 248, 1)" stroke-width="1" stroke="#4a5568"></path></g><g><path d="M288.7393356460095 379.8577902647843Q353.03970158625094 224.14517126893955 417.34006752649236 333.56152678781046Q481.6404334667337 259.05458240577417 545.9407994069752 333.56152678781046Q610.2411653472166 267.4902875443736 674.5415312874579 379.8577902647843L288.7393356460095 379.8577902647843Z " fill="rgba(59, 130, 246, 1)" stroke-width="1" stroke="#4a5568"></path></g><g><path d="M1137.9572401685516 357.85522722471364Q1181.12792072447 282.30648279381563 1224.2986012803885 326.7723372244524Q1267.469281836307 263.0824431684677 1310.6399623922252 326.7723372244524Q1353.8106429481436 274.53825908753106 1396.981323504062 357.85522722471364L1137.9572401685516 357.85522722471364Z " fill="rgba(59, 130, 246, 1)" stroke-width="1" stroke="#4a5568"></path></g><g><path d="M493.87420726117745 723.8409084747617Q521.1838483553678 639.3052324108519 548.4934894495582 697.623653024339Q575.8031305437486 664.9358548075575 603.112771637939 697.623653024339Q630.4224127321293 661.4727059853567 657.7320538263197 697.623653024339Q685.04169492051 665.668313334766 712.3513360147005 723.8409084747617L493.87420726117745 723.8409084747617Z " fill="rgba(96, 154, 248, 1)" stroke-width="1" stroke="#4a5568"></path></g><g><path d="M1576.7604821050581 271.274705906936Q1613.3185145448224 194.02997551390027 1649.8765469845866 236.1789947647623Q1686.4345794243509 195.94382486723333 1722.9926118641151 236.1789947647623Q1759.5506443038794 197.6847427746436 1796.1086767436436 236.1789947647623Q1832.6667091834079 199.2771715717649 1869.2247416231721 271.274705906936L1576.7604821050581 271.274705906936Z " fill="rgba(59, 130, 246, 1)" stroke-width="1" stroke="#4a5568"></path></g><g><path d="M866.6809701713549 786.5432247902468Q893.0708898629161 727.6492026510522 919.4608095544774 767.5424826123227Q945.8507292460386 743.0068741187879 972.2406489375999 767.5424826123227Q998.6305686291611 742.1468480583038 1025.0204883207223 786.5432247902468L866.6809701713549 786.5432247902468Z " fill="rgba(96, 154, 248, 1)" stroke-width="1" stroke="#4a5568"></path></g><g><path d="M81.97794346606528 727.26578175495Q138.70305470980077 623.8839747132278 195.42816595353622 686.4237016594604Q252.1532771972717 607.3158947263473 308.87838844100713 686.4237016594604Q365.6034996847427 598.509591610149 422.32861092847816 727.26578175495L81.97794346606528 727.26578175495Z " fill="rgba(96, 154, 248, 1)" stroke-width="1" stroke="#4a5568"></path></g></g><defs><clipPath id="SvgjsClipPath1084"><rect width="1900" height="900" x="0" y="0"></rect></clipPath></defs></svg>