<svg xmlns="http://www.w3.org/2000/svg" version="1.1" xmlns:xlink="http://www.w3.org/1999/xlink" xmlns:svgjs="http://svgjs.dev/svgjs" width="1900" height="1000" preserveAspectRatio="none" viewBox="0 0 1900 1000"><g mask="url(&quot;#SvgjsMask1038&quot;)" fill="none"><circle r="8.36" cx="203.42000000000002" cy="82.25" filter="url(#SvgjsFilter1039)" fill="rgba(59, 130, 246, 0.7)"></circle><circle r="8.615" cx="686.195" cy="193.655" filter="url(#SvgjsFilter1039)" fill="rgba(59, 130, 246, 0.7)"></circle><circle r="13.285" cx="1496.625" cy="902.385" filter="url(#SvgjsFilter1039)" fill="rgba(59, 130, 246, 0.7)"></circle><circle r="9.245" cx="166.54500000000002" cy="768.065" filter="url(#SvgjsFilter1039)" fill="rgba(59, 130, 246, 0.7)"></circle><circle r="9.665" cx="1212.835" cy="679.7149999999999" filter="url(#SvgjsFilter1039)" fill="rgba(59, 130, 246, 0.7)"></circle><circle r="11.11" cx="1522.62" cy="27.41" filter="url(#SvgjsFilter1039)" fill="rgba(59, 130, 246, 0.7)"></circle><circle r="14.74" cx="1491.17" cy="734.63" filter="url(#SvgjsFilter1039)" fill="rgba(59, 130, 246, 0.7)"></circle><circle r="14.45" cx="53.45" cy="389.42" filter="url(#SvgjsFilter1039)" fill="rgba(59, 130, 246, 0.7)"></circle><circle r="10.535" cx="1078.265" cy="53.285" filter="url(#SvgjsFilter1039)" fill="rgba(59, 130, 246, 0.7)"></circle><circle r="13.33" cx="692.36" cy="934.9100000000001" filter="url(#SvgjsFilter1039)" fill="rgba(59, 130, 246, 0.7)"></circle><circle r="14.08" cx="1265.27" cy="651.0200000000001" filter="url(#SvgjsFilter1039)" fill="rgba(59, 130, 246, 0.7)"></circle><circle r="10.195" cx="1773.355" cy="852.9050000000001" filter="url(#SvgjsFilter1039)" fill="rgba(59, 130, 246, 0.7)"></circle><circle r="16.605" cx="548.465" cy="555.985" filter="url(#SvgjsFilter1039)" fill="rgba(59, 130, 246, 0.7)"></circle><circle r="10.645" cx="244.01500000000001" cy="209.555" filter="url(#SvgjsFilter1039)" fill="rgba(59, 130, 246, 0.7)"></circle><circle r="11.66" cx="624.91" cy="268.61" filter="url(#SvgjsFilter1039)" fill="rgba(59, 130, 246, 0.7)"></circle><circle r="14.205" cx="1465.7549999999999" cy="480.255" filter="url(#SvgjsFilter1039)" fill="rgba(59, 130, 246, 0.7)"></circle><circle r="13.18" cx="425.05" cy="380.71" filter="url(#SvgjsFilter1039)" fill="rgba(59, 130, 246, 0.7)"></circle><circle r="10.12" cx="1099.6499999999999" cy="821.75" filter="url(#SvgjsFilter1039)" fill="rgba(59, 130, 246, 0.7)"></circle><circle r="13.055" cx="758.2049999999999" cy="285.46500000000003" filter="url(#SvgjsFilter1039)" fill="rgba(59, 130, 246, 0.7)"></circle><circle r="15.045" cx="1487.555" cy="643.995" filter="url(#SvgjsFilter1039)" fill="rgba(59, 130, 246, 0.7)"></circle><path d="M748 722.6L812.8 749.3 836.3 807.1 774.4 798.7 732.5 742.6C732.5 742.6 731.8 742 731.8 742 730.5 741 728.1 741.3 726.4 742.1 724.2 743.6 724 746.6 726 748.2L762.8 797.1 732.8 793.1 716.3 771.7C716.3 771.7 715.6 771.2 715.6 771.2 714.3 770.1 711.9 770.4 710.2 771.2 708 772.7 707.8 775.8 709.8 777.3L720.7 792.2 698.6 789C696.7 788.6 694 790.7 693.6 792.6 692.7 795.1 695.4 797.2 697.3 797.5L719.3 800.8 704.5 811.7C702.2 813.2 702 816.2 704 817.8 705.5 820 708.5 820.2 710.1 818.2L731.5 801.7 761 806.4 712 843.2C709.8 844.7 709.6 847.7 711.6 849.3 713.1 851.5 716.1 851.7 717.7 849.7L773.8 807.8 835.6 816.2 796.8 866.3 726.9 875.1C724.5 875.4 723 877.4 723.3 879.7 723.5 882.1 725.6 883.7 727.9 883.4L789.5 875.6 770.9 899.6 744.8 902.9C742.5 903.2 740.9 905.2 741.2 907.6 741.5 909.9 743.5 911.5 745.9 911.2L763.6 909 749.1 927.6C746.9 929.1 747.9 932 749.9 933.6 751.9 935.1 754.3 934.8 755.8 932.8L769.3 915.5 771.5 933.2C771.8 935.6 773.8 937.2 776.2 936.9S780.1 934.6 779.8 932.2L776.5 906.1 795.2 882.1 802.9 943.7C803.2 946.1 805.2 947.7 807.6 947.4 810 947.1 811.5 945.1 811.2 942.7L802.4 872.8 840.7 823.4 864.3 881.3 837.9 944.2C837 946.7 838.5 948.9 840.5 950.4 843 951.3 845.2 949.8 846.8 947.8L870.3 891.3 881.7 919.4 871 944.2C870.1 946.7 871.6 948.9 873.6 950.5 876.1 951.4 878.3 949.9 879.4 948.6L886.2 931.4 894.8 952C895.7 953.7 898.3 955.8 900.5 954.3 902.8 952.8 904.3 950.8 902.8 948.6L894.2 928 911.3 934.9C913.9 935.8 916.1 934.3 917.1 933 917.5 931.1 917.2 928.8 915.9 927.7 915.9 927.7 915.2 927.2 915.2 927.2L890.4 916.5 879 888.4 935.5 912C938.1 912.9 940.3 911.4 941.3 910.1 941.7 908.2 941.4 905.9 940.1 904.8 940.1 904.8 939.4 904.3 939.4 904.3L874.6 877.5 851.1 819.7 913 828.2 954.9 884.3C956.4 886.5 959.4 886.7 961 884.7 963.2 883.2 963.4 880.2 961.4 878.7L924.6 829.7 954.6 833.8 971.1 855.2C972.6 857.4 975.6 857.6 977.2 855.6 979.4 854.1 979.6 851.1 977.6 849.5L966.7 834.7 988.8 837.9C990.7 838.3 993.4 836.1 993.8 834.3 994.1 832.4 993.3 830.7 992 829.7 991.3 829.2 990.7 828.6 989.5 828.8L967.4 825.5 982.3 814.7C984.5 813.2 984.7 810.1 982.7 808.6 982.7 808.6 982 808.1 982 808.1 980.7 807 978.3 807.3 976.6 808.1L955.2 824.7 925.2 820.6 974.2 783.8C976.4 782.3 976.6 779.3 974.6 777.7 974.6 777.7 973.9 777.2 973.9 777.2 972.6 776.1 970.2 776.4 968.5 777.3L912.4 819.2 850.6 810.8 888.9 761.4 958.8 752.6C961.2 752.3 962.7 750.3 962.4 747.9 962.1 745.6 960.1 744 957.8 744.3L896.7 751.4 915.3 727.4 941.4 724.1C943.8 723.8 945.3 721.8 945 719.4S942.7 715.5 940.3 715.8L922.6 718 936 700.7C937.6 698.7 937.3 696.3 935.3 694.8 933.3 693.2 930.9 693.5 929.4 695.5L915.9 712.9 913.7 695.1C913.5 693.9 913.4 692.7 912 691.7S909.5 690.8 908.3 690.9C906 691.2 904.4 693.2 904.7 695.6L908 721.7 889.3 745.7 881.6 684.1C881.4 682.9 881.3 681.7 880 680.7 879.3 680.2 877.4 679.8 876.3 679.9 873.9 680.2 872.3 682.2 872.6 684.6L881.4 754.5 843.1 803.9 819.6 746 846.3 681.3C846.7 679.4 846.4 677.1 845.1 676 845.1 676 844.4 675.5 844.4 675.5 841.9 674.6 839.7 676.1 838.6 677.5L815 734 803.7 705.9 814.4 681.1C814.8 679.2 814.5 676.9 813.2 675.8 813.2 675.8 812.5 675.3 812.5 675.3 810 674.4 807.7 675.9 806.7 677.3L799.8 694.4 791.2 673.8C790.6 673.3 790.4 672.1 789.7 671.6 788.4 670.5 786.6 670.2 784.9 671 782.6 672.5 781.1 674.5 782.6 676.7L791.2 697.3 774.1 690.4C771.5 689.5 769.3 691 768.3 692.3 767.4 694.8 768.9 697.1 770.2 698.1L795 708.8 806.4 736.9 749.9 713.3C747.3 712.4 745.1 713.9 744.1 715.2 744.5 718.8 745.5 721.7 748 722.6Z" fill="rgba(59, 130, 246, 0.7)"></path><path d="M288.6 1024.5L300.3 1010.2 304.6 1020.5C305 1021.6 306.5 1022.4 308.1 1022.1 309.3 1021.2 310.1 1019.7 309.2 1018.5L304.2 1005.5 312.9 994 323.2 1021.1C324.1 1022.3 325.6 1023.1 326.7 1022.7 328.5 1021.9 329.2 1020.4 328.3 1019.2L316.8 989.2 330.6 972.1 337 996.5 350.4 975 358.6 995.4 338.8 1020.8C338.2 1020.7 338.2 1021.2 338.1 1021.7 337.9 1022.8 338.3 1023.9 339.3 1024.6 340.2 1025.3 341.9 1025 343.1 1024.1L360.9 1001.1 365.8 1014.7 357.2 1025.7C356.6 1026.1 356.6 1026.6 356.5 1027.2 356.4 1027.7 356.8 1028.8 357.7 1029.5 358.7 1030.2 360.3 1029.9 361 1028.9L368.2 1020.4 375.2 1037.4C375.5 1039.1 377.1 1039.3 378.7 1039 379.8 1038.7 380.6 1037.2 379.8 1035.4L373.3 1018.5 384.2 1020.1C385.8 1020.3 387.1 1018.9 387.2 1017.9 387.5 1016.3 386.6 1015.1 385 1014.9L370.9 1012.8 366 999.2 394.2 1003.4C395.7 1003.7 396.9 1002.8 397.2 1001.2 397.3 1000.2 396.5 998.5 395 998.2L363.6 993.5 355.5 973.1 379.6 979.4 368 957.4 389.9 960.6 401.5 990.1C402.3 991.8 403.9 992.1 405 991.7 406.1 991.3 406.9 989.9 406.6 988.2L395.6 961.5 409.7 963.6 415.3 976.7C415.5 978.3 417 979.1 418.7 978.3 419.9 977.9 420.6 976.4 419.8 974.7L416 964.5 434.3 967.3C435.8 967.5 437 966.6 437.3 965.1S436.6 962.3 435.1 962.1L416.8 959.3 423.4 950.7C424.7 949.3 424.4 947.7 423.4 947 422 945.7 420.4 946 419.6 947.5L410.5 958.4 396.4 956.3 414.7 933.9C415.5 932.4 415.2 930.8 414.2 930.1 412.8 928.8 411.2 929.1 410.4 930.6L390.7 955.4 368.8 952.1 386.3 934.5 361.4 933.4 375.2 916.3 406.5 921C408.1 921.2 409.3 919.8 409.5 918.7 409.7 917.2 408.9 916 407.3 915.7L378.6 911.5 387.8 900 401.8 902.1C403.4 902.4 404.6 901.5 404.8 899.9 405 898.9 404.2 897.1 402.6 896.9L391.7 895.3 402.9 880.9C404.2 879.5 403.9 877.9 402.4 877.1 401.4 876.4 399.9 876.2 399.1 877.7L387.4 892 383 881.7C382.7 880.6 381.2 879.8 380 880.2 378.9 880.6 378.2 881.5 378.2 882 378.1 882.6 378 883.1 378.5 883.7L383.4 896.7 374.8 908.2 364.4 881.1C363.6 879.9 362.1 879.1 360.9 879.5 359.8 879.8 359.1 880.8 359 881.8 358.9 882.4 358.9 882.4 359.4 883L370.9 913 357.1 930.1 350.6 905.7 337.3 927.2 329.1 906.7 348.9 881.4C349.6 880.4 349.8 878.9 348.4 877.6 347.5 876.9 345.8 877.2 344.6 878.1L326.8 901 321.9 887.5 330.4 876.5C331.6 875.6 331.3 874 329.9 872.7 329 872 327.3 872.3 326.1 873.2L319.5 881.8 312.4 864.8C312.2 863.1 310.6 862.9 308.9 863.2 308.3 863.6 307.7 864.6 307.6 865.1 307.5 865.6 307.4 866.1 307.9 866.7L314.4 883.7 303.5 882.1C301.9 881.9 300.6 883.3 300.5 884.3L300.5 884.3C300.2 885.9 301.1 887.1 302.7 887.3L316.8 889.4 321.7 903 293.5 898.7C291.9 898.5 290.7 899.4 290.5 901S291.1 903.7 292.7 904L324 908.6 332.2 929.1 308 922.8 319.7 944.8 297.8 941.5 286.2 912.1C285.4 910.3 283.8 910.1 282.7 910.5 281.5 910.8 280.8 912.3 281.1 914L291.5 940.6 277.9 938.6 272.4 925.5C272.1 923.8 270.6 923.1 268.9 923.9 267.8 924.3 267 925.7 267.3 927.4L271.7 937.6 253.4 934.9C251.8 934.7 250.6 935.6 250.4 937.1S251.1 939.9 252.6 940.1L270.9 942.9 264.3 951.5C263.7 951.9 263.6 952.4 263.5 953 263.4 954 263.8 954.6 264.2 955.2 265.7 956.5 267.3 956.2 268.1 954.7L277.2 943.8 291.2 945.9 273 968.2C272.9 968.8 272.8 969.3 272.7 969.8 272.6 970.9 273 971.5 273.5 972.1 274.9 973.3 276.5 973 277.3 971.6L297 946.8 318.9 950 301.3 967.7 326.3 968.7 312.5 985.9 281.2 981.2C279.6 981 278.3 982.4 278.2 983.4 277.9 985 278.8 986.2 280.4 986.4L308.6 990.6 299.9 1002.2 285.8 1000.1C284.3 999.8 283.1 1000.7 282.8 1002.3S283.5 1005 285 1005.3L296 1006.9 284.8 1021.2C284.2 1021.7 284.1 1022.2 284 1022.7 284 1023.3 284.3 1024.4 285.3 1025.1 286.3 1025.7 287.8 1026 288.6 1024.5ZM313.2 963.1L327.7 948.7 318.1 930.7 338.1 935.8 348.7 918.7 354.3 938.2 374.4 939.1 360 953.5 369.6 971.5 350.1 966.4 339 983.5 333.9 964 313.2 963.1Z" fill="rgba(59, 130, 246, 0.7)"></path><path d="M1454.5 647L1397.9 610.6 1393.2 586.4 1412.2 598.8C1413.9 600.6 1416.4 599.6 1418.3 597.9 1419 596.1 1418.5 593.1 1416.8 592.4L1390.8 574.9 1385.5 551.3 1408.4 559.1 1422.4 587.3C1422.4 587.3 1423 588 1423 588 1424.1 589.2 1426.5 589.4 1428.3 588.8 1430.2 587.2 1430.9 585.4 1429.8 583L1419.5 562.7 1442.4 570.5 1473.4 630.1C1473.4 630.1 1473.3 631.3 1473.3 631.3 1474.4 632.5 1476.8 632.7 1478.6 632.2 1481.1 631.1 1481.8 628.2 1480.2 626.3L1453.6 574 1481.9 582.7 1493.8 606.1C1493.8 606.1 1493.8 606.1 1494.3 606.7 1495.5 608 1497.2 608.6 1499 608.1 1500.9 606.4 1502.3 604.1 1501.2 601.7L1493 586.3 1513.6 592.8C1515.9 594.1 1517.8 592.4 1518.5 590.6 1519.8 588.3 1518.8 585.9 1515.8 585.1L1495.9 578.1 1511.2 571.1C1513.1 569.4 1514.4 567.1 1512.7 565.2 1511.6 562.8 1509.9 562.1 1507.4 563.1L1484.1 575.1 1456.4 565.8 1509.3 538.7C1511.1 538.2 1511.9 535.3 1510.8 532.8 1509.7 531.6 1507.4 530.2 1504.9 531.3L1445.3 562.2 1422.4 554.5 1442.6 544.2C1445.1 543.1 1445.2 540.7 1444.1 538.3 1443.6 536.4 1440.7 535.7 1438.9 536.2L1411.2 550.9 1387.7 543.6 1405.9 527.3 1436.9 528.9C1439.3 529 1441.1 527.3 1441.3 525 1442 523.2 1439.7 520.7 1437.3 520.6L1414.7 519.4 1432.9 503 1500.2 507.1C1502.6 507.3 1504.5 505.6 1504.6 503.2 1504.7 500.8 1503 498.9 1500.7 498.8L1441.7 495.1 1463 475.9 1489.2 477.3C1491.6 477.4 1493.5 475.7 1493.6 473.3 1493.8 470.9 1492.1 469 1489.7 468.9L1472.4 467.4 1488.1 453.3C1490 451.6 1490.1 449.2 1488.4 447.3 1486.7 445.4 1484.3 445.3 1482.5 447L1466.8 461.1 1467.7 444.4C1467.8 442 1466.1 440.2 1463.7 440S1459.4 441.6 1459.3 444L1458 469 1436 488.8 1439.1 430.4C1439.2 428 1437.5 426.1 1435.1 426 1432.8 425.8 1430.9 427.5 1430.7 429.9L1427.2 496.7 1409 513.1 1410.2 490.4C1410.3 488 1408.6 486.2 1406.3 486 1403.9 485.9 1402 487.6 1401.9 490L1400.2 521 1382.6 536.8 1377.9 513.8 1394.8 487.2C1395.5 485.5 1395.1 482.4 1393.3 481.8 1391 480.4 1389.2 480.9 1387.3 482.6L1374.9 501.7 1370.2 478.7 1406.6 422.1C1408 419.7 1407.5 417.9 1405.8 416 1403.5 414.7 1401 415.8 1399.7 416.9L1367.2 466.6 1361.6 437.6 1375.3 416.2C1377.2 414.5 1376.1 412.1 1374.4 410.2 1372.6 409.5 1369.6 409.9 1368.3 412.3L1359.2 426.1 1354.3 405.5C1354.4 403.2 1352.1 401.8 1349.1 402.3 1347.3 402.8 1346 405.1 1346.5 406.9L1350.7 428.1 1336.3 418.3C1334 417 1331.5 418.1 1330.8 419.9 1328.9 421.5 1329.4 423.4 1330.6 424.6 1331.1 425.2 1331.1 425.2 1331.7 425.9L1353.1 439.6 1358.7 468.6 1309.6 436.7C1307.9 434.8 1305.5 435.8 1303.6 437.5 1302.9 439.3 1303.4 441.1 1304.5 442.4 1305.1 443 1305.1 443 1305.1 443L1361.7 480.7 1366.5 503.7 1347.4 491.3C1345.1 490 1343.2 490.5 1341.4 492.2 1340.7 493.9 1340.5 496.3 1341.7 497.6 1342.2 498.2 1342.2 498.2 1342.8 498.8L1369.4 515.8 1374.2 538.7 1351.8 531.6 1337.1 503.9C1336.1 501.5 1333.1 500.7 1331.3 501.2 1329.4 502.9 1328.1 505.2 1329.8 507.1L1340.1 527.4 1317.1 520.8 1286.3 459.9C1285.7 458.1 1282.8 457.4 1281 457.9 1279.1 459.6 1277.8 461.9 1278.8 464.3L1305.4 516.6 1277.8 507.3 1266.4 484.6C1265.3 482.2 1262.4 481.4 1260.5 483.1 1258.7 483.6 1257.4 485.9 1258.4 488.4L1266.6 503.8 1246 497.3C1244.2 496.6 1241.8 497.7 1240.5 500 1240.4 501.2 1240.9 503 1242 504.2 1242 504.2 1242.6 504.9 1243.2 505.5L1263.8 512 1248.4 520.1C1246.6 520.6 1245.8 523.6 1246.3 525.4 1246.9 526 1246.9 526 1246.9 526 1248.6 527.9 1251 528 1252.2 526.9L1274.9 515.6 1303.2 524.2 1250.3 551.3C1248.4 553 1247.7 554.8 1248.8 557.2 1248.8 557.2 1249.4 557.9 1249.4 557.9 1250.5 559.1 1252.3 559.8 1254.7 558.7L1314.9 528.4 1337.3 535.6 1317 545.9C1315.1 547.6 1313.8 549.9 1315.5 551.8 1314.8 552.3 1315.4 553 1315.4 553 1316.5 554.2 1318.9 554.4 1320.7 553.9L1348.4 539.2 1371.3 547 1353.8 562.8 1322.8 561.1C1320.4 561 1317.9 563.3 1317.7 565.7 1318.2 567.5 1319.9 569.4 1321.7 570.1L1345 570.7 1326.8 587.1 1260 583.5C1257.6 583.4 1255.7 585.1 1255.6 587.5 1255.5 589.9 1257.2 591.7 1259.5 591.9L1318 595 1296 614.7 1271 613.4C1268.6 613.3 1266.7 615 1266.6 617.4S1268.1 621.6 1270.5 621.8L1287.2 622.6 1271.5 636.8C1269.6 638.5 1269.5 640.8 1271.2 642.7 1272.9 644.6 1275.3 644.7 1277.2 643L1292.9 628.9 1292.5 646.2C1292.5 647.4 1292.4 648.6 1293 649.3 1293.5 649.9 1295.3 650.6 1296.5 650.6 1298.9 650.8 1300.8 649.1 1300.9 646.7L1301.6 621 1323.6 601.2 1321.1 660.3C1321 661.5 1321 662.7 1321.5 663.3 1322.1 663.9 1323.8 664.6 1325 664.7 1327.4 664.8 1329.3 663.1 1329.4 660.8L1332.4 593.3 1350.6 577 1348.8 600.2C1348.7 601.4 1349.9 602.6 1350.4 603.3 1351 603.9 1351.5 604.5 1352.7 604.6 1355.1 604.7 1357.6 602.4 1357.1 600.6L1359.4 569.1 1377 553.2 1382.3 576.8 1364.8 602.8C1364.1 604.6 1364 607 1365.1 608.2 1365.7 608.9 1365.7 608.9 1366.3 608.3 1368 610.2 1371 609.7 1372.3 607.4L1384.7 588.3 1390 611.9 1352.3 668.5C1351.7 670.3 1352.2 672.1 1353.3 673.4 1353.8 674 1353.8 674 1353.8 674 1356.2 675.3 1358.6 675.4 1359.9 673.1L1392.4 623.4 1398 652.4 1384.4 673.8C1383 676.1 1383.5 678 1384.7 679.2 1384.7 679.2 1385.2 679.8 1385.2 679.8 1387.6 681.2 1390 680.1 1391.3 679L1400.4 663.9 1404.7 685.1C1405.3 685.7 1405.8 686.3 1406.4 686.9 1406.9 687.6 1408.7 688.3 1409.9 688.3 1412.3 687.3 1414.2 685.6 1413.2 683.1L1408.9 662 1423.3 671.7C1425.7 673 1428.1 672 1429.4 670.8 1430.7 668.5 1429.6 666.1 1427.9 664.2L1406.5 650.5 1400.3 622 1449.4 653.9C1451.7 655.3 1454.7 654.8 1455.4 653.1 1456.7 650.7 1456.9 648.4 1454.5 647Z" fill="rgba(59, 130, 246, 0.7)"></path><path d="M1365.6 840.5L1376.9 830.9 1378.8 839.6C1378.9 840.6 1380 841.4 1381.3 841.4 1382.4 840.9 1383.2 839.8 1382.7 838.7L1380.6 827.8 1389.1 820 1393.3 842.8C1393.8 843.9 1394.9 844.7 1395.8 844.6 1397.3 844.2 1398.1 843.1 1397.6 842.1L1392.9 816.8 1406.2 805.3 1407.8 825.5 1421.4 810.5 1424.8 827.7 1405.6 844.8C1405.2 844.7 1405 845.1 1404.9 845.5 1404.6 846.3 1404.8 847.2 1405.4 847.9 1406.1 848.5 1407.4 848.5 1408.5 848L1425.9 832.5 1427.8 843.9 1419.4 851.3C1418.9 851.6 1418.7 852 1418.6 852.4 1418.5 852.8 1418.6 853.7 1419.3 854.4 1419.9 855.1 1421.3 855.1 1421.9 854.4L1428.8 848.7 1431.9 863.2C1431.9 864.5 1433.1 864.9 1434.4 864.9 1435.3 864.8 1436.1 863.7 1435.7 862.3L1433.1 848 1441.5 850.8C1442.6 851.3 1443.9 850.3 1444.1 849.5 1444.5 848.3 1444 847.3 1442.8 846.8L1432 843.2 1430.1 831.8 1451.7 839.2C1452.9 839.6 1454 839.1 1454.4 837.9 1454.7 837.1 1454.3 835.6 1453.1 835.2L1429.1 827 1425.6 809.7 1443.7 818.1 1437.7 799.1 1454.5 804.9 1459.4 829.8C1459.8 831.2 1461 831.6 1461.9 831.5 1462.8 831.4 1463.7 830.3 1463.7 829L1458.9 806.4 1469.7 810.1 1472.1 821.2C1472.1 822.5 1473.2 823.3 1474.7 822.9 1475.6 822.8 1476.4 821.8 1476 820.3L1474.5 811.7 1488.5 816.5C1489.7 816.9 1490.7 816.4 1491.2 815.2S1491 812.9 1489.8 812.5L1475.9 807.7 1482.3 801.9C1483.5 801 1483.5 799.7 1482.9 799 1482 797.8 1480.6 797.8 1479.8 798.8L1471.1 806.1 1460.3 802.4 1477.9 787.5C1478.7 786.4 1478.7 785.1 1478.1 784.4 1477.1 783.2 1475.8 783.2 1475 784.2L1455.9 800.9 1439.1 795.1 1455.5 783.8 1436 779.4 1449.4 767.9 1473.3 776.1C1474.5 776.5 1475.7 775.6 1476 774.8 1476.4 773.6 1475.9 772.5 1474.7 772.1L1452.7 764.5 1461.6 756.9 1472.4 760.6C1473.6 761 1474.7 760.5 1475.1 759.3 1475.3 758.5 1475 757 1473.8 756.6L1465.4 753.7 1476.3 744.1C1477.5 743.1 1477.5 741.8 1476.4 741 1475.8 740.3 1474.6 739.9 1473.8 741L1462.5 750.5 1460.5 741.8C1460.4 740.8 1459.3 740 1458.4 740.2 1457.5 740.3 1456.8 740.9 1456.7 741.3 1456.5 741.7 1456.4 742.1 1456.7 742.7L1458.7 753.6 1450.2 761.5 1446 738.6C1445.5 737.5 1444.4 736.7 1443.5 736.8 1442.5 737 1441.9 737.6 1441.6 738.4 1441.5 738.8 1441.5 738.8 1441.7 739.4L1446.5 764.6 1433.1 776.1 1431.6 756 1418 770.9 1414.5 753.7 1433.7 736.6C1434.4 736 1434.8 734.8 1433.9 733.5 1433.2 732.9 1431.9 732.9 1430.8 733.4L1413.5 748.9 1411.6 737.5 1419.9 730.1C1421 729.6 1421 728.2 1420.1 727 1419.4 726.3 1418.1 726.3 1417 726.9L1410.5 732.7 1407.5 718.2C1407.5 716.9 1406.3 716.5 1404.9 716.5 1404.4 716.7 1403.7 717.4 1403.6 717.8 1403.5 718.2 1403.3 718.6 1403.6 719.1L1406.3 733.4 1397.9 730.6C1396.7 730.2 1395.5 731.1 1395.2 731.9L1395.2 731.9C1394.8 733.1 1395.3 734.2 1396.5 734.6L1407.3 738.3 1409.2 749.6 1387.6 742.2C1386.4 741.8 1385.4 742.3 1384.9 743.5S1385.1 745.8 1386.3 746.2L1410.2 754.4 1413.7 771.7 1395.6 763.3 1401.6 782.3 1384.8 776.5 1379.9 751.6C1379.5 750.2 1378.3 749.8 1377.4 749.9 1376.5 750 1375.7 751.1 1375.7 752.4L1380 774.9 1369.6 771.3 1367.2 760.2C1367.2 758.9 1366.1 758.1 1364.7 758.5 1363.7 758.6 1362.9 759.6 1362.9 761L1364.8 769.7 1350.8 764.9C1349.7 764.5 1348.6 765 1348.2 766.2S1348.3 768.5 1349.5 768.9L1363.5 773.7 1357 779.5C1356.5 779.8 1356.3 780.2 1356.2 780.6 1355.9 781.4 1356.2 781.9 1356.4 782.4 1357.4 783.6 1358.7 783.6 1359.5 782.6L1368.3 775.3 1379 779 1361.4 794C1361.3 794.3 1361.1 794.7 1361 795.1 1360.7 795.9 1361 796.5 1361.3 797 1362.2 798.2 1363.5 798.2 1364.3 797.2L1383.4 780.5 1400.2 786.3 1383.8 797.6 1403.3 802 1390 813.6 1366 805.3C1364.8 804.9 1363.6 805.9 1363.3 806.7 1362.9 807.8 1363.4 808.9 1364.6 809.3L1386.2 816.7 1377.7 824.5 1366.9 820.8C1365.7 820.4 1364.7 820.9 1364.3 822.1S1364.4 824.4 1365.6 824.8L1374 827.7 1363.1 837.4C1362.5 837.6 1362.4 838 1362.2 838.4 1362.1 838.8 1362.2 839.8 1362.9 840.4 1363.6 841.1 1364.8 841.5 1365.6 840.5ZM1393.8 795.7L1407.3 786.5 1402.3 770.9 1417.4 777.9 1428.1 765.9 1429.7 782.1 1445.5 785.7 1432 794.9 1437 810.5 1422.4 803.7 1411.2 815.5 1410 799.4 1393.8 795.7Z" fill="rgba(59, 130, 246, 0.7)"></path><path d="M516.6 753.6L513 724.2 529.7 730.5C531.4 731.3 533.9 730.4 535.4 728.2 535.7 725.9 534.8 723.3 532.4 723L511.9 714.4 508.1 691.7 551 709.7C553.3 710 555.8 709.1 556.7 707.4 557.6 704.5 556.7 702 554.4 701.7L506.9 681.9 502.2 647.1 537.7 666.5 527.5 627.3 560.2 640.5 567.7 691.3C567 691.9 567.5 692.5 568.1 693.2 569.1 694.5 570.8 695.3 572.7 695 574.5 694.6 576 692.4 576.3 690L569.4 644 590.5 653.3 593.8 675.3C593.6 676.5 594.1 677.2 594.7 677.9 595.2 678.5 596.9 679.3 598.7 679 600.6 678.6 602.1 676.4 601.7 674.5L599.7 656.8 627.2 667.5C629.5 669 631.5 667.4 632.9 665.2 633.8 663.5 632.9 661 630 660L603.1 648.8 617.1 637.9C619.1 636.4 618.9 633.3 617.8 632 616.3 630 613.9 629.7 611.9 631.3L593.9 645.3 572.8 636 608.8 608C610.8 606.5 611.1 604.1 609.5 602.1 608.5 600.8 605.6 599.8 603.6 601.3L563.6 632.5 531 619.4 564.9 598.3 526.5 587.5 554.5 565.7 601.5 584.8C604.3 585.8 606.3 584.2 607.2 582.5 608 580.8 607.1 578.3 604.9 576.8L561.8 560 579.8 546 601.1 554.1C603.3 555.6 605.8 554.7 606.8 551.8 607.6 550.1 606.7 547.6 603.8 546.6L587.8 539.8 611.2 521.7C613.2 520.1 613.4 517.7 611.9 515.7S608 513.4 606 515L582.6 533.1 580 516C579.7 512.9 577.5 511.4 575.7 511.8 572.6 512 571.2 514.3 572 516.8L574.6 539.4 556.6 553.4 550.9 507.5C550 505 547.8 503.5 546 503.9 542.9 504.1 541.5 506.3 542.3 508.8L549.3 559.1 521.3 580.8 520.3 541 491.5 568.7 486.9 533.8 526.9 502.7C528.9 501.1 528.6 498.1 527.6 496.8 526.1 494.8 523.7 494.5 521.7 496L485 524.6 481.9 501.3 499.9 487.3C501.9 485.7 502.2 483.4 500.6 481.4 499.6 480 496.7 479.1 494.7 480.6L480.7 491.5 476.5 462.7C476.3 459.7 474.1 458.2 471.5 459.1 469.7 459.5 467.7 461 468.6 463.5L472.1 492.9 455.5 486.6C453.8 485.7 451.2 486.6 450.4 488.3 449.6 490 450 491.9 450.5 492.6 451 493.2 451.5 493.9 452.7 494L473.3 502.6 477.1 525.4 434.2 507.4C431.8 507.1 429.3 508 428.5 509.7 427.7 511.4 428.1 513.2 429.1 514.6 429.6 515.2 429.6 515.2 430.8 515.4L478.3 535.1 483 570 447.5 550.6 457.6 589.7 425 576.6 417.5 525.7C417.1 523.9 415.6 521.9 412.5 522.1 410.7 522.5 409.2 524.7 408.9 527.1L415.8 573.1 394.7 563.8 391.4 541.7C391.7 539.4 389.5 537.9 386.4 538.1 384.6 538.5 383.1 540.7 382.8 543.1L385.5 560.3 357.9 549.6C355.7 548.1 353.7 549.7 352.2 551.9 352.1 553.1 352.5 554.9 353 555.6 353.5 556.3 354 556.9 355.2 557.1L382.1 568.3 368.1 579.1C366.1 580.7 366.3 583.7 367.3 585.1L367.3 585.1C368.9 587.1 371.3 587.4 373.3 585.8L391.3 571.8 412.4 581.1 376.4 609.1C374.4 610.6 374.1 613 375.6 615S379.6 617.3 381.6 615.7L421.6 584.6 454.2 597.7 420.3 618.8 458.7 629.6 430.7 651.4 383.7 632.3C380.8 631.3 378.8 632.8 378 634.5 377.2 636.3 378.1 638.8 380.3 640.2L422.7 657.6 405.3 671.1 384.1 663C381.9 661.5 379.3 662.4 378.4 665.3 377.6 667 378.5 669.5 380.7 671L397.3 677.3 374 695.4C372 697 371.7 699.4 373.3 701.4S377.2 703.6 379.2 702.1L402.5 683.9 405.2 701.1C405.1 702.3 405.6 703 406.1 703.6 407.1 705 408.3 705.1 409.5 705.3 412.5 705.1 414 702.8 413.1 700.3L410.5 677.7 428.5 663.7 434.2 709.6C434.8 710.2 435.3 710.9 435.8 711.6 436.8 712.9 438 713 439.2 713.2 442.2 713 443.7 710.8 442.8 708.2L435.9 658 463.9 636.2 464.9 676.1 493.6 648.4 498.3 683.3 458.3 714.4C456.3 715.9 456.5 719 457.6 720.3 459.1 722.3 461.5 722.6 463.5 721L499.5 693 503.3 715.8 485.3 729.8C483.3 731.3 483 733.7 484.5 735.7S488.4 738 490.4 736.4L504.4 725.6 508.7 754.4C508.5 755.6 509 756.2 509.6 756.9 510.1 757.6 511.8 758.4 513.6 758 515.5 757.6 517.5 756.1 516.6 753.6ZM472.7 657.2L471.9 624.6 440.5 615.9 468.6 598.3 460.4 567.2 489.3 582.2 512.5 559.9 513.2 592.5 544.7 601.2 517.2 618.2 524.7 649.9 496.6 634.3 472.7 657.2Z" fill="rgba(59, 130, 246, 0.7)"></path><path d="M1713.2 964.2L1741.3 955.1 1738.3 972.7C1737.8 974.5 1739.2 976.8 1741.6 977.8 1744 977.7 1746.3 976.3 1746.2 973.9L1750.7 952.1 1772.3 944.1 1762.8 989.6C1762.9 992 1764.3 994.3 1766.1 994.8 1769.1 995.2 1771.4 993.8 1771.3 991.4L1781.7 941.1 1815 929.9 1802.6 968.4 1839.2 951 1832.5 985.6 1784 1002.6C1783.3 1002 1782.8 1002.6 1782.2 1003.3 1781.1 1004.5 1780.6 1006.4 1781.3 1008.1 1782.1 1009.9 1784.5 1010.9 1786.9 1010.7L1830.8 995.3 1825.7 1017.7 1804.6 1025.1C1803.4 1025.2 1802.9 1025.8 1802.3 1026.5 1801.8 1027.1 1801.3 1028.9 1802 1030.7 1802.7 1032.4 1805.2 1033.5 1806.9 1032.7L1823.9 1027.4 1818.7 1056.5C1817.6 1059 1819.5 1060.6 1822 1061.7 1823.8 1062.1 1826.1 1060.8 1826.5 1057.8L1832.4 1029.3 1845.8 1040.9C1847.7 1042.6 1850.6 1041.8 1851.7 1040.5 1853.4 1038.6 1853.2 1036.3 1851.3 1034.6L1834.2 1019.6 1839.3 997.1 1873.6 1027.1C1875.5 1028.8 1877.9 1028.6 1879.5 1026.7 1880.6 1025.5 1881 1022.4 1879.1 1020.8L1841 987.4 1847.7 952.8 1874.8 982.2 1878.1 942.4 1904.8 965.8 1894.9 1015.5C1894.5 1018.6 1896.4 1020.2 1898.3 1020.7 1900.1 1021.2 1902.4 1019.8 1903.4 1017.4L1911.8 971.9 1928.9 986.9 1925 1009.3C1924 1011.8 1925.4 1014.1 1928.4 1014.5 1930.2 1015 1932.5 1013.6 1932.9 1010.6L1936.6 993.6 1958.8 1013.1C1960.7 1014.8 1963.1 1014.6 1964.8 1012.7S1966.3 1008.4 1964.4 1006.7L1942.1 987.3 1958.5 981.4C1961.4 980.6 1962.5 978.1 1961.8 976.4 1961 973.4 1958.5 972.4 1956.2 973.8L1934.5 980.6 1917.3 965.6 1961.3 951.3C1963.6 949.9 1964.6 947.5 1963.9 945.7 1963.1 942.8 1960.6 941.7 1958.3 943.1L1910.4 959.5 1883.7 936.1 1922.6 927.5 1890 904.6 1923.3 893.4 1961.4 926.7C1963.4 928.4 1966.3 927.6 1967.4 926.3 1969.1 924.4 1968.9 922.1 1967 920.4L1932.1 889.8 1954.3 882.3 1971.5 897.3C1973.4 899 1975.8 898.9 1977.4 897 1978.5 895.7 1978.9 892.7 1977 891L1963.7 879.3 1991.2 869.7C1994.1 868.9 1995.1 866.5 1993.8 864.1 1993.1 862.4 1991.2 860.7 1988.9 862.1L1960.7 871.1 1963.8 853.6C1964.2 851.7 1962.9 849.4 1961.1 849 1959.2 848.5 1957.5 849.2 1956.9 849.8 1956.4 850.5 1955.8 851.1 1955.9 852.3L1951.4 874.1 1929.8 882.2 1939.3 836.6C1939.1 834.3 1937.8 832 1936 831.5 1934.1 831 1932.4 831.7 1931.3 833 1930.7 833.6 1930.7 833.6 1930.8 834.8L1920.4 885.2 1887 896.4 1899.4 857.8 1862.9 875.2 1869.6 840.7 1918.1 823.7C1919.8 823 1921.5 821.1 1920.7 818.1 1920 816.4 1917.5 815.4 1915.2 815.5L1871.3 831 1876.4 808.5 1897.5 801.1C1899.8 801 1900.9 798.5 1900.1 795.6 1899.4 793.8 1896.9 792.8 1894.5 792.9L1878.1 798.8 1883.4 769.7C1884.4 767.3 1882.5 765.6 1880.1 764.6 1878.9 764.7 1877.1 765.4 1876.6 766 1876 766.6 1875.5 767.3 1875.5 768.5L1869.6 797 1856.3 785.3C1854.4 783.6 1851.5 784.4 1850.3 785.7L1850.3 785.7C1848.7 787.6 1848.8 790 1850.7 791.7L1867.9 806.7 1862.8 829.2 1828.5 799.1C1826.6 797.5 1824.2 797.6 1822.5 799.5S1821 803.8 1822.9 805.5L1861.1 838.9 1854.4 873.4 1827.3 844.1 1823.9 883.8 1797.3 860.4 1807.1 810.7C1807.5 807.7 1805.6 806 1803.8 805.6 1802 805.1 1799.7 806.4 1798.6 808.9L1789.6 853.8 1773.1 839.3 1777 816.9C1778.1 814.4 1776.7 812.1 1773.7 811.7 1771.9 811.3 1769.6 812.6 1768.5 815.1L1765.5 832.6 1743.3 813.2C1741.4 811.5 1739 811.7 1737.3 813.6S1735.8 817.8 1737.7 819.5L1759.9 839 1743.6 844.9C1742.4 844.9 1741.8 845.6 1741.3 846.2 1740.2 847.5 1740.2 848.7 1740.3 849.9 1741.1 852.8 1743.6 853.8 1745.9 852.5L1767.6 845.7 1784.7 860.7 1740.8 875C1740.2 875.6 1739.7 876.2 1739.1 876.9 1738 878.1 1738.1 879.3 1738.2 880.5 1738.9 883.5 1741.4 884.5 1743.7 883.1L1791.7 866.8 1818.4 890.2 1779.5 898.7 1812.1 921.7 1778.7 932.9 1740.6 899.5C1738.7 897.8 1735.8 898.6 1734.7 899.9 1733 901.8 1733.1 904.2 1735.1 905.9L1769.4 935.9 1747.8 943.9 1730.6 928.9C1728.7 927.2 1726.3 927.4 1724.6 929.3S1723.1 933.6 1725 935.3L1738.4 946.9 1710.9 956.5C1709.7 956.6 1709.1 957.3 1708.6 957.9 1708 958.5 1707.6 960.4 1708.3 962.1 1709 963.9 1710.9 965.5 1713.2 964.2ZM1799.5 902.8L1831.3 895.9 1834 863.4 1856.5 887.6 1885.5 873.7 1876.2 904.9 1902.6 923.5 1870.7 930.4 1868.1 962.9 1846.2 939.2 1816.5 952.5 1826.5 921.9 1799.5 902.8Z" fill="rgba(59, 130, 246, 0.7)"></path><path d="M1683 454.4L1679 438.3 1689.8 441C1690.9 441.4 1692.4 440.6 1693.2 439.1 1693.2 437.6 1692.4 436.2 1691.3 435.8L1677.2 432 1673.5 417 1702.2 425C1704.1 425.4 1705.6 424.6 1705.6 423.2 1706.3 421.7 1705.6 420.2 1703.7 419.8L1672 411.1 1668.4 397.6 1691.2 374.9 1703.2 378 1711.6 412C1712 412.4 1712.3 412.7 1712.7 413.1 1713.1 413.5 1714.2 413.9 1714.9 413.9 1716.8 413.5 1717.6 412 1716.8 410.5L1709.1 379.5 1723.7 383.7 1728.1 399.4C1727.7 399.7 1728.1 400.1 1728.4 400.5 1729.2 401.2 1730.3 401.6 1731.4 401.3 1732.5 400.9 1733.3 399.4 1733.3 397.9L1729.6 385.2 1747.9 390.1C1749 390.5 1750.5 389.8 1751.3 388.3 1751.3 386.8 1750.5 385.3 1749.4 384.9L1732.3 380.4 1740.1 372.6C1741.3 371.4 1740.9 369.6 1740.2 368.8 1739 367.7 1737.2 367.3 1736.1 368.4L1725.9 378.5 1711.4 374.3 1732.4 353.5C1733.5 352.4 1733.5 350.9 1732.4 349.8 1731.3 348.6 1729.8 348.6 1728.7 349.7L1705.4 372.8 1692.8 369.7 1684.7 338.3 1693.3 329.8 1725.7 338.5C1727.2 339.3 1729.1 338.2 1729.1 336.7 1729.9 335.2 1728.8 334.1 1727.3 333.3L1697.8 325.3 1708.7 314.6 1723.2 318.7C1724.3 319.1 1726.2 318 1726.6 316.9S1725.9 313.9 1724.4 313.1L1713.2 310.1 1726.3 297.1C1727.4 296 1727.1 294.1 1726 293 1725.2 292.3 1723.4 291.9 1722.2 293L1709.1 306 1705.8 294.4C1705.4 293.3 1704.3 292.2 1702.4 292.5 1701.3 292.9 1700.2 294.7 1700.6 295.9L1704.6 310.4 1693.7 321.2 1686 291.7C1685.3 290.2 1684.2 289.1 1682.3 289.4 1681.2 289.8 1680.1 291.7 1680.4 292.8L1689.2 325.7 1680.6 334.2 1649.3 325.9 1646.4 313.2 1669.6 290.1C1670.7 289 1670.8 287.5 1669.6 286.4 1668.5 285.3 1666.7 284.9 1665.5 286L1644.5 306.8 1640.5 292.2 1650.6 282.2C1651.7 281.1 1651.8 279.6 1650.6 278.5 1649.5 277.3 1648 277.3 1646.9 278.4L1639 286.2 1634.6 269.1C1634.3 267.9 1632.4 266.8 1631.3 267.2 1629.8 267.9 1628.7 269 1629.4 270.5L1633.8 288.5 1621.5 285C1620 285 1618.5 285.8 1618.1 286.9 1617.8 288 1618.1 289.1 1618.9 289.9 1618.9 289.9 1619.2 290.3 1620 290.3L1635.6 294.8 1639.7 309.4 1608.7 301.4C1607.2 300.7 1605.7 301.4 1605.4 303.3 1605.4 304 1605.4 304.8 1606.1 305.5 1606.5 305.9 1606.8 306.2 1607.2 306.6L1641.1 315.4 1644.1 327.3 1621.2 350 1607.8 346.2 1599.3 314.4C1599 312.6 1597.5 311.8 1596 312.5 1594.5 312.5 1593.7 314 1594.1 315.9L1601.8 344.7 1586.9 340.9 1583.2 326.7C1582.9 325.5 1581.4 324.8 1579.9 324.8 1578.4 325.5 1577.3 326.6 1578 328.1L1580.6 339 1564.5 334.8C1563.1 334 1561.9 335.1 1561.2 336.6 1561.2 337.4 1561.5 338.5 1562.3 339.3 1562.3 339.3 1562.7 339.6 1563 340L1580.2 344.6 1570.8 353.8C1570 354.6 1569.7 356.5 1570.8 357.6 1571.9 358.7 1573.8 358.3 1574.5 357.6L1586.1 346.1 1601 349.9 1578.2 372.5C1577 373.7 1577.4 375.5 1578.5 376.7S1581.1 377.8 1582.3 376.7L1607.4 351.8 1619.7 355.2 1627.7 386.6 1618 396.2 1585.2 387.1C1583.7 387.1 1582.2 387.9 1581.4 389.4 1581.4 390.1 1581.8 391.2 1582.6 392 1582.9 392.3 1583.3 392.7 1584 392.7L1613.5 400.7 1602.6 411.5 1587.7 407.7C1586.6 407.3 1585.1 408 1584.3 409.5 1584.3 411 1585.1 412.5 1586.2 412.9L1598.1 415.9 1586.1 427.8C1585.4 428.6 1585.4 430.8 1586.1 431.5 1587.2 432.7 1589.5 432.7 1590.2 431.9L1602.2 420.1 1604.8 431.6C1605.1 432 1605.5 432.4 1605.9 432.8 1606.6 433.5 1607.7 433.9 1608.5 433.9 1610 433.2 1610.7 431.7 1610.7 430.2L1606.7 415.6 1617.6 404.8 1625.3 434.3C1625.6 436.2 1627.1 437 1628.2 436.6 1630.1 436.2 1630.9 434.7 1630.9 433.3L1622.1 400.4 1631.8 390.7 1663.1 399.1 1666.4 411.4 1641.3 436.3C1640.2 437.4 1640.2 438.9 1641.3 440 1642.4 441.1 1643.9 441.1 1645 440L1667.9 417.4 1671.6 432.3 1659.9 443.8C1659.2 444.6 1659.2 446.8 1660.3 447.9 1661.4 449.1 1663.3 448.7 1664 448L1673.4 438.7 1677.8 455.9C1678.2 456.2 1678.2 456.2 1678.5 456.6 1679.3 457.4 1680.4 457.7 1681.1 457.7 1682.6 457 1683.4 455.5 1683 454.4ZM1636.3 386.3L1633 385.1 1632.2 382.1 1625.6 356.7 1624.9 353.7 1627.2 351.5 1645.5 333.3 1647.8 331.1 1650.8 331.8 1676.1 338.7 1679.1 339.4 1680.2 342.8 1686.4 367.8 1687.5 371.2 1685.3 373.4 1666.9 391.6 1664.7 393.9 1661.3 392.7 1636.3 386.3Z" fill="rgba(59, 130, 246, 0.7)"></path><path d="M300.6 160.3L307 203.6 283.5 234.7 268.2 198.8 284.9 158.3C284.9 158.3 285 157.8 285 157.8 285.1 156.8 284.2 155.6 283.2 154.9 281.7 154.2 280 155.1 279.8 156.6L265.3 192.1 257.9 174.7 264.1 159C264.1 159 264.2 158.5 264.2 158.5 264.3 157.4 263.4 156.2 262.4 155.6 260.9 154.9 259.2 155.7 259 157.3L254.5 167.9 249.2 155C248.8 153.9 246.7 153.1 245.6 153.5 244 153.9 243.7 156 244.1 157.1L249.5 169.9 238.8 165.5C237.3 164.7 235.6 165.6 235.4 167.2 234.7 168.7 235.6 170.4 237.1 170.6L252.9 176.7 259.8 194.1 224.3 179.6C222.8 178.9 221.1 179.8 220.9 181.3 220.2 182.9 221.1 184.6 222.6 184.7L263.1 201.4 278.4 237.3 239.1 232.5 212 197.8C211.1 196.6 209.5 196.4 208.3 197.3 207.2 198.3 207 199.8 207.9 201L231.8 231.6 212.9 229.3 202.8 216.3C201.9 215.2 200.3 215 199.2 215.9 198 216.8 197.8 218.4 198.7 219.6L205.6 228.4 190.9 226.6C189.4 225.9 188.2 227.3 188 228.9 187.8 230.5 188.7 231.6 190.3 231.8L203.9 233.5 195.1 240.4C193.9 241.3 193.7 242.9 194.6 244.1S197.1 245.4 198.3 244.5L211.3 234.4 230.1 236.7 199.5 260.6C198.4 261.5 198.2 263.1 199.1 264.3 200 265.5 201.6 265.6 202.8 264.7L237.4 237.6 276.2 242.3 252.7 273.5 210.5 279.5C208.9 279.8 208.2 281.3 208 282.9 208.3 284.5 209.8 285.3 211.4 285.5L249.3 280 237.9 295.1 221.1 297.3C219.5 297.6 218.7 299.1 218.6 300.7 218.9 302.3 220.4 303 221.4 303.2L232.8 301.4 224.5 312.6C223.9 313.6 223.6 315.7 225.1 316.4 226.6 317.1 228.2 317.3 228.9 315.8L237.2 304.6 239 316C239.3 317.6 240.9 318.3 241.9 318.4 243 318 244.2 317.1 244.3 316.1 244.3 316.1 244.4 315.5 244.4 315.5L242.2 298.8 253.6 283.7 259.1 321.6C259.4 323.2 260.9 324 262 324.1 263.1 323.7 264.2 322.8 264.4 321.7 264.4 321.7 264.4 321.2 264.4 321.2L258 277.9 281.5 246.7 296.8 282.6 280.1 323.1C279.4 324.6 280.3 326.3 281.9 326.5 283.4 327.2 285.1 326.4 285.3 324.8L299.7 289.4 307.1 306.7 301 322.5C300.2 324 301.1 325.7 302.7 325.9 304.2 326.6 305.9 325.7 306.1 324.2L310.6 313.5 315.9 326.4C316.3 327.5 318.3 328.3 319.4 327.9 320.5 327.5 321.2 326.5 321.3 325.5 321.4 325 321.5 324.5 321 323.9L315.7 311 326.3 315.5C327.8 316.2 329.5 315.3 329.7 313.8 329.7 313.8 329.7 313.2 329.7 313.2 329.9 312.2 329 311 328 310.4L312.2 304.2 304.8 286.8 340.3 301.2C341.8 301.9 343.5 301.1 343.7 299.5 343.7 299.5 343.7 299 343.7 299 343.8 297.9 342.9 296.8 341.9 296.1L301.4 279.5 286.2 243.6 324.9 248.3 352.1 283C353 284.2 354.5 284.4 355.7 283.5 356.9 282.5 357.1 281 356.2 279.8L332.8 249.3 351.6 251.6 361.8 264.5C362.7 265.7 364.3 265.9 365.4 265S366.8 262.5 365.9 261.3L359 252.5 372.6 254.1C374.2 254.3 375.4 253.4 375.5 251.8 375.7 250.3 374.8 249.1 373.2 248.9L359.6 247.2 368.4 240.3C369 239.9 369.6 239.4 369.7 238.4S369.4 236.7 369 236.2C368 235 366.5 234.8 365.3 235.7L352.4 245.8 333.5 243.5 364.1 219.6C364.7 219.1 365.2 218.7 365.4 217.6 365.4 217.1 365 216 364.6 215.4 363.7 214.2 362.1 214 360.9 215L326.2 242.1 287.5 237.3 310.9 206.2 354.3 199.8C355.4 199.4 356.6 198.5 356.7 197.4 356.7 197.4 356.7 196.9 356.7 196.9 356.4 195.3 354.9 194.6 353.9 194.4L316 199.9 327.4 184.8 344.1 182.6C345.3 182.2 346.4 181.3 346.6 180.2 346.6 180.2 346.6 179.7 346.6 179.7 346.3 178.1 344.8 177.4 343.7 177.2L332.3 179 340.6 167.8C340.7 167.3 341.3 166.8 341.4 166.3 341.5 165.3 341.1 164.1 340.1 163.5 338.6 162.8 337 162.6 336.3 164.1L328 175.3 326.2 163.9C325.9 162.3 324.4 161.6 323.3 161.4 321.7 161.8 321 163.3 320.9 164.3L323.1 181.1 311.6 196.2 306.2 158.3C305.8 156.6 304.3 155.9 303.3 155.8 301.5 157.2 300.3 158.6 300.6 160.3Z" fill="rgba(59, 130, 246, 0.7)"></path><path d="M1143 385.2L1076.2 405.7 1059 397.1 1057.2 354 1073.7 343.2 1142 359.1C1142.8 359 1142.8 359 1143.6 359 1145.3 358.9 1147 358 1147.7 355.5 1147.6 352.9 1146.7 351.3 1144.2 350.5L1084.4 336.9 1110 320.6 1136.4 326.3C1136.4 326.3 1137.3 326.3 1137.3 326.3 1139 326.2 1140.6 325.3 1141.3 322.8 1142.1 321 1140.3 318.6 1137.8 317.8L1120.7 313.4 1139.7 301.7C1141.3 300.8 1142.1 298.2 1141.1 295.7S1136.8 293.4 1134.3 294.3L1116.2 306 1119.7 289C1120.5 286.4 1118.7 283.9 1116.1 283.2 1114.4 283.3 1111.9 284.2 1111.2 286.8L1105.5 313.2 1079.1 329.5 1092.7 269.8C1093.5 267.2 1091.7 264.7 1090 264 1087.4 264.1 1084.9 265 1084.2 267.6L1069.2 335.8 1051.9 346.6 1014.7 327 1013.9 306.7 1060.9 255C1062.5 253.2 1062.4 250.7 1060.6 249.1S1056.4 247.6 1054.7 249.3L1013.5 294.9 1012.2 263.7 1030 244.4C1031.6 242.6 1031.5 240.1 1029.8 237.7S1025.5 236.1 1023.8 237.9L1011.7 251.9 1010.8 229.1C1010.7 226.6 1008.1 225 1005.6 225.1 1003.1 225.2 1001.4 227 1001.5 229.5L1002.5 252.3 989.3 240.1C987.5 237.7 985 237.8 983.4 240.4 981.8 242.1 981.9 244.6 983.6 246.3L1002.9 264.1 1004.2 295.3 959.4 253.2C957.6 251.5 954.3 251.7 952.6 253.4S951.1 257.7 952.9 259.3L1004.7 307.1 1005.5 327.4 969.2 350 951.9 340.5 931.5 273.7C930.5 271.2 928 270.5 925.4 270.6 922.9 271.5 922.2 274.1 922.3 276.6L940.7 335 913.9 320.9 906.1 295C905.2 292.5 902.6 291.8 900.1 291.9 898.4 292.8 896.9 295.4 897.8 297.9L902.7 314.6 882.8 304.4C881.1 303.6 878.6 304.6 877 306.3 876.3 308.9 877.2 311.4 878.9 312.2L898.8 322.4 881.3 328.1C879.6 329 878 331.6 878.9 333.3 879 335.8 880.8 336.6 883.3 336.5 883.3 336.5 884.1 336.5 884.1 336.5L910 328.7 936.8 342.8 878.4 361.2C875.9 362.2 874.3 363.9 875.2 366.4 876.1 368.9 877.9 369.7 879.6 369.6 880.4 369.6 880.4 369.6 880.4 369.6L948 348.3 965.3 357.7 967 400.7 950.5 410.7 881.4 395.7C879.7 395 877.3 396.7 876.5 398.5 875.7 401 877.5 403.5 880.1 404.2L939.8 417.9 914.3 434.1 887.8 428.4C885.3 427.7 882.8 428.6 882.9 431.2 882.1 433.7 883.9 436.2 885.6 437L903.5 440.5 884.6 452.2C882.9 454 882.2 456.6 883.1 459.1 884 459.9 885.7 460.6 887.4 460.6 888.3 460.5 888.3 460.5 889.1 459.7L908 447.9 904.5 465.8C903.8 468.4 905.6 470 907.3 470.8 908.1 470.7 908.1 470.7 909 470.7 910.7 470.6 912.3 469.7 913.1 468L918.8 441.6 944.3 425.3 930.7 485C930.8 487.6 931.7 490.1 934.2 490 935.1 490.8 935.1 490.8 936 490.7 937.7 490.7 939.3 488.9 940.1 487.2L955 418.1 971.5 408.2 1009.5 427.8 1010.3 447.2 962.5 499C960.9 500.7 961 504.1 962.8 505.7S967.9 507.2 969.5 505.4L1010.8 459.8 1012 490.2 994.2 510.4C992.6 512.1 992.7 514.7 994.5 516.3 996.2 517.9 998.7 517.8 1000.4 516L1012.5 502.9 1013.4 525.7C1013.5 527.3 1015.3 529.8 1017.8 529.7 1020.4 529.6 1022.8 527 1022.7 525.3L1021.8 502.5 1035 514.6C1035.8 515.5 1036.7 516.3 1037.6 516.2 1039.2 516.2 1040.1 515.3 1040.9 514.4 1042.5 512.7 1042.4 510.1 1040.6 508.5L1021.3 489.8 1020.1 459.5 1064.9 501.6C1065.7 502.4 1066.6 502.4 1068.3 502.3 1069.1 502.3 1070 502.3 1070.8 501.4 1072.4 499.6 1072.3 496.2 1070.5 494.6L1019.6 446.8 1018.8 427.4 1054.2 404.9 1072.3 413.4 1092.8 481.1C1093.7 482.7 1095.4 484.3 1097.1 484.3 1098 484.2 1098 484.2 1097.9 483.4 1100.5 483.3 1102.1 480.7 1101.1 478.2L1082.7 419.8 1110.3 433.9 1118.1 459.8C1119 461.4 1120.7 462.2 1122.4 462.1 1122.4 462.1 1123.3 462.1 1123.3 462.1 1125.8 462 1127.4 459.4 1126.5 456.9L1120.7 439.4 1140.5 449.6C1141.4 450.4 1142.2 450.3 1143.1 450.3 1144.8 450.2 1146.4 449.3 1146.4 448.5 1148 445.9 1147 443.4 1145.3 441.8L1125.4 431.6 1142.1 426.7C1144.6 425.7 1146.2 423.1 1145.3 420.6 1144.4 419 1141.8 417.4 1140.1 418.3L1114.2 426.1 1087.5 412 1145.9 393.6C1148.4 392.6 1149.1 390.1 1149 387.5 1148.1 385.9 1145.5 384.3 1143 385.2ZM1048.2 359.5L1049.5 392.4 1049.7 397.4 1045.6 400.1 1018.4 417.3 1013.4 420 1009.1 417.7 980.6 402.7 976.3 400.4 976.1 395.3 974.8 362.4 974.6 357.3 978.7 354.6 1005.9 337.5 1010 334.8 1015.2 337.1 1043.6 352 1048 354.4 1048.2 359.5Z" fill="rgba(59, 130, 246, 0.7)"></path><path d="M1062.3 761.6L1074 775.9 1063.1 778.1C1061.9 778.3 1060.9 779.6 1060.8 781.2 1061.5 782.6 1062.8 783.6 1064.1 783L1077.9 780.7 1087.5 791.4 1058.8 796.2C1057.5 796.8 1056.4 798.2 1056.6 799.3 1057 801.2 1058.3 802.2 1059.7 801.6L1091.4 796.2 1105.5 813 1080.2 814.6 1098.7 831.9 1077 835.9 1056.1 811.5C1056.3 811 1055.8 810.8 1055.3 810.6 1054.3 810.3 1053.1 810.4 1052.3 811.2 1051.4 812.1 1051.4 813.7 1052 815.1L1071 837.1 1056.8 839.2 1047.7 828.7C1047.3 828 1046.9 827.8 1046.4 827.6 1045.9 827.4 1044.7 827.6 1043.8 828.4 1043 829.2 1042.9 830.9 1043.7 831.7L1050.7 840.4 1032.6 844C1030.9 843.9 1030.4 845.4 1030.4 847.1 1030.5 848.3 1031.8 849.3 1033.6 848.9L1051.6 845.8 1047.8 856.2C1047.3 857.7 1048.4 859.2 1049.4 859.6 1050.9 860.1 1052.3 859.5 1052.8 858L1057.6 844.6 1071.9 842.4 1062.2 869.3C1061.7 870.7 1062.3 872.1 1063.8 872.6 1064.8 873 1066.6 872.5 1067.2 871L1077.9 841.3 1099.5 837.3 1088.6 859.7 1112.5 852.6 1105 873.5 1073.8 879.1C1072 879.5 1071.4 881 1071.6 882.2 1071.7 883.3 1073 884.4 1074.7 884.4L1103 878.9 1098.2 892.3 1084.3 895.2C1082.6 895.1 1081.6 896.4 1082 898.3 1082.2 899.5 1083.5 900.5 1085.3 900L1096 898.3 1089.8 915.7C1089.2 917.2 1089.9 918.5 1091.4 919S1094.2 919 1094.7 917.5L1101 900.1 1108.2 908.3C1109.3 909.8 1110.9 909.8 1111.8 909 1113.3 907.9 1113.4 906.2 1112.1 905.2L1103.2 894.1 1108 880.7 1126.3 903C1127.6 904.1 1129.3 904.1 1130.1 903.3 1131.7 902.2 1131.7 900.5 1130.4 899.5L1110 875.3 1117.5 854.4 1131.3 875.1 1137.3 850.9 1151.4 867.8 1140.6 897.6C1140.1 899 1141.2 900.6 1142.2 900.9 1143.7 901.5 1145.1 900.8 1145.6 899.3L1155.5 872 1164.9 883.3 1160 896.7C1159.5 898.2 1160.1 899.5 1161.6 900.1 1162.6 900.4 1164.4 900 1165 898.5L1168.7 888.1 1180.6 901.9C1181.7 903.4 1183.4 903.4 1184.4 902.1 1185.3 901.3 1185.8 899.8 1184.5 898.8L1172.8 884.5 1183.7 882.2C1184.9 882.1 1186 880.8 1185.8 879.6 1185.7 878.5 1184.9 877.6 1184.4 877.4 1183.9 877.2 1183.4 877.1 1182.7 877.4L1169 879.7 1159.4 869 1188 864.2C1189.4 863.5 1190.4 862.2 1190.3 861 1190.1 859.9 1189.3 859 1188.3 858.7 1187.8 858.5 1187.8 858.5 1187.2 858.8L1155.5 864.2 1141.4 847.3 1166.6 845.8 1148.2 828.5 1169.8 824.5 1190.7 848.9C1191.6 849.7 1193 850.3 1194.6 849.1 1195.4 848.3 1195.5 846.6 1194.8 845.3L1175.8 823.3 1190.1 821.1 1199.2 831.7C1199.8 833.1 1201.5 833.1 1203 832 1203.9 831.2 1203.9 829.5 1203.3 828.1L1196.1 819.9 1214.2 816.4C1215.9 816.4 1216.5 814.9 1216.5 813.3 1216.2 812.6 1215.4 811.7 1214.9 811.6 1214.4 811.4 1213.9 811.2 1213.2 811.5L1195.3 814.6 1199 804.2C1199.6 802.7 1198.4 801.1 1197.4 800.8L1197.4 800.8C1195.9 800.2 1194.6 800.9 1194.1 802.4L1189.2 815.8 1175 817.9 1184.6 791.1C1185.2 789.6 1184.6 788.3 1183.1 787.7S1180.2 787.8 1179.7 789.3L1168.9 819.1 1147.3 823.1 1158.2 800.7 1134.3 807.7 1141.8 786.9 1173 781.3C1174.9 780.9 1175.4 779.4 1175.3 778.2 1175.1 777 1173.8 776 1172.2 776L1144 780.9 1148.7 768 1162.6 765.2C1164.2 765.2 1165.3 763.9 1164.8 762.1 1164.7 760.9 1163.4 759.9 1161.7 759.8L1150.8 762.1 1157.1 744.7C1157.6 743.2 1157 741.9 1155.5 741.3S1152.6 741.4 1152.1 742.9L1145.8 760.3 1138.7 752.1C1138.4 751.4 1137.9 751.2 1137.4 751.1 1136.4 750.7 1135.7 751 1135 751.3 1133.5 752.5 1133.5 754.1 1134.8 755.2L1143.7 766.2 1138.9 779.6 1120.5 757.3C1120 757.1 1119.5 757 1119 756.8 1118.1 756.4 1117.4 756.7 1116.7 757.1 1115.2 758.2 1115.1 759.9 1116.4 760.9L1136.9 785.1 1129.4 806 1115.5 785.2 1109.6 809.5 1095.5 792.6 1106.2 762.8C1106.7 761.3 1105.6 759.8 1104.6 759.4 1103.1 758.9 1101.8 759.5 1101.2 761L1091.6 787.8 1082 777.1 1086.8 763.7C1087.4 762.2 1086.7 760.8 1085.2 760.3S1082.4 760.4 1081.9 761.9L1078.1 772.3 1066.2 758.5C1065.9 757.8 1065.4 757.6 1064.9 757.5 1064.4 757.3 1063.3 757.4 1062.4 758.2 1061.6 759 1061 760.5 1062.3 761.6ZM1117.7 797.8L1129 814.8 1148.5 808.9 1139.5 827.6 1154.2 841.3 1134 843 1129.1 862.5 1117.9 845.6 1098.4 851.4 1107.2 833.3 1092.6 819.1 1112.7 817.9 1117.7 797.8Z" fill="rgba(59, 130, 246, 0.7)"></path></g><defs><mask id="SvgjsMask1038"><rect width="1900" height="1000" fill="#ffffff"></rect></mask><filter id="SvgjsFilter1039"><feGaussianBlur stdDeviation="1"></feGaussianBlur></filter></defs></svg>